<svg width="889" height="362" viewBox="0 0 889 362" fill="none" xmlns="http://www.w3.org/2000/svg">
    <path d="M316 361.519V301.419L368 271.419" stroke="#F7FAF9" stroke-miterlimit="10" />
    <path d="M368 331.419V271.419" stroke="#F7FAF9" stroke-miterlimit="10" />
    <path d="M472 211.419L523.9 181.319" stroke="#F7FAF9" stroke-miterlimit="10" />
    <path d="M420 121.319V181.319" stroke="#F7FAF9" stroke-miterlimit="10" />
    <path d="M523.9 181.319L472 151.319L420 181.319" stroke="#F7FAF9" stroke-miterlimit="10" />
    <path d="M783.9 271.419L731.9 301.419L679.9 271.419" stroke="#F7FAF9" stroke-miterlimit="10" />
    <path d="M679.9 211.419V271.419" stroke="#F7FAF9" stroke-miterlimit="10" />
    <path d="M679.9 271.419L731.9 241.419L783.9 271.419" stroke="#F7FAF9" stroke-miterlimit="10" />
    <path d="M627.9 301.419L679.9 271.419" stroke="#F7FAF9" stroke-miterlimit="10" />
    <path d="M575.9 211.419V271.419" stroke="#F7FAF9" stroke-miterlimit="10" />
    <path d="M627.9 181.319L575.9 211.419" stroke="#F7FAF9" stroke-miterlimit="10" />
    <path d="M679.9 271.419L627.9 241.419" stroke="#F7FAF9" stroke-miterlimit="10" />
    <path d="M627.9 241.419L575.9 271.419" stroke="#F7FAF9" stroke-miterlimit="10" />
    <path d="M627.9 241.419V181.319" stroke="#F7FAF9" stroke-miterlimit="10" />
    <path d="M575.9 211.419L523.9 181.319" stroke="#F7FAF9" stroke-miterlimit="10" />
    <path d="M472 271.419L523.9 301.419" stroke="#F7FAF9" stroke-miterlimit="10" />
    <path d="M472 211.419V271.419" stroke="#F7FAF9" stroke-miterlimit="10" />
    <path d="M575.9 271.419L523.9 241.419" stroke="#F7FAF9" stroke-miterlimit="10" />
    <path d="M523.9 241.419L472 271.419" stroke="#F7FAF9" stroke-miterlimit="10" />
    <path d="M523.9 241.419V181.319" stroke="#F7FAF9" stroke-miterlimit="10" />
    <path d="M472 211.419L420 181.319" stroke="#F7FAF9" stroke-miterlimit="10" />
    <path d="M472 271.419L420 301.419V361.519V301.419" stroke="#F7FAF9" stroke-miterlimit="10" />
    <path d="M472 271.419L420 241.419" stroke="#F7FAF9" stroke-miterlimit="10" />
    <path d="M420 241.419L368 271.419" stroke="#F7FAF9" stroke-miterlimit="10" />
    <path d="M420 241.419V181.319" stroke="#F7FAF9" stroke-miterlimit="10" />
    <path d="M627.9 361.519V301.419" stroke="#F7FAF9" stroke-miterlimit="10" />
    <path d="M627.9 301.419L575.9 271.419" stroke="#F7FAF9" stroke-miterlimit="10" />
    <path d="M523.9 301.419V361.519" stroke="#F7FAF9" stroke-miterlimit="10" />
    <path d="M575.9 271.419L523.9 301.419" stroke="#F7FAF9" stroke-miterlimit="10" />
    <path d="M575.9 331.419V271.419" stroke="#F7FAF9" stroke-miterlimit="10" />
    <path d="M783.9 211.419V271.419" stroke="#F7FAF9" stroke-miterlimit="10" />
    <path d="M783.9 271.419L835.9 301.419L887.9 271.419" stroke="#F7FAF9" stroke-miterlimit="10" />
    <path d="M835.9 241.419V301.419" stroke="#F7FAF9" stroke-miterlimit="10" />
    <path d="M160 211.419L212 181.319L264 211.419" stroke="#F7FAF9" stroke-miterlimit="10" />
    <path d="M212 241.419L160 271.419" stroke="#F7FAF9" stroke-miterlimit="10" />
    <path d="M160 271.419V211.419" stroke="#F7FAF9" stroke-miterlimit="10" />
    <path d="M56 271.419L108 301.419" stroke="#F7FAF9" stroke-miterlimit="10" />
    <path d="M108 301.419L160 271.419" stroke="#F7FAF9" stroke-miterlimit="10" />
    <path d="M160 271.419L108 241.419" stroke="#F7FAF9" stroke-miterlimit="10" />
    <path d="M108 241.419L56 271.419" stroke="#F7FAF9" stroke-miterlimit="10" />
    <path d="M108 241.419V181.319" stroke="#F7FAF9" stroke-miterlimit="10" />
    <path d="M108 181.319L160 211.419" stroke="#F7FAF9" stroke-miterlimit="10" />
    <path d="M160 151.319L108 181.319" stroke="#F7FAF9" stroke-miterlimit="10" />
    <path d="M4 181.319L56 211.419V271.419" stroke="#F7FAF9" stroke-miterlimit="10" />
    <path d="M-48 271.419L4.00002 301.419" stroke="#F7FAF9" stroke-miterlimit="10" />
    <path d="M56 271.419L4 241.419" stroke="#F7FAF9" stroke-miterlimit="10" />
    <path d="M4 241.419V181.319" stroke="#F7FAF9" stroke-miterlimit="10" />
    <path d="M108 181.319V121.319" stroke="#F7FAF9" stroke-miterlimit="10" />
    <path d="M108 181.319L56 151.319" stroke="#F7FAF9" stroke-miterlimit="10" />
    <path d="M56 151.319L4 181.319" stroke="#F7FAF9" stroke-miterlimit="10" />
    <path d="M-48 211.419L4.00002 181.319L-48 211.419ZM-48 211.419V271.419V211.419Z"
        stroke="#F7FAF9" stroke-miterlimit="10" />
    <path d="M4.00002 181.319L-48 151.319" stroke="#F7FAF9" stroke-miterlimit="10" />
    <path d="M4.00002 121.319L-48 91.319L4.00002 121.319ZM4.00002 121.319L56 91.319V151.319V91.319"
        stroke="#F7FAF9" stroke-miterlimit="10" />
    <path d="M-48 31.319L4.00002 1.21899V61.319L-48 91.319" stroke="#F7FAF9" stroke-miterlimit="10" />
    <path d="M368 271.419L316 241.419" stroke="#F7FAF9" stroke-miterlimit="10" />
    <path d="M316 241.419L264 271.419L212 241.419L264 271.419" stroke="#F7FAF9"
        stroke-miterlimit="10" />
    <path d="M368 271.419V211.419V271.419ZM368 271.419V211.419L316 181.319V241.419" stroke="#F7FAF9"
        stroke-miterlimit="10" />
    <path d="M212 241.419V181.319" stroke="#F7FAF9" stroke-miterlimit="10" />
</svg>