<svg width="373" height="570" viewBox="0 0 373 570" fill="none" xmlns="http://www.w3.org/2000/svg">
<path opacity="0.1366" d="M355.4 548.419C355.5 543.619 350.9 539.219 346 539.219C340.6 539.119 336.8 542.919 336.8 548.419C336.8 554.119 340.2 557.719 345.7 557.819C352 558.019 355.3 552.719 355.4 548.419Z" fill="#F7FAF9"/>
<path opacity="0.9375" d="M316.9 572.919C318.4 573.619 319.8 573.619 321.3 572.919C324.7 571.819 326.8 569.419 328 566.219C328.7 564.719 328.7 563.319 328 561.819C326.8 558.519 324.6 556.319 321.3 555.119C319.8 554.419 318.4 554.419 316.9 555.119C313.3 556.019 311 558.119 310.2 561.819C309.5 563.319 309.5 564.719 310.2 566.219C311.1 569.719 313.2 572.119 316.9 572.919Z" fill="#F7FAF9"/>
<path opacity="0.5354" d="M349 505.419C349 510.719 352.5 514.119 358.1 514.219C362.2 514.219 366.6 509.619 366.5 505.419C366.4 500.819 362.2 496.819 357.5 496.819C352.6 496.819 348.7 500.819 349 505.419Z" fill="#F7FAF9"/>
<path opacity="0.9539" d="M311.9 536.919C312 532.619 308 528.719 303.6 528.719C299.4 528.719 295.5 531.919 295.3 536.619C295.1 541.319 299.2 545.619 303.1 545.119C308.3 545.519 311.8 540.919 311.9 536.919Z" fill="#F7FAF9"/>
<path opacity="0.3008" d="M370.9 455.219C369.4 454.519 368 454.519 366.5 455.219C363.7 456.119 361.3 457.519 360.9 460.819C360.1 462.319 360.2 463.719 360.9 465.219C361.5 468.319 363.3 470.319 366.5 470.819C368 471.519 369.4 471.519 370.9 470.819C373.9 470.119 375.2 467.619 376.5 465.219C377.2 463.719 377.2 462.319 376.5 460.819C375.4 458.219 373.6 456.319 370.9 455.219Z" fill="#F7FAF9"/>
<path opacity="0.228" d="M284.4 554.519C285.2 553.019 285.2 551.619 284.4 550.119C283.3 547.519 281.5 545.619 278.8 544.519C277.3 543.719 275.9 543.719 274.4 544.519C271.4 545.219 269.7 547.219 268.8 550.119C268 551.619 268 553.019 268.8 554.519C269.7 557.419 271.3 559.419 274.4 560.119C275.9 560.919 277.3 560.919 278.8 560.119C281.4 559.019 283.3 557.219 284.4 554.519Z" fill="#F7FAF9"/>
<path opacity="0.8914" d="M333.5 478.319C333 482.119 337.3 486.719 341.3 486.619C345.5 486.419 349.2 483.119 349.4 478.519C349.4 474.419 345.9 470.719 341.8 470.719C336.5 470.719 334.1 473.819 333.5 478.319Z" fill="#F7FAF9"/>
<path opacity="0.599" d="M249.5 560.119C245 560.119 241.7 563.019 241.9 567.719C241.9 572.419 244.8 575.419 249.4 575.419C253.7 575.419 257.4 571.819 257.3 567.619C257.2 563.619 253.7 560.119 249.5 560.119Z" fill="#F7FAF9"/>
<path opacity="0.913" d="M314.5 486.919C310.8 487.019 306.9 489.319 307.1 494.519C307.1 498.919 310 502.019 314.1 502.019C318.6 502.019 322.2 498.719 322.2 494.519C322.3 490.619 318.5 486.819 314.5 486.919Z" fill="#F7FAF9"/>
<path opacity="0.7304" d="M279.9 509.819C279.8 513.119 284.1 517.619 287.4 517.619C291 517.619 294.7 513.819 294.8 510.019C294.9 506.019 291.8 502.819 287.8 502.719C283.5 502.619 280.1 505.619 279.9 509.819Z" fill="#F7FAF9"/>
<path opacity="0.4303" d="M353.1 428.919C349.4 429.019 345.5 432.219 346.3 435.719C346.3 440.019 348.9 443.019 352.6 443.019C356.8 443.019 360.6 439.619 360.5 436.019C360.3 432.319 356.7 428.819 353.1 428.919Z" fill="#F7FAF9"/>
<path opacity="0.4582" d="M267.5 525.219C267.4 521.519 264.1 518.319 260.3 518.419C256.2 518.419 253.7 521.319 253.5 525.619C253.3 528.819 256.9 532.919 260.4 532.419C264.2 532.419 267.7 528.919 267.5 525.219Z" fill="#F7FAF9"/>
<path opacity="0.6845" d="M319.1 451.519C319.2 454.719 322.8 458.519 325.9 458.619C329.4 458.719 332.9 455.119 332.8 451.419C332.8 447.719 330 444.919 326.2 444.819C322.2 444.719 319 447.719 319.1 451.519Z" fill="#F7FAF9"/>
<path opacity="0.7308" d="M240.2 540.919C240.3 537.519 237.2 534.319 233.7 534.119C229.5 533.919 226.9 537.119 227 540.319C227.1 544.719 229.2 547.219 233.2 547.319C236.9 547.519 240.1 544.619 240.2 540.919Z" fill="#F7FAF9"/>
<path opacity="0.8538" d="M298.8 473.919C302.6 473.919 305.6 471.119 305.8 467.519C305.9 464.119 302.6 460.819 299.1 460.919C295.6 461.019 292.9 463.019 292.9 467.319C292.7 471.219 295.2 473.919 298.8 473.919Z" fill="#F7FAF9"/>
<path opacity="0.6418" d="M265.6 482.819C265.6 485.619 268.9 489.219 271.5 489.319C274.7 489.519 278.2 486.219 278.2 482.919C278.2 479.419 275.6 476.719 272 476.719C268.6 476.719 265.6 479.619 265.6 482.819Z" fill="#F7FAF9"/>
<path opacity="0.995" d="M173.5 572.219C173.5 575.919 175.6 578.219 179.2 578.219C182.7 578.219 185.6 575.419 185.5 572.119C185.4 568.919 182.5 566.119 179.2 566.219C175.7 566.219 173.5 568.619 173.5 572.219Z" fill="#F7FAF9"/>
<path opacity="0.6378" d="M331.9 409.219C331.9 412.519 334.3 414.919 337.5 414.919C340.8 414.919 343.8 411.919 343.7 408.819C343.6 405.819 340.6 402.919 337.5 403.019C334.6 403.019 331.9 406.019 331.9 409.219Z" fill="#F7FAF9"/>
<path opacity="0.8749" d="M239.6 496.119C238.8 497.619 238.8 499.019 239.6 500.519C240.2 502.219 241.2 503.419 243 503.919C244.5 504.719 245.9 504.719 247.4 503.919C248.7 503.019 249.7 501.819 250.6 500.519C251.6 499.019 251.6 497.619 250.6 496.119C249.8 494.819 248.7 493.719 247.4 492.919C246 491.819 244.5 492.119 243 492.719C241.6 493.519 240 494.219 239.6 496.119Z" fill="#F7FAF9"/>
<path opacity="0.333" d="M305.3 424.119C305.2 427.819 307.1 429.819 310.5 429.919C313.7 429.919 316.3 427.419 316.3 424.319C316.2 421.419 313.6 418.919 310.6 418.919C307.5 418.919 305.4 421.019 305.3 424.119Z" fill="#F7FAF9"/>
<path opacity="0.595" d="M212.7 513.719C212.7 517.019 214.6 519.219 217.7 519.219C220.8 519.219 223.5 516.819 223.6 513.919C223.7 511.119 220.9 508.319 217.9 508.319C214.7 508.319 212.7 510.419 212.7 513.719Z" fill="#F7FAF9"/>
<path opacity="0.3468" d="M370.8 348.819C370.1 349.919 370.1 351.019 370.8 352.019C371.1 354.419 372.7 355.519 374.8 355.719C377 355.919 379 355.319 380.2 353.219C382 350.219 381.1 347.619 377.5 345.319C376.4 344.619 375.3 344.619 374.3 345.319C372.5 345.919 371 346.719 370.8 348.819Z" fill="#F7FAF9"/>
<path opacity="0.9605" d="M278.8 438.719C278 439.819 278 440.919 278.8 442.019C279.3 443.819 280.3 445.119 282.2 445.419C283.3 446.219 284.4 446.219 285.5 445.419C287 444.719 288.2 443.519 288.9 442.019C289.7 440.919 289.7 439.819 288.9 438.719C288.2 437.219 287 436.019 285.5 435.319C284.4 434.519 283.3 434.519 282.2 435.319C280.2 435.719 279.3 437.019 278.8 438.719Z" fill="#F7FAF9"/>
<path opacity="0.5538" d="M190.7 535.219C193.5 535.119 196.1 532.319 196 529.619C195.9 526.919 193.6 524.819 190.7 524.819C187.9 524.819 185.6 527.019 185.5 529.719C185.6 532.119 188.5 535.319 190.7 535.219Z" fill="#F7FAF9"/>
<path opacity="0.7299" d="M344 366.419C344 369.519 345.6 371.319 348.5 371.419C351.4 371.419 353.7 369.319 353.8 366.619C353.9 363.919 351.5 361.619 348.7 361.619C345.7 361.619 344 363.319 344 366.419Z" fill="#F7FAF9"/>
<path opacity="0.2457" d="M251.9 456.019C251.9 458.719 253.9 460.719 256.6 460.619C259.1 460.619 261.4 458.319 261.5 455.819C261.6 453.419 259.2 451.019 256.6 450.919C253.9 450.919 251.9 453.119 251.9 456.019Z" fill="#F7FAF9"/>
<path opacity="0.5333" d="M159.6 546.819C160.1 548.219 160.8 549.319 162.4 549.619C163.5 550.419 164.6 550.419 165.7 549.619C166.8 548.819 167.7 547.919 168.5 546.819C169.3 545.719 169.3 544.619 168.5 543.519C167.7 542.419 166.8 541.519 165.7 540.719C164.6 539.919 163.5 539.919 162.4 540.719C160.8 541.019 160.1 542.119 159.6 543.519C158.8 544.619 158.8 545.719 159.6 546.819Z" fill="#F7FAF9"/>
<path opacity="0.2534" d="M317.4 382.019C317.4 384.919 319 386.419 321.8 386.319C324.3 386.219 326.1 384.319 326.2 381.919C326.2 379.419 324.3 377.519 321.6 377.519C318.8 377.519 317.4 379.019 317.4 382.019Z" fill="#F7FAF9"/>
<path opacity="0.7848" d="M229.5 475.619C231.7 475.619 234 473.319 234 471.319C234 469.219 231.6 467.019 229.4 467.019C226.9 467.019 225.3 468.819 225.3 471.419C225.4 474.119 227 475.719 229.5 475.619Z" fill="#F7FAF9"/>
<path opacity="0.6458" d="M295.1 401.719C297.1 401.719 299.2 399.419 299.2 397.319C299.2 394.919 297.7 393.519 295.2 393.519C292.9 393.519 291.1 395.219 291 397.319C290.9 399.019 293.4 401.719 295.1 401.719Z" fill="#F7FAF9"/>
<path opacity="0.6597" d="M202.2 490.519C204.5 490.619 206.6 488.719 206.6 486.619C206.6 484.719 204.7 482.919 202.6 482.819C200.3 482.719 199 484.119 198.9 486.519C198.8 489.219 199.9 490.519 202.2 490.519Z" fill="#F7FAF9"/>
<path opacity="0.5798" d="M267.9 417.119C269.7 417.019 271.6 415.219 271.6 412.819C271.4 411.219 270.4 410.019 268.2 410.019C266 410.019 264.4 411.419 264.5 413.419C264.5 415.019 266.5 417.219 267.9 417.119Z" fill="#F7FAF9"/>
<path opacity="0.117" d="M175.2 506.019C177.5 506.119 178.6 504.819 178.9 502.919C179.2 501.219 177.4 499.519 175.3 499.419C173.8 499.619 172.3 500.119 172.4 502.319C172.4 504.319 172.5 505.919 175.2 506.019Z" fill="#F7FAF9"/>
<path opacity="0.5455" d="M240.9 431.919C242.6 431.819 244.3 431.019 244.1 428.619C243.9 426.619 242.8 425.919 240.9 426.019C239 425.819 238.2 427.119 238.1 428.819C238.1 430.519 239.2 432.019 240.9 431.919Z" fill="#F7FAF9"/>
<path opacity="0.4387" d="M333.6 342.319C335.1 342.219 336.2 341.419 336.2 339.619C336.2 337.719 335.3 336.719 333.4 336.719C331.7 336.719 330.7 337.619 330.6 339.419C330.6 341.219 331.6 342.119 333.6 342.319Z" fill="#F7FAF9"/>
<path opacity="0.9495" d="M148.3 520.919C150 520.919 151.2 519.919 151.3 518.319C151.4 516.519 150.1 515.519 148.3 515.519C146.5 515.519 146 516.719 146 518.219C146 519.719 146.5 520.919 148.3 520.919Z" fill="#F7FAF9"/>
<path opacity="0.9374" d="M306.1 357.419C307.3 357.319 309 356.919 308.6 354.919C308.7 353.119 307.8 352.619 306.3 352.619C304.8 352.619 303.8 353.219 303.7 354.719C303.7 356.319 304.6 357.519 306.1 357.419Z" fill="#F7FAF9"/>
<path opacity="0.85" d="M213.9 446.419C215.3 446.419 216.3 445.819 216.4 444.419C216.5 442.919 215.6 442.119 214.1 442.019C212.7 441.919 212.1 442.619 212.1 443.519C212.1 445.319 212.2 446.419 213.9 446.419Z" fill="#F7FAF9"/>
<path opacity="0.6623" d="M371.6 283.119C372.6 282.619 373.8 282.419 373.7 280.919C373.6 279.719 373 279.319 371.9 279.319C370.8 279.319 369.9 279.619 369.9 280.919C369.9 282.119 370.6 282.719 371.6 283.119Z" fill="#F7FAF9"/>
<path opacity="0.13" d="M121 535.619C122 535.719 123.1 535.119 123.3 533.919C123.3 532.619 122.9 532.019 121.7 532.019C120.6 532.019 119.6 532.019 119.5 533.419C119.3 534.619 120 535.519 121 535.619Z" fill="#F7FAF9"/>
<path opacity="0.5377" d="M278.8 372.319C279.8 372.319 281 371.819 281 370.319C281 369.019 280.2 368.619 279 368.619C277.8 368.619 277.1 369.119 277.1 370.419C277.2 371.519 277.9 372.419 278.8 372.319Z" fill="#F7FAF9"/>
<path opacity="0.1235" d="M344.8 298.019C345.7 298.019 346.2 297.319 346.6 296.519C346.4 295.619 345.899 295.019 344.999 294.919C343.899 294.719 343.499 295.419 343.499 296.419C343.399 297.219 343.7 298.019 344.8 298.019Z" fill="#F7FAF9"/>
<path opacity="0.5749" d="M96.1001 549.019C95.8001 548.219 95.3 547.519 94.4 547.519C93.3 547.419 93 548.219 93 549.119C93 550.019 93.4 550.819 94.5 550.619C95.3 550.519 95.9001 549.919 96.1001 549.019Z" fill="#F7FAF9"/>
<path opacity="0.7219" d="M186.9 461.219C187.9 461.219 188.7 460.619 188.7 459.519C188.7 458.719 187.9 458.119 186.9 458.019C186 458.119 185.7 458.819 185.7 459.719C185.7 460.619 186 461.319 186.9 461.219Z" fill="#F7FAF9"/>
<path opacity="0.6104" d="M317.8 313.419C318.4 313.319 318.9 313.019 318.9 312.519C319 311.819 318.4 311.419 317.7 311.419C317 311.419 316.9 311.919 316.9 312.519C316.9 313.019 317.1 313.519 317.8 313.419Z" fill="#F7FAF9"/>
<path opacity="0.4452" d="M225.2 402.819C225.8 402.719 226.1 402.419 226.3 401.819C226.2 401.219 225.8 400.919 225.3 400.819C224.7 400.719 224.3 401.019 224.3 401.719C224.2 402.319 224.3 402.919 225.2 402.819Z" fill="#F7FAF9"/>
<path opacity="0.1861" d="M67.3 566.119C67.9 566.119 68.4 565.819 68.5 565.319C68.6 564.619 68.1 564.219 67.4 564.119C66.7 564.019 66.5 564.419 66.5 565.119C66.5 565.519 66.5 566.019 67.3 566.119Z" fill="#F7FAF9"/>
<path opacity="0.4869" d="M134.1 491.019C134.1 490.419 133.6 490.119 133 490.119C132.3 490.119 132.1 490.519 132.1 491.119C132.1 491.719 132.2 492.219 132.9 492.219C133.7 492.119 134.2 491.819 134.1 491.019Z" fill="#F7FAF9"/>
<path opacity="0.3107" d="M107.1 506.519C107 505.919 106.6 505.619 106 505.519C105.1 505.419 105 506.019 105 506.719C105 507.419 105.4 507.719 106 507.519C106.7 507.519 107.1 507.119 107.1 506.519Z" fill="#F7FAF9"/>
<path opacity="0.6048" d="M290.8 328.919C291.4 328.919 291.7 328.519 291.9 327.919C291.9 327.319 291.5 326.919 290.9 326.819C290.3 326.719 289.9 326.919 289.8 327.619C289.9 328.319 289.9 328.919 290.8 328.919Z" fill="#F7FAF9"/>
<path opacity="0.2461" d="M198.2 418.219C198.8 418.119 199.2 417.819 199.2 417.119C199.1 416.419 198.6 416.019 197.9 416.119C197.2 416.219 197.2 416.819 197.2 417.319C197.2 418.019 197.6 418.319 198.2 418.219Z" fill="#F7FAF9"/>
<path opacity="0.6773" d="M356.3 254.919C357 254.919 357.5 254.519 357.5 253.819C357.5 253.219 357 252.919 356.4 252.819C355.8 252.819 355.5 253.219 355.5 253.819C355.5 254.419 355.6 255.019 356.3 254.919Z" fill="#F7FAF9"/>
<path opacity="0.3376" d="M252.1 387.319C252.8 387.319 253.3 386.919 253.3 386.219C253.3 385.619 252.8 385.319 252.2 385.319C251.5 385.319 251.3 385.719 251.3 386.319C251.3 386.919 251.4 387.419 252.1 387.319Z" fill="#F7FAF9"/>
<path opacity="0.5707" d="M160.3 476.719C160.6 476.619 161.1 476.419 161.2 475.819C161.2 475.119 160.7 474.719 160 474.719C159.3 474.719 159.2 475.219 159.2 475.819C159.1 476.319 159.3 476.819 160.3 476.719Z" fill="#F7FAF9"/>
<path opacity="0.3297" d="M204.4 550.719C202.4 551.319 201.2 552.719 200.5 554.619C199.7 556.119 199.7 557.519 200.5 559.019C201.2 560.919 202.3 562.319 204.4 562.919C205.9 563.719 207.3 563.719 208.8 562.919C210.4 561.919 211.7 560.619 212.7 559.019C213.5 557.519 213.5 556.119 212.7 554.619C211.7 553.019 210.4 551.719 208.8 550.719C207.3 549.919 205.8 549.819 204.4 550.719Z" fill="#F7FAF9"/>
<path opacity="0.1194" d="M138.7 564.519C139.5 563.719 140.2 563.019 141 562.219C141.8 561.119 141.8 560.019 141 558.919C140.2 558.119 139.5 557.419 138.7 556.619C137.6 555.819 136.5 555.819 135.4 556.619C134.1 556.819 133.5 557.719 133.1 558.919C132.3 560.019 132.3 561.119 133.1 562.219C133.4 563.419 134 564.319 135.4 564.519C136.5 565.319 137.6 565.319 138.7 564.519Z" fill="#F7FAF9"/>
<path opacity="0.6161" d="M351.6 577.219C352.3 581.619 355.3 585.119 360 585.619C361.1 586.319 362.2 586.319 363.3 585.619C367.8 584.519 370.5 581.619 371.7 577.219C372.4 576.119 372.4 575.019 371.7 573.919C370.5 569.519 367.7 566.719 363.3 565.519C362.2 564.819 361.1 564.819 360 565.519C355.3 566.319 352.4 569.119 351.6 573.919C350.8 575.019 350.8 576.119 351.6 577.219Z" fill="#F7FAF9"/>
<path opacity="0.3343" d="M357.1 325.119C357.3 326.119 357.9 326.719 358.8 326.919C359.9 327.619 361 327.619 362.1 326.919C362.6 326.319 363.2 325.719 363.7 325.219C364.7 324.119 364.7 323.019 363.7 321.919C363.2 321.419 362.6 320.919 362.1 320.319C361.1 319.319 360 319.419 358.8 320.119C358.1 320.619 357.2 320.919 357.1 321.919C356.3 322.919 356.3 324.019 357.1 325.119Z" fill="#F7FAF9"/>
<path opacity="0.9458" d="M374.8 541.919C379.1 541.019 381.3 538.019 382.6 534.119C383.3 533.019 383.4 531.919 382.6 530.819C381.4 526.819 378.8 524.219 374.8 523.019C373.7 522.219 372.6 522.219 371.5 523.019C367.3 524.019 364.2 526.119 363.7 530.819C362.9 531.919 362.9 533.019 363.7 534.119C364 538.019 367.6 541.719 371.5 541.919C372.6 542.719 373.7 542.719 374.8 541.919Z" fill="#F7FAF9"/>
<path opacity="0.7478" d="M378.7 413.319C375.8 414.219 373.5 415.519 373.1 418.919C372.3 420.019 372.3 421.119 373.1 422.219C373.8 425.519 375.4 427.219 378.7 427.819C379.8 428.619 380.9 428.619 382 427.819C385 427.119 386.3 424.719 387.6 422.219C388.4 421.119 388.4 420.019 387.6 418.919C386.5 416.219 384.7 414.419 382 413.319C380.9 412.519 379.8 412.519 378.7 413.319Z" fill="#F7FAF9"/>
<path opacity="0.5407" d="M329 513.119C325.3 513.919 322.8 515.919 322.3 519.819C321.6 520.919 321.6 522.019 322.3 523.119C322.5 526.419 325.7 529.719 329 529.919C330.1 530.619 331.2 530.619 332.3 529.919C335.9 529.019 337.9 526.519 339.1 523.119C339.8 522.019 339.8 520.919 339.1 519.819C338.1 516.319 335.8 514.119 332.3 513.119C331.2 512.419 330.1 512.419 329 513.119Z" fill="#F7FAF9"/>
<path opacity="0.7765" d="M363.2 387.419C360.7 387.919 359.4 389.619 358.7 391.919C357.9 393.019 357.9 394.119 358.7 395.219C359.4 397.519 360.7 399.219 363.2 399.719C364.3 400.519 365.4 400.519 366.5 399.719C368.5 398.719 370 397.219 371 395.219C371.8 394.119 371.8 393.019 371 391.919C370 389.919 368.5 388.419 366.5 387.419C365.4 386.619 364.3 386.619 363.2 387.419Z" fill="#F7FAF9"/>
</svg>
