<svg width="1026" height="328" viewBox="0 0 1026 328" fill="none" xmlns="http://www.w3.org/2000/svg">
    <path d="M469.1 116.519L417.1 146.519" stroke="#F7FAF9" stroke-miterlimit="10" />
    <path d="M521.1 146.519V206.519L469.1 236.519L417.1 206.519V146.519" stroke="#F7FAF9"
        stroke-miterlimit="10" />
    <path d="M417.1 146.519L469.1 176.519" stroke="#F7FAF9" stroke-miterlimit="10" />
    <path d="M469.1 176.519L521.1 146.519" stroke="#F7FAF9" stroke-miterlimit="10" />
    <path d="M469.1 176.519V236.519" stroke="#F7FAF9" stroke-miterlimit="10" />
    <path d="M677.1 56.419L729.1 86.519" stroke="#F7FAF9" stroke-miterlimit="10" />
    <path d="M729.1 86.519L781.1 56.419" stroke="#F7FAF9" stroke-miterlimit="10" />
    <path d="M729.1 86.519V146.519" stroke="#F7FAF9" stroke-miterlimit="10" />
    <path d="M885.1 56.419L833.1 26.419" stroke="#F7FAF9" stroke-miterlimit="10" />
    <path d="M833.1 146.519V86.519L885.1 56.419" stroke="#F7FAF9" stroke-miterlimit="10" />
    <path d="M729.1 146.519V206.519" stroke="#F7FAF9" stroke-miterlimit="10" />
    <path d="M729.1 146.519L781.1 176.519" stroke="#F7FAF9" stroke-miterlimit="10" />
    <path d="M781.1 176.519L833.1 146.519" stroke="#F7FAF9" stroke-miterlimit="10" />
    <path d="M781.1 176.519V236.519L833.1 206.519" stroke="#F7FAF9" stroke-miterlimit="10" />
    <path d="M885.1 56.419V116.519" stroke="#F7FAF9" stroke-miterlimit="10" />
    <path d="M937.1 26.419L885.1 56.419" stroke="#F7FAF9" stroke-miterlimit="10" />
    <path d="M885.1 56.419L937.1 86.519V146.519V86.519" stroke="#F7FAF9" stroke-miterlimit="10" />
    <path d="M833.1 146.519V206.519" stroke="#F7FAF9" stroke-miterlimit="10" />
    <path d="M833.1 206.519L885.1 236.519" stroke="#F7FAF9" stroke-miterlimit="10" />
    <path d="M937.1 146.519L885.1 116.519" stroke="#F7FAF9" stroke-miterlimit="10" />
    <path d="M885.1 116.519L833.1 146.519" stroke="#F7FAF9" stroke-miterlimit="10" />
    <path d="M833.1 146.519L885.1 176.519" stroke="#F7FAF9" stroke-miterlimit="10" />
    <path d="M885.1 176.519L937.1 146.519" stroke="#F7FAF9" stroke-miterlimit="10" />
    <path d="M885.1 176.519V236.519" stroke="#F7FAF9" stroke-miterlimit="10" />
    <path d="M989 56.419L1041 86.519" stroke="#F7FAF9" stroke-miterlimit="10" />
    <path d="M1041 146.519L989 116.519" stroke="#F7FAF9" stroke-miterlimit="10" />
    <path d="M989 116.519L937.1 146.519" stroke="#F7FAF9" stroke-miterlimit="10" />
    <path d="M937.1 146.519L989 176.519" stroke="#F7FAF9" stroke-miterlimit="10" />
    <path d="M989 176.519L1041 146.519" stroke="#F7FAF9" stroke-miterlimit="10" />
    <path d="M989 176.519V236.519" stroke="#F7FAF9" stroke-miterlimit="10" />
    <path d="M1041 206.519L989 236.519" stroke="#F7FAF9" stroke-miterlimit="10" />
    <path d="M989 236.519L1041 266.619" stroke="#F7FAF9" stroke-miterlimit="10" />
    <path d="M989 236.519V296.619L1041 326.619V266.619" stroke="#F7FAF9" stroke-miterlimit="10" />
    <path d="M885.1 236.519L937.1 266.619" stroke="#F7FAF9" stroke-miterlimit="10" />
    <path d="M937.1 266.619L989 236.519" stroke="#F7FAF9" stroke-miterlimit="10" />
    <path d="M937.1 266.619V326.619" stroke="#F7FAF9" stroke-miterlimit="10" />
    <path d="M677.1 56.419L625.1 26.419" stroke="#F7FAF9" stroke-miterlimit="10" />
    <path d="M677.1 56.419V116.519V56.419ZM677.1 56.419V116.519L729.1 146.519" stroke="#F7FAF9"
        stroke-miterlimit="10" />
    <path d="M573.1 56.419L625.1 86.519" stroke="#F7FAF9" stroke-miterlimit="10" />
    <path d="M625.1 86.519L677.1 56.419" stroke="#F7FAF9" stroke-miterlimit="10" />
    <path d="M625.1 86.519V146.519" stroke="#F7FAF9" stroke-miterlimit="10" />
    <path d="M521.1 -33.581V26.419" stroke="#F7FAF9" stroke-miterlimit="10" />
    <path d="M625.1 26.419V-33.581" stroke="#F7FAF9" stroke-miterlimit="10" />
    <path d="M573.1 56.419L625.1 26.419" stroke="#F7FAF9" stroke-miterlimit="10" />
    <path d="M573.1 -3.58103V56.419" stroke="#F7FAF9" stroke-miterlimit="10" />
    <path d="M157.2 56.419V116.519" stroke="#F7FAF9" stroke-miterlimit="10" />
    <path d="M261.1 56.419L209.2 26.419" stroke="#F7FAF9" stroke-miterlimit="10" />
    <path d="M209.2 26.419L157.2 56.419" stroke="#F7FAF9" stroke-miterlimit="10" />
    <path d="M53.2002 -3.58103V56.419" stroke="#F7FAF9" stroke-miterlimit="10" />
    <path d="M157.2 56.419V-3.58103" stroke="#F7FAF9" stroke-miterlimit="10" />
    <path d="M157.2 56.419L105.2 86.519L53.2002 56.419" stroke="#F7FAF9" stroke-miterlimit="10" />
    <path d="M53.2002 -3.58103L105.2 26.419" stroke="#F7FAF9" stroke-miterlimit="10" />
    <path d="M105.2 26.419L157.2 -3.58103" stroke="#F7FAF9" stroke-miterlimit="10" />
    <path d="M105.2 26.419V86.519" stroke="#F7FAF9" stroke-miterlimit="10" />
    <path d="M53.2 56.419L1.19995 26.419" stroke="#F7FAF9" stroke-miterlimit="10" />
    <path d="M53.2 56.419L1.19995 86.519V146.519L53.2 116.519V56.419Z" stroke="#F7FAF9"
        stroke-miterlimit="10" />
    <path d="M209.2 146.519L261.1 116.519V56.419" stroke="#F7FAF9" stroke-miterlimit="10" />
    <path d="M261.1 56.419L209.2 86.519L157.2 56.419" stroke="#F7FAF9" stroke-miterlimit="10" />
    <path d="M365.1 56.419L313.1 26.419" stroke="#F7FAF9" stroke-miterlimit="10" />
    <path d="M365.1 116.519V56.419" stroke="#F7FAF9" stroke-miterlimit="10" />
    <path d="M261.1 56.419L313.1 86.519" stroke="#F7FAF9" stroke-miterlimit="10" />
    <path d="M313.1 86.519L365.1 56.419" stroke="#F7FAF9" stroke-miterlimit="10" />
    <path d="M313.1 86.519V146.519L365.1 116.519" stroke="#F7FAF9" stroke-miterlimit="10" />
    <path d="M365.1 116.519L417.1 146.519" stroke="#F7FAF9" stroke-miterlimit="10" />
    <path d="M469.1 116.519V56.419" stroke="#F7FAF9" stroke-miterlimit="10" />
    <path d="M365.1 56.419L417.1 86.519" stroke="#F7FAF9" stroke-miterlimit="10" />
    <path d="M417.1 86.519L469.1 56.419" stroke="#F7FAF9" stroke-miterlimit="10" />
    <path d="M417.1 86.519V146.519" stroke="#F7FAF9" stroke-miterlimit="10" />
    <path d="M521.1 26.419L469.1 56.419" stroke="#F7FAF9" stroke-miterlimit="10" />
    <path d="M521.1 146.519L573.1 116.519V56.419V116.519" stroke="#F7FAF9" stroke-miterlimit="10" />
    <path d="M469.1 56.419L521.1 86.519" stroke="#F7FAF9" stroke-miterlimit="10" />
    <path d="M521.1 86.519L573.1 56.419" stroke="#F7FAF9" stroke-miterlimit="10" />
    <path d="M521.1 86.519V146.519" stroke="#F7FAF9" stroke-miterlimit="10" />
    <path d="M313.1 -33.581V26.419" stroke="#F7FAF9" stroke-miterlimit="10" />
    <path d="M417.1 26.419V-33.581" stroke="#F7FAF9" stroke-miterlimit="10" />
    <path d="M365.1 56.419L417.1 26.419" stroke="#F7FAF9" stroke-miterlimit="10" />
    <path d="M365.1 -3.58103V56.419" stroke="#F7FAF9" stroke-miterlimit="10" />
    <path d="M677.1 -3.58103V56.419" stroke="#F7FAF9" stroke-miterlimit="10" />
    <path d="M729.1 26.419L677.1 56.419" stroke="#F7FAF9" stroke-miterlimit="10" />
    <path d="M885.1 236.519L937.1 206.519L989 236.519" stroke="#F7FAF9" stroke-miterlimit="10" />
    <path d="M1093 56.419L1041 26.419L989 56.419V116.519" stroke="#F7FAF9" stroke-miterlimit="10" />
    <path d="M729.1 146.519L781.1 116.519L833.1 146.519" stroke="#F7FAF9" stroke-miterlimit="10" />
</svg>