<svg width="531" height="540" viewBox="0 0 531 540" fill="none" xmlns="http://www.w3.org/2000/svg">
    <path
        d="M305.421 0.0479715C377.341 1.31891 488.617 28.6642 520.645 98.9359C531.83 123.479 531.074 159.561 529.558 231.724C529.113 252.935 528.374 283.85 523.19 322.21C512.421 401.893 505.091 456.138 477.344 487.724C407.821 566.869 156.685 564.582 49.4423 422.095C-9.05735 344.369 -18.058 233.798 35.435 142.416C94.328 41.8075 209.136 -1.65304 305.421 0.0479715Z"
        fill="#F4F7FA" />
    <path
        d="M97.6291 200.794C102.393 198.402 108.879 197.992 114.093 198.807C151.066 204.585 138.908 281.848 129.429 297.562C119.95 313.276 122.282 319.687 148.891 335.158C175.501 350.629 157.824 364.592 152.03 373.801C146.239 383.01 137.381 389.88 155.984 404.624C174.587 419.37 165.912 423.865 165.912 423.865C165.912 423.865 118.344 454.42 123.368 442.293C128.394 430.166 128.913 410.234 94.7092 400.855C79.9768 396.815 58.828 384.487 57.4413 367.402C57.1193 363.423 57.6033 357.57 59.3776 353.937C61.8404 348.895 66.2993 345.503 69.3908 340.936C76.596 330.294 67.2173 319.135 62.4826 309.83C60.0102 304.972 57.5648 300.01 56.0219 294.762C52.8185 283.869 57.2234 273.987 65.1672 266.45C68.9762 262.836 73.948 259.214 76.3491 254.41C78.9296 249.251 79.4889 241.52 80.4647 235.825C81.2304 231.36 81.8186 226.87 83.0818 222.508C85.4308 214.392 89.6621 204.79 97.6252 200.792L97.6291 200.794Z"
        fill="url(#paint0_linear_447_829)" />
    <mask id="mask0_447_829" style="mask-type:luminance" maskUnits="userSpaceOnUse" x="54" y="198"
        width="114" height="248">
        <path
            d="M97.6291 200.794C102.393 198.402 108.879 197.992 114.093 198.807C151.066 204.585 138.908 281.848 129.429 297.562C119.95 313.276 122.282 319.687 148.891 335.158C175.501 350.629 157.824 364.592 152.03 373.801C146.239 383.01 137.381 389.88 155.984 404.624C174.587 419.37 165.912 423.865 165.912 423.865C165.912 423.865 118.344 454.42 123.368 442.293C128.394 430.166 128.913 410.234 94.7092 400.855C79.9768 396.815 58.828 384.487 57.4413 367.402C57.1193 363.423 57.6033 357.57 59.3776 353.937C61.8404 348.895 66.2993 345.503 69.3908 340.936C76.596 330.294 67.2173 319.135 62.4826 309.83C60.0102 304.972 57.5648 300.01 56.0219 294.762C52.8185 283.869 57.2234 273.987 65.1672 266.45C68.9762 262.836 73.948 259.214 76.3491 254.41C78.9296 249.251 79.4889 241.52 80.4647 235.825C81.2304 231.36 81.8186 226.87 83.0818 222.508C85.4308 214.392 89.6621 204.79 97.6252 200.792L97.6291 200.794Z"
            fill="white" />
    </mask>
    <g mask="url(#mask0_447_829)">
        <g style="mix-blend-mode:soft-light" opacity="0.8">
            <path
                d="M163.865 446.676C164.092 446.823 164.401 446.782 164.582 446.57C164.781 446.339 164.754 445.99 164.52 445.793C164.378 445.671 150.122 433.417 135.258 415.213C121.563 398.44 104.536 373.041 101.193 347.295C98.4028 325.791 99.2302 291.491 103.463 253.191C107.261 218.847 112.329 193.967 115.035 189.753C115.199 189.496 115.126 189.155 114.869 188.991C114.613 188.827 114.271 188.9 114.107 189.157C110.942 194.086 105.783 222.161 102.366 253.07C98.1232 291.452 97.2958 325.849 100.098 347.435C103.475 373.446 120.624 399.038 134.415 415.925C149.34 434.2 163.66 446.508 163.803 446.63C163.822 446.647 163.843 446.663 163.865 446.676Z"
                fill="white" />
            <path
                d="M102.032 259.689C102.287 259.853 102.59 259.841 102.754 259.587C102.973 259.249 124.915 225.877 144.295 221.655C144.592 221.59 144.772 221.312 144.708 221.013C144.642 220.716 144.343 220.535 144.046 220.598C124.222 224.916 102.738 257.589 101.832 258.979C101.666 259.234 101.772 259.521 102.028 259.687C102.028 259.687 102.03 259.687 102.032 259.689Z"
                fill="white" />
            <path
                d="M98.9273 303.522C99.1182 303.643 99.3728 303.641 99.5618 303.495C99.8028 303.309 99.8491 302.962 99.6621 302.721C99.5811 302.617 91.4772 292.131 80.7369 282.429C66.2224 269.318 54.0608 263.797 44.5876 266.015C44.2906 266.084 44.1074 266.381 44.1768 266.678C44.2462 266.975 44.5432 267.158 44.8402 267.089C66.6351 261.984 98.4702 302.98 98.7884 303.394C98.8289 303.446 98.8752 303.489 98.9273 303.522Z"
                fill="white" />
            <path
                d="M122.535 399.997C122.585 400.03 122.641 400.053 122.7 400.068C122.995 400.141 123.296 399.96 123.368 399.663C123.406 399.507 127.279 383.916 134.343 368.173C140.821 353.74 151.376 336.221 164.871 334.724C165.174 334.691 165.391 334.417 165.359 334.115C165.326 333.812 165.052 333.594 164.749 333.627C153.496 334.874 142.925 346.35 133.331 367.734C126.226 383.565 122.334 399.241 122.295 399.399C122.238 399.634 122.34 399.871 122.533 399.995L122.535 399.997Z"
                fill="white" />
            <path
                d="M106.115 369.599C106.316 369.728 106.584 369.716 106.773 369.552C107.004 369.354 107.031 369.005 106.833 368.773C105.396 367.095 71.4316 327.667 54.8361 326.877C54.5314 326.861 54.273 327.097 54.2576 327.401C54.2421 327.706 54.4774 327.964 54.7821 327.98C70.907 328.749 105.645 369.086 105.994 369.492C106.03 369.535 106.071 369.57 106.115 369.599Z"
                fill="white" />
        </g>
    </g>
    <path
        d="M25.6759 297.493C29.3692 293.649 35.3458 291.1 40.5356 290.13C77.3175 283.244 91.6276 360.139 87.9324 378.115C84.2373 396.091 88.5727 401.357 118.819 407.067C149.065 412.778 137.057 431.836 134.668 442.451C132.278 453.064 126.221 462.494 148.675 470.189C171.129 477.886 164.453 485.018 164.453 485.018C164.453 485.018 129.798 529.688 130.49 516.581C131.183 503.473 125.025 484.509 89.6527 487.074C74.4169 488.179 50.3656 483.612 43.361 467.966C41.7294 464.323 40.2348 458.643 40.6957 454.626C41.336 449.052 44.4082 444.366 45.8007 439.029C49.0445 426.594 36.4798 419.202 28.9121 412.008C24.9604 408.253 20.9991 404.39 17.7957 399.958C11.1441 390.757 12.0004 379.972 16.9742 370.218C19.3598 365.539 22.839 360.467 23.5005 355.138C24.2121 349.412 22.1601 341.939 21.1823 336.244C20.4148 331.779 19.4736 327.351 19.2075 322.817C18.7157 314.383 19.5025 303.919 25.674 297.493H25.6759Z"
        fill="url(#paint1_linear_447_829)" />
    <mask id="mask1_447_829" style="mask-type:luminance" maskUnits="userSpaceOnUse" x="13" y="289"
        width="153" height="230">
        <path
            d="M25.6759 297.493C29.3692 293.649 35.3458 291.1 40.5356 290.13C77.3175 283.244 91.6276 360.139 87.9324 378.115C84.2373 396.091 88.5727 401.357 118.819 407.067C149.065 412.778 137.057 431.836 134.668 442.451C132.278 453.064 126.221 462.494 148.675 470.189C171.129 477.886 164.453 485.018 164.453 485.018C164.453 485.018 129.798 529.688 130.49 516.581C131.183 503.473 125.025 484.509 89.6527 487.074C74.4169 488.179 50.3656 483.612 43.361 467.966C41.7294 464.323 40.2348 458.643 40.6957 454.626C41.336 449.052 44.4082 444.366 45.8007 439.029C49.0445 426.594 36.4798 419.202 28.9121 412.008C24.9604 408.253 20.9991 404.39 17.7957 399.958C11.1441 390.757 12.0004 379.972 16.9742 370.218C19.3598 365.539 22.839 360.467 23.5005 355.138C24.2121 349.412 22.1601 341.939 21.1823 336.244C20.4148 331.779 19.4736 327.351 19.2075 322.817C18.7157 314.383 19.5025 303.919 25.674 297.493H25.6759Z"
            fill="white" />
    </mask>
    <g mask="url(#mask1_447_829)">
        <g style="mix-blend-mode:soft-light" opacity="0.8">
            <path
                d="M170.129 507.203C170.393 507.264 170.669 507.124 170.769 506.863C170.879 506.578 170.736 506.26 170.453 506.15C170.277 506.082 152.75 499.286 132.666 487.082C114.161 475.836 89.6375 457.573 77.8982 434.414C68.0933 415.073 57.4341 382.462 48.6532 344.944C40.7789 311.299 37.2573 286.153 38.4048 281.279C38.4742 280.982 38.291 280.685 37.994 280.616C37.697 280.546 37.4 280.73 37.3306 281.027C35.9902 286.729 40.4915 314.916 47.579 345.196C56.3811 382.798 67.0731 415.499 76.9147 434.916C88.7735 458.311 113.477 476.718 132.111 488.038C152.276 500.289 169.882 507.116 170.057 507.183C170.081 507.193 170.106 507.201 170.131 507.207L170.129 507.203Z"
                fill="white" />
            <path
                d="M49.4201 351.757C49.7152 351.827 50.0199 351.609 50.0912 351.314C50.1857 350.922 59.7534 312.09 76.6169 301.647C76.8754 301.487 76.9583 301.138 76.7982 300.877C76.6381 300.619 76.2987 300.534 76.0403 300.694C58.7911 311.377 49.4104 349.443 49.0209 351.057C48.9495 351.354 49.1231 351.688 49.4201 351.757C49.4201 351.757 49.422 351.757 49.4239 351.757H49.4201Z"
                fill="white" />
            <path
                d="M61.1636 393.904C61.3834 393.956 61.6226 393.868 61.7537 393.667C61.9196 393.411 61.8463 393.069 61.5898 392.903C61.4798 392.832 50.3423 385.65 36.9792 380.086C18.9238 372.567 5.6166 371.417 -2.57408 376.669C-2.83058 376.833 -2.9058 377.174 -2.73994 377.43C-2.57601 377.687 -2.23465 377.762 -1.97815 377.596C16.866 365.516 60.5503 393.544 60.99 393.829C61.044 393.864 61.1038 393.889 61.1636 393.904Z"
                fill="white" />
            <path
                d="M115.596 476.982C115.654 476.995 115.714 476.999 115.777 476.993C116.08 476.963 116.302 476.693 116.271 476.39C116.255 476.23 114.705 460.24 116.115 443.043C117.407 427.275 121.515 407.239 133.738 401.328C134.012 401.194 134.128 400.865 133.995 400.591C133.862 400.317 133.532 400.201 133.258 400.334C123.065 405.264 116.929 419.609 115.013 442.968C113.596 460.263 115.156 476.34 115.172 476.5C115.195 476.741 115.37 476.93 115.594 476.982H115.596Z"
                fill="white" />
            <path
                d="M89.9786 453.802C90.21 453.856 90.4588 453.756 90.5822 453.54C90.7346 453.276 90.6439 452.938 90.3797 452.786C88.4646 451.683 43.2954 425.842 27.3865 430.63C27.0953 430.719 26.9294 431.026 27.0162 431.319C27.1049 431.61 27.4116 431.776 27.7047 431.689C43.1623 427.035 89.3634 453.476 89.8281 453.744C89.8764 453.771 89.9265 453.793 89.9766 453.804L89.9786 453.802Z"
                fill="white" />
        </g>
    </g>
    <path
        d="M185.186 359.393C181.988 349.701 182.586 339.179 186.868 329.868L191.782 318.993C193.062 316.206 193.639 313.188 193.639 310.139V304.029C193.639 301.383 192.393 298.924 190.167 297.456L169.56 283.842C163.57 279.893 159.229 273.989 157.26 267.154C155.289 260.31 152.514 251.22 149.548 243.388C146.049 234.147 137.426 227.829 127.45 227.192L120.449 226.745C106.588 225.862 94.3651 236.046 92.7606 249.747C91.2466 262.68 88.7587 277.569 84.8341 286.093C81.0676 294.274 79.9625 303.304 81.6191 312.092C86.861 339.871 94.2321 378.233 89.7983 387.679C153.582 394.682 194.611 387.957 194.611 387.957L185.186 359.393ZM116.75 292.56L104.276 292.704C104.276 292.704 105.782 284.238 107.391 276.433C108.999 268.624 115.138 265.866 115.742 265.856L118.06 265.82L116.75 292.561V292.56ZM133.623 292.409L128.968 266.128C138.794 266.377 146.308 293.265 146.612 293.364C146.917 293.46 133.623 292.409 133.623 292.409Z"
        fill="url(#paint2_linear_447_829)" />
    <path
        d="M189.301 359.385C186.1 349.688 186.7 339.16 190.985 329.841L195.935 318.962C197.218 316.173 197.827 313.155 197.827 310.106V303.994C197.827 301.348 196.549 298.881 194.319 297.414L173.672 283.79C167.674 279.839 163.319 273.929 161.348 267.091C159.373 260.242 156.591 251.147 153.622 243.309C150.12 234.062 141.484 227.74 131.496 227.104L124.485 226.656C110.607 225.773 98.3686 235.963 96.7621 249.672C95.2462 262.613 92.7545 277.509 88.826 286.041C85.0556 294.226 83.9486 303.263 85.6072 312.056C90.8549 339.85 98.2355 378.235 93.7959 387.687C157.657 394.693 198.734 387.964 198.734 387.964L189.297 359.383L189.301 359.385ZM120.783 292.511L108.295 292.656C108.295 292.656 109.803 284.184 111.414 276.375C113.024 268.56 119.17 265.8 119.776 265.791L122.096 265.754L120.785 292.511H120.783ZM137.675 292.361L133.014 266.065C142.851 266.313 150.375 293.219 150.679 293.316C150.984 293.412 137.675 292.361 137.675 292.361Z"
        fill="url(#paint3_linear_447_829)" />
    <path
        d="M517.49 160.145L515.841 138.418C515.576 134.943 512.545 132.318 509.065 132.551L496.321 133.411C494.858 127.724 492.937 122.231 490.553 116.993L501.126 109.898C504.011 107.962 504.751 104.045 502.782 101.146L490.451 83.002C488.476 80.0976 484.53 79.3069 481.637 81.2393L470.922 88.3905C466.853 84.2209 462.432 80.3965 457.704 76.9733L463.354 65.3729C464.878 62.2447 463.545 58.4454 460.375 56.8871L440.52 47.1169C437.34 45.5509 433.517 46.8218 431.986 49.9558L426.297 61.5948C420.733 59.9767 414.974 58.8408 409.082 58.187L408.093 45.1363C407.827 41.632 404.743 38.9609 401.2 39.1692L379.008 40.4787C375.452 40.689 372.782 43.7072 373.05 47.2211L374.044 60.3103C368.264 61.6758 362.68 63.506 357.354 65.7991L349.869 54.8852C347.852 51.9422 343.811 51.1341 340.847 53.0801L322.273 65.2784C319.297 67.232 318.528 71.2087 320.556 74.1556L328.066 85.0714C323.8 89.1021 319.905 93.4973 316.412 98.2031L304.395 92.3981C301.141 90.8263 297.23 92.1261 295.658 95.3044L285.827 115.196C284.253 118.38 285.622 122.233 288.885 123.799L300.814 129.525C299.186 135.116 298.071 140.906 297.454 146.828L284.247 147.719C280.631 147.964 277.916 151.035 278.186 154.579L279.867 176.746C280.135 180.291 283.287 182.958 286.901 182.704L300.002 181.782C301.479 187.595 303.442 193.203 305.88 198.545L295.103 205.739C292.11 207.737 291.336 211.735 293.375 214.672L306.107 233.009C308.142 235.938 312.21 236.689 315.191 234.687L325.883 227.511C330.08 231.759 334.649 235.632 339.526 239.09L333.937 250.52C332.375 253.716 333.736 257.544 336.976 259.07L357.199 268.593C360.428 270.113 364.302 268.759 365.855 265.569L371.371 254.245C377.077 255.824 382.977 256.891 389.002 257.459L389.951 269.978C390.217 273.492 393.314 276.115 396.865 275.833L419.024 274.086C422.559 273.806 425.209 270.74 424.943 267.235L423.996 254.754C429.826 253.273 435.444 251.325 440.786 248.906L447.86 259.187C449.848 262.078 453.823 262.811 456.733 260.827L474.906 248.436C477.807 246.457 478.553 242.515 476.573 239.63L469.479 229.287C473.68 225.189 477.516 220.737 480.931 215.978L492.271 221.42C495.427 222.934 499.212 221.611 500.728 218.467L510.192 198.821C511.704 195.683 510.379 191.907 507.231 190.387L495.87 184.899C497.417 179.358 498.472 173.63 499.029 167.771L511.669 166.882C515.148 166.637 517.752 163.622 517.488 160.149L517.49 160.145ZM403.927 221.837C368.025 224.508 336.566 197.801 333.862 162.17C331.158 126.54 358.256 95.7943 394.188 93.5128C429.905 91.2448 460.868 117.986 463.543 153.229C466.218 188.472 439.613 219.183 403.925 221.839L403.927 221.837Z"
        fill="#D8DEE8" />
    <path
        d="M305.501 154.354L304.755 154.605C301.678 155.638 300.315 159.843 301.711 163.995L301.79 164.228C303.187 168.38 306.81 170.907 309.886 169.873L310.633 169.622C312.185 169.102 312.293 165.26 310.876 161.044C309.458 156.828 307.051 153.833 305.501 154.354Z"
        fill="url(#paint4_linear_447_829)" />
    <path
        d="M312.629 160.454C314.18 165.069 313.64 169.414 311.347 170.184C309.053 170.955 305.877 167.858 304.327 163.243C302.776 158.628 303.437 154.242 305.729 153.473C308.022 152.703 311.077 155.839 312.627 160.454H312.629Z"
        fill="url(#paint5_linear_447_829)" />
    <path d="M311.226 170.227L312.102 169.933L306.484 153.223L305.609 153.517L311.226 170.227Z"
        fill="url(#paint6_linear_447_829)" />
    <path
        d="M313.445 160.18C314.996 164.795 314.396 169.16 312.103 169.931C309.81 170.702 306.695 167.586 305.145 162.971C303.594 158.356 304.194 153.991 306.487 153.22C308.78 152.448 311.895 155.565 313.445 160.18Z"
        fill="url(#paint7_linear_447_829)" />
    <path style="mix-blend-mode:multiply" opacity="0.6"
        d="M311.551 160.816C312.394 163.326 312.068 165.7 310.822 166.118C309.577 166.537 307.881 164.843 307.039 162.334C306.196 159.825 306.522 157.451 307.768 157.033C309.013 156.614 310.709 158.307 311.551 160.816Z"
        fill="url(#paint8_linear_447_829)" />
    <path
        d="M428.826 470.304L438.984 464.2H443.568C443.568 464.2 445.13 470.012 444.953 470.304C442.91 473.65 433.401 476.197 427.466 476.407C426.481 476.442 425.106 476.448 424.751 475.734C424.149 474.525 426.838 471.989 428.826 470.305V470.304Z"
        fill="url(#paint9_linear_447_829)" />
    <path
        d="M439.164 457.54C439.181 461.096 439.029 463.606 438.138 464.709C437.511 465.486 443.534 467.233 443.566 464.201C443.588 462.205 443.902 458.782 444.22 457.775C442.535 457.698 440.847 457.619 439.162 457.54H439.164Z"
        fill="url(#paint10_linear_447_829)" />
    <path
        d="M360.909 469.306L371.067 463.202H375.651C375.651 463.202 377.213 469.015 377.036 469.306C374.993 472.652 365.484 475.2 359.549 475.41C358.564 475.445 357.189 475.451 356.834 474.735C356.232 473.526 358.921 470.99 360.909 469.306Z"
        fill="url(#paint11_linear_447_829)" />
    <path
        d="M374.153 456.585C372.673 459.415 371.111 462.606 370.222 463.71C369.595 464.487 374.6 466.047 375.651 463.202C376.503 460.896 378.893 457.826 379.211 456.821C377.526 456.742 375.838 456.665 374.153 456.585Z"
        fill="url(#paint12_linear_447_829)" />
    <path
        d="M376.243 290.062C380.174 316.2 382.741 348.708 380.423 385.839C378.71 413.266 374.681 437.616 369.974 458.283C373.108 459.095 376.243 459.908 379.377 460.72C383.281 459.816 388.812 457.86 392.611 453.058C397.608 446.744 395.329 440.922 398.881 430.42C402.272 420.394 406.322 419.861 410.374 411.264C415.66 400.051 412.431 393.182 412.811 378.177C413.455 352.793 423.241 350.826 426.394 319.317C428.045 302.82 428.861 293.349 422.911 287.275C414.582 278.77 396.264 280.279 376.242 290.062H376.243Z"
        fill="url(#paint13_linear_447_829)" />
    <path
        d="M397.838 284.791C408.574 309.774 419.731 341.769 427.094 379.872C432.979 410.323 435.115 437.826 435.453 461.023H445.902C448.924 456.626 452.895 449.808 455.306 440.823C457.709 431.865 456.197 429.555 457.743 415.399C459.851 396.105 462.613 395.218 462.272 383.704C461.878 370.474 457.859 370.528 456.351 357.235C454.12 337.571 462.243 331.502 461.925 313.35C461.782 305.196 459.905 292.913 450.779 277.825C433.133 280.147 415.486 282.469 397.84 284.791H397.838Z"
        fill="url(#paint14_linear_447_829)" />
    <path
        d="M260.612 281.735L256.515 285.364C256.515 285.364 247.522 285.009 244.286 285.833C241.048 286.656 235.463 289.464 235.463 289.464C235.463 289.464 236.859 291.526 238.84 290.745C240.82 289.964 243.881 288.909 244.467 289.194C245.056 289.48 246.44 293.21 251.156 293.833C255.871 294.456 258.066 288.905 258.066 288.905L262.531 285.115L260.614 281.733L260.612 281.735Z"
        fill="url(#paint15_linear_447_829)" />
    <path
        d="M307.543 186.139C305.885 186.343 302.631 187.346 295.266 201.027C285.733 218.734 283.233 231.813 279.592 242.559C276.184 252.617 269.787 266.505 256.605 281.74C258.783 284.005 260.958 286.269 263.136 288.533C281.808 288.07 291.056 282.116 296.049 276.778C303.337 268.987 301.086 263.014 309.892 251.18C320.195 237.335 328.003 239.153 331.573 230.022C338.264 212.902 319.338 184.69 307.541 186.139H307.543Z"
        fill="url(#paint16_linear_447_829)" />
    <path
        d="M401.058 161.846C390.374 158.423 382.012 159.372 367.1 161.063C345.34 163.532 331.389 170.745 319.298 176.997C307.414 183.142 304.269 186.609 302.581 190.58C298.645 199.839 303.441 209.953 306.5 216.178C314.309 232.076 321.557 231.522 338.108 250.657C352.667 267.492 359.947 275.91 364.751 288.272C366.876 293.742 368.951 300.824 375.723 304.989C382.295 309.034 389.755 308.158 394.008 307.601C411.87 305.263 413.453 293.734 425.092 294.54C434.367 295.183 436.379 302.712 452.258 305.25C459.356 306.384 461.427 305.275 462.445 304.467C466.31 301.398 465.861 294.062 462.185 279.129C456.534 256.171 451.497 248.729 446.774 230.544C441.867 211.66 445.645 213.32 441.549 202.595C440.172 198.991 428.892 170.762 401.06 161.846H401.058Z"
        fill="url(#paint17_linear_447_829)" />
    <path
        d="M398.868 257.026L361.214 215.698C360.306 214.499 358.807 213.899 357.322 214.142L314.199 221.191C312.352 221.493 311.499 223.661 312.649 225.14L347.705 270.242C348.644 271.451 350.185 272.03 351.689 271.737L396.409 263.465C399.358 262.89 400.683 259.423 398.87 257.028L398.868 257.026Z"
        fill="url(#paint18_linear_447_829)" />
    <path
        d="M400.45 243.722L392.39 240.205C392.39 240.205 389.312 235.807 386.82 235.075C384.329 234.342 375.39 235.368 375.39 235.368C375.39 235.368 376.269 238.885 378.028 239.472C379.787 240.058 385.21 240.498 386.089 242.257C386.969 244.015 390.193 245.335 391.366 244.748C392.539 244.162 400.012 246.654 400.012 246.654L400.452 243.722H400.45Z"
        fill="url(#paint19_linear_447_829)" />
    <path style="mix-blend-mode:multiply" opacity="0.5"
        d="M397.663 298.201C401.377 293.663 399.373 288.22 404.455 283.573C412.731 276.001 427.708 281.604 428.487 278.871C429.419 275.598 406.985 270.854 404.455 257.975C403.308 252.135 407.533 251.142 407.066 243.346C406.63 236.039 402.067 230.016 392.961 218.269C385.771 208.994 383.825 208.24 383.557 204.686C382.751 194.002 396.245 186.567 401.842 182.745C408.686 178.07 415.839 175.645 422.516 174.535C434.977 186.012 440.6 200.119 441.547 202.595C445.644 213.32 441.866 211.66 446.772 230.544C451.495 248.729 456.532 256.171 462.183 279.129C465.859 294.062 466.308 301.398 462.444 304.467C461.425 305.277 459.354 306.386 452.257 305.25C436.377 302.712 434.365 295.183 425.091 294.54C413.452 293.734 411.868 305.263 394.006 307.601C389.753 308.158 382.294 309.034 375.721 304.99C374.242 304.079 372.996 303.022 371.916 301.881C387.709 304.783 394.546 302.002 397.663 298.197V298.201Z"
        fill="url(#paint20_linear_447_829)" />
    <path
        d="M324.696 150.527C327.082 156.261 336.015 170.727 355.322 163.64C360.489 161.742 361.372 162.409 361.671 162.809C363.129 164.751 352.779 177.67 338.131 181.607C329.196 184.008 319.642 182.804 319.134 180.316C318.623 177.813 325.007 178.041 325.74 172.818C326.251 169.183 318.899 164.826 315.117 162.369C315.734 157.617 324.075 155.289 324.695 150.527H324.696Z"
        fill="url(#paint21_linear_447_829)" />
    <path
        d="M308.637 161.862C305.329 160.776 302.647 157.031 303.138 153.355C303.561 150.19 306.226 148.175 307.823 146.965C312.455 143.461 320.004 141.544 324.968 144.335C327.913 145.99 328.513 152.732 328.684 153.904C328.879 155.231 328.214 156.124 327.901 157.401C327.469 159.171 326.812 161.968 325.784 166.6C324.983 165.891 323.929 165.054 322.607 164.249C322.1 163.941 320.091 162.747 317.84 162.107C313.333 160.826 311.775 162.892 308.637 161.86V161.862Z"
        fill="url(#paint22_linear_447_829)" />
    <path
        d="M328.381 161.671C328.381 161.671 328.341 168.444 321.548 171.954C315.477 175.092 306.739 163.895 308.787 159.185C309.471 157.613 311.728 155.779 314.096 155.075C315.496 154.659 316.2 154.861 318.476 154.14C320.576 153.474 320.968 152.986 321.795 153.071C322.829 153.177 324.186 154.142 325.351 158.253C325.787 156.576 326.867 155.388 328.09 155.22C328.285 155.193 328.852 155.197 329.328 155.432C331.052 156.282 330.836 158.813 328.381 161.669V161.671Z"
        fill="url(#paint23_linear_447_829)" />
    <path
        d="M366.579 165.503C373.64 153.584 406.879 157.945 429.27 170.988C436.562 175.236 458.798 188.191 460.355 210.692C460.524 213.137 460.958 223.075 455.13 232.373C445.327 248.011 422.151 254.912 397.664 248.829C397.925 246.218 398.187 243.605 398.447 240.993C400.534 241.067 408.833 241.113 416.209 234.986C417.687 233.759 426.467 226.465 425.09 219.835C422.778 208.705 395.02 214.774 377.026 196.065C368.959 187.678 361.931 173.348 366.577 165.503H366.579Z"
        fill="url(#paint24_linear_447_829)" />
    <path
        d="M325.257 150.553L326.204 150.225L325.196 147.295C323.456 142.244 318.548 139.28 314.021 140.549L309.177 141.907C306.643 142.617 304.62 144.42 303.476 146.985C302.332 149.55 302.228 152.522 303.181 155.357L303.704 156.911L304.377 155.766L304.132 155.039C303.279 152.503 303.374 149.841 304.396 147.546C305.42 145.251 307.231 143.637 309.497 143.002L314.342 141.645C318.355 140.52 322.706 143.147 324.247 147.625L325.255 150.555L325.257 150.553Z"
        fill="url(#paint25_linear_447_829)" />
    <path
        d="M304.234 149.494C304.62 149.365 304.946 149.056 305.11 148.613C305.945 146.346 307.661 144.699 309.819 144.094L314.664 142.736C316.355 142.262 318.176 142.537 319.79 143.511C320.554 143.972 321.462 143.687 321.819 142.875C322.177 142.063 321.848 141.031 321.086 140.57C318.762 139.166 316.139 138.771 313.701 139.454L308.857 140.811C305.837 141.658 303.436 143.961 302.269 147.131C301.96 147.97 302.344 148.983 303.129 149.392C303.497 149.585 303.889 149.608 304.232 149.494H304.234Z"
        fill="url(#paint26_linear_447_829)" />
    <path style="mix-blend-mode:multiply" opacity="0.3"
        d="M305.134 145.523C308.249 143.186 307.909 142.115 309.713 141.419C313.086 140.117 315.699 143.311 318.871 141.708C319.616 141.332 320.175 140.8 320.59 140.291C320.758 140.38 320.923 140.474 321.087 140.572C321.851 141.033 322.179 142.065 321.82 142.877C321.462 143.689 320.553 143.974 319.791 143.514C318.177 142.54 316.357 142.264 314.665 142.738L309.821 144.096C307.663 144.702 305.946 146.349 305.111 148.615C304.947 149.058 304.621 149.367 304.235 149.496C303.892 149.612 303.501 149.587 303.132 149.394C302.421 149.023 302.039 148.158 302.203 147.375C303.082 146.916 304.087 146.314 305.136 145.525L305.134 145.523Z"
        fill="url(#paint27_linear_447_829)" />
    <path
        d="M323.001 156.815C324.568 161.48 327.718 164.631 330.036 163.852C332.354 163.073 332.962 158.66 331.394 153.993C329.826 149.328 326.676 146.177 324.358 146.956C322.04 147.735 321.433 152.147 323.001 156.815Z"
        fill="url(#paint28_linear_447_829)" />
    <path
        d="M323.827 156.537C325.395 161.202 328.544 164.353 330.862 163.574C333.18 162.795 333.788 158.383 332.22 153.715C330.652 149.05 327.503 145.899 325.184 146.678C322.866 147.457 322.259 151.87 323.827 156.537Z"
        fill="url(#paint29_linear_447_829)" />
    <path
        d="M326.391 147.085L327.147 146.83C330.258 145.785 333.922 148.34 335.334 152.537L335.413 152.772C336.825 156.969 335.446 161.22 332.337 162.265L331.581 162.519C330.013 163.046 327.579 160.018 326.146 155.756C324.713 151.494 324.823 147.61 326.393 147.083L326.391 147.085Z"
        fill="url(#paint30_linear_447_829)" />
    <path
        d="M329.784 154.404C330.818 157.48 332.899 159.557 334.43 159.042C335.963 158.527 336.366 155.615 335.332 152.539C334.299 149.463 332.218 147.386 330.686 147.901C329.153 148.416 328.75 151.328 329.784 154.404Z"
        fill="url(#paint31_linear_447_829)" />
    <path
        d="M159.091 0.505017L164.387 0.721018C217.169 2.87717 258.859 43.6377 258.859 91.8175V176.854C258.859 180.698 255.569 183.844 251.501 183.88L159.091 184.713C104.597 185.205 59.2275 144.387 59.2275 93.5301V88.5081C59.2275 37.6514 104.597 -1.72249 159.091 0.505017Z"
        fill="url(#paint32_linear_447_829)" />
    <path
        d="M161.741 3.23588C187.444 4.26767 211.285 14.4004 229.012 31.6477C246.568 48.7272 256.163 70.8808 256.163 94.153V176.683C256.163 179.219 253.983 181.3 251.299 181.323L161.741 182.067C135.675 182.283 110.831 173.061 91.9267 155.964C72.8299 138.692 62.2285 115.597 62.2285 91.0692C62.2285 66.5415 72.8299 43.7823 91.9267 27.1194C110.831 10.6204 135.675 2.18866 161.741 3.23588Z"
        fill="url(#paint33_linear_447_829)" />
    <g style="mix-blend-mode:soft-light" opacity="0.74">
        <path
            d="M78.0449 91.3199C78.0449 48.6655 115.982 15.4689 161.741 17.1332C206.394 18.7571 241.806 53.1225 241.806 93.9254C241.806 134.728 206.394 167.967 161.741 168.17C115.982 168.378 78.0449 133.972 78.0449 91.3199Z"
            fill="white" />
    </g>
    <path
        d="M83.0898 91.399C83.0898 51.3173 118.713 20.0762 161.741 21.5901C203.788 23.0694 237.176 55.4078 237.176 93.8521C237.176 132.296 203.786 163.572 161.741 163.713C118.715 163.858 83.0898 131.483 83.0898 91.4009V91.399Z"
        fill="white" />
    <path style="mix-blend-mode:multiply" opacity="0.1"
        d="M228.466 107.231C201.352 72.5414 130.402 99.1365 104.351 64.7094C95.4675 52.9702 94.7096 37.8269 98.0846 22.1862C95.969 23.7425 93.9112 25.3818 91.9228 27.1175C72.826 43.7824 62.2246 66.5396 62.2246 91.0673C62.2246 115.595 72.826 138.692 91.9228 155.962C110.829 173.061 135.673 182.283 161.737 182.067L227.381 181.522C231.92 156.926 245.334 128.812 228.464 107.231H228.466Z"
        fill="url(#paint34_linear_447_829)" />
    <path
        d="M182.587 98.2898C194.984 96.8858 202.313 86.9344 202.498 71.1972C202.517 69.6119 201.846 68.1886 200.702 67.0314C199.614 65.9302 198.116 65.4616 196.349 65.4616H183.326V57.8282C183.326 56.6962 183.783 56.1774 182.651 56.1774H139.773C138.64 56.1774 137.574 56.6962 137.574 57.8282V65.4616H126.074C124.305 65.4616 122.857 65.9321 121.769 67.0314C120.626 68.1905 120.005 69.6562 120.024 71.2415C120.211 86.9787 128.002 96.909 140.399 98.313C143.622 104.253 148.183 108.276 157.465 108.344V115.19H151.913C148.779 115.19 146.233 119.169 146.121 121.157H143.267C141.749 121.157 140.887 122.441 140.887 123.959V131.882C140.887 133.4 141.747 134.416 143.267 134.416H178.595C180.113 134.416 180.672 133.4 180.672 131.882V123.959C180.672 122.441 180.113 121.157 178.595 121.157H176.3C176.188 119.169 173.642 115.19 170.508 115.19H166.084V108.344C173.378 108.274 179.364 104.23 182.587 98.2898ZM195.669 71.4266C195.453 78.0571 192.857 88.0394 183.922 90.7317C183.981 90.1165 183.326 89.7771 183.326 89.1445V71.4266H195.669ZM126.755 71.4266H137.574V89.1445C137.574 89.7732 137.68 90.1088 137.74 90.7221C128.805 87.9893 126.971 78.0571 126.755 71.4266Z"
        fill="url(#paint35_linear_447_829)" />
    <path
        d="M175.719 76.2461L166.427 74.9154L162.468 66.661C161.899 65.475 160.206 65.5 159.6 66.7015L155.436 74.952L146.569 76.2924C145.29 76.4852 144.731 78.1052 145.624 79.0387L151.837 85.5399L150.069 94.8029C149.809 96.1645 151.155 97.2445 152.35 96.6254L160.601 92.3516L168.878 97.0362C170.107 97.7305 171.561 96.6929 171.335 95.2812L169.798 85.725L176.643 79.0984C177.644 78.1284 177.094 76.4409 175.719 76.2441V76.2461Z"
        fill="white" />
    <path
        d="M146.773 369.308C140.311 372.133 131.561 376.017 119.766 375.662C112.256 375.437 108.154 375.313 105.467 372.75C96.5224 364.212 112.086 336.223 143.574 280.595C153.645 262.804 160.266 252.092 173.55 247.063C188.631 241.352 203.138 246.438 208.465 248.306C212.224 249.624 242.749 260.879 248.446 289.877C253.102 313.573 239.303 339.588 214.025 351.835C212.525 349.717 211.024 347.597 209.524 345.48C211.836 341.756 216.281 333.455 216.409 322.179C216.546 310.094 211.709 295.792 207.67 295.966C201.235 296.241 208.816 332.78 186.753 352.363C183.181 355.532 185.413 352.419 146.772 369.309L146.773 369.308Z"
        fill="url(#paint36_linear_447_829)" />
    <path style="mix-blend-mode:multiply" opacity="0.3"
        d="M237.062 307.35C235.675 297.674 231.361 267.583 212.702 260.219C198.072 254.445 183.602 266.188 176.694 258.896C173.897 255.946 173.668 251.278 174.337 246.781C174.075 246.874 173.814 246.962 173.552 247.061C160.268 252.09 153.647 262.804 143.576 280.593C112.086 336.221 96.5245 364.21 105.469 372.748C108.154 375.311 112.258 375.435 119.768 375.66C131.563 376.015 140.313 372.131 146.776 369.306C185.417 352.415 183.185 355.53 186.757 352.359C208.82 332.778 201.239 296.239 207.674 295.962C211.711 295.788 216.548 310.09 216.413 322.175C216.285 333.449 211.842 341.752 209.528 345.476C211.028 347.594 212.529 349.713 214.029 351.831C223.4 347.291 231.19 340.855 237.05 333.349C238.138 325.677 238.433 316.891 237.064 307.348L237.062 307.35Z"
        fill="url(#paint37_linear_447_829)" />
    <path d="M217.219 538.677L449.848 502.983L488.124 358.818L236.78 377.001L217.219 538.677Z"
        fill="url(#paint38_linear_447_829)" />
    <path
        d="M236.783 376.999L217.223 538.386L214.208 537.798L71.2332 509.652L44.4086 367.743L42.8252 359.356L236.783 376.999Z"
        fill="#D8DEE8" />
    <path d="M42.8291 354.421L290.951 335.314L488.125 350.542L238.468 371.552L42.8291 354.421Z"
        fill="white" />
    <path
        d="M238.468 371.552L42.8291 354.419V362.696L238.468 379.828L488.125 358.818V350.542L238.468 371.552Z"
        fill="#B7C0CE" />
    <g style="mix-blend-mode:multiply" opacity="0.4">
        <path
            d="M214.208 537.798L71.2328 509.652L44.4082 367.743C51.4919 372.303 61.399 377.089 74.3822 379.832C104.692 386.229 138.619 417.894 136.808 454.084C134.999 490.274 164.403 456.798 194.259 504.297C203.379 518.809 209.757 529.684 214.208 537.798Z"
            fill="#D8DEE8" />
    </g>
    <path
        d="M138.431 346.554L142.691 344.791C142.691 344.791 118.863 320.671 163.556 271.482C163.556 271.482 185.571 243.277 174.619 245.724C160.43 248.895 137.227 255.679 115.818 284.901C94.4071 314.123 106.688 339.696 138.433 346.552L138.431 346.554Z"
        fill="url(#paint39_linear_447_829)" />
    <path
        d="M201.829 247.786C200.253 246.55 199.925 244.293 201.085 242.66L204.494 237.848L200.936 231.271L188.418 240.642C185.095 243.13 181.216 244.771 177.116 245.425L175.039 245.757C175.039 245.757 187.097 252.299 193.281 254.407C199.465 256.515 206.812 251.697 206.812 251.697L201.831 247.786H201.829Z"
        fill="url(#paint40_linear_447_829)" />
    <path
        d="M216.258 218.363L217.07 218.197C220.416 217.517 223.872 220.625 224.79 225.14L224.842 225.393C225.76 229.908 223.793 234.12 220.447 234.8L219.635 234.966C217.947 235.31 215.824 231.871 214.891 227.285C213.959 222.701 214.571 218.705 216.258 218.361V218.363Z"
        fill="url(#paint41_linear_447_829)" />
    <path
        d="M212.985 227.674C214.005 232.693 216.788 236.365 219.282 235.857C221.776 235.35 223.035 230.858 222.015 225.838C220.995 220.82 218.081 217.175 215.587 217.682C213.093 218.19 211.967 222.656 212.987 227.674H212.985Z"
        fill="url(#paint42_linear_447_829)" />
    <path d="M215.703 217.674L214.751 217.868L218.445 236.041L219.398 235.848L215.703 217.674Z"
        fill="url(#paint43_linear_447_829)" />
    <path
        d="M212.096 227.856C213.116 232.874 215.965 236.532 218.459 236.025C220.952 235.518 222.146 231.04 221.124 226.02C220.104 221.002 217.255 217.343 214.762 217.85C212.268 218.357 211.074 222.836 212.096 227.856Z"
        fill="url(#paint44_linear_447_829)" />
    <path style="mix-blend-mode:multiply" opacity="0.6"
        d="M214.156 227.437C214.711 230.166 216.26 232.155 217.616 231.879C218.971 231.603 219.619 229.167 219.066 226.438C218.511 223.709 216.962 221.721 215.606 221.997C214.25 222.272 213.602 224.708 214.156 227.437Z"
        fill="url(#paint45_linear_447_829)" />
    <path
        d="M206.28 238.473C205.08 238.808 202.519 239.429 199.131 239.375C196.016 239.327 190.34 239.184 186.651 235.211C186.026 234.538 184.525 232.88 184.086 230.282C183.958 229.534 183.497 226.812 185.013 224.722C186.649 222.467 188.714 223.528 190.707 221.546C193.54 218.722 191.266 214.67 193.619 213.073C195.692 211.665 197.79 214.587 202.357 213.604C204.841 213.067 204.831 212.07 208.181 211.22C210.407 210.655 213.209 209.943 214.696 211.305C216.133 212.618 214.812 214.462 216.212 217.09C217.62 219.735 219.668 219.21 220.702 221.183C222.615 224.836 218.214 231.644 213.495 235.109C210.592 237.238 207.535 238.124 206.282 238.475L206.28 238.473Z"
        fill="url(#paint46_linear_447_829)" />
    <path
        d="M199.081 238.779C199.081 238.779 203.013 244.7 210.996 243.871C218.128 243.13 219.352 228.274 214.845 225.322C213.341 224.336 210.303 224.026 207.821 224.77C206.354 225.21 205.85 225.794 203.439 226.469C201.214 227.094 200.589 226.894 199.912 227.443C199.065 228.132 198.429 229.757 199.773 234.039C198.425 232.818 196.794 232.396 195.625 232.953C195.438 233.042 194.942 233.372 194.661 233.852C193.636 235.591 195.283 237.686 199.081 238.781V238.779Z"
        fill="url(#paint47_linear_447_829)" />
    <path
        d="M196.268 225.318L195.233 225.519L194.606 222.319C193.526 216.803 196.432 211.517 201.221 210.287L206.347 208.969C209.028 208.281 211.82 208.856 214.214 210.588C216.607 212.319 218.27 214.971 218.896 218.053L219.24 219.742L218.023 219.054L217.863 218.263C217.301 215.505 215.814 213.131 213.672 211.583C211.531 210.032 209.03 209.519 206.632 210.134L201.506 211.452C197.262 212.543 194.685 217.228 195.641 222.118L196.268 225.318Z"
        fill="url(#paint48_linear_447_829)" />
    <path
        d="M214.85 213.27C214.43 213.355 213.973 213.247 213.589 212.929C211.633 211.305 209.203 210.711 206.92 211.297L201.794 212.614C200.004 213.075 198.49 214.285 197.535 216.022C197.084 216.844 196.106 217.064 195.352 216.514C194.598 215.964 194.353 214.852 194.804 214.03C196.181 211.527 198.359 209.783 200.937 209.12L206.063 207.803C209.259 206.981 212.659 207.812 215.392 210.084C216.115 210.686 216.298 211.81 215.801 212.595C215.566 212.965 215.222 213.193 214.85 213.27Z"
        fill="url(#paint49_linear_447_829)" />
    <path style="mix-blend-mode:multiply" opacity="0.3"
        d="M211.936 210.131C207.869 209.645 207.614 208.491 205.604 208.808C201.848 209.4 201.153 213.687 197.419 213.899C196.544 213.949 195.753 213.76 195.109 213.513C195.003 213.683 194.903 213.855 194.804 214.032C194.353 214.854 194.598 215.966 195.352 216.516C196.106 217.066 197.084 216.846 197.535 216.024C198.492 214.287 200.004 213.075 201.794 212.616L206.92 211.299C209.203 210.713 211.633 211.307 213.589 212.931C213.973 213.249 214.43 213.357 214.85 213.272C215.224 213.197 215.567 212.967 215.801 212.597C216.252 211.886 216.144 210.896 215.581 210.269C214.538 210.316 213.307 210.296 211.936 210.132V210.131Z"
        fill="url(#paint50_linear_447_829)" />
    <path
        d="M201.624 229.829C202.656 234.903 201.448 239.431 198.928 239.944C196.407 240.457 193.528 236.758 192.496 231.686C191.464 226.612 192.671 222.084 195.192 221.571C197.713 221.058 200.592 224.757 201.624 229.829Z"
        fill="url(#paint51_linear_447_829)" />
    <path
        d="M200.724 230.012C201.756 235.086 200.549 239.614 198.028 240.127C195.508 240.64 192.628 236.941 191.596 231.869C190.565 226.797 191.772 222.267 194.293 221.754C196.813 221.241 199.693 224.94 200.724 230.012Z"
        fill="url(#paint52_linear_447_829)" />
    <path
        d="M193.408 222.759L192.586 222.927C189.204 223.615 187.215 227.873 188.143 232.438L188.195 232.695C189.123 237.26 192.617 240.403 196 239.715L196.822 239.547C198.528 239.2 199.147 235.161 198.204 230.525C197.261 225.889 195.115 222.414 193.408 222.761V222.759Z"
        fill="url(#paint53_linear_447_829)" />
    <path
        d="M194.178 231.21C194.858 234.556 194.058 237.543 192.392 237.883C190.726 238.222 188.822 235.784 188.143 232.438C187.462 229.092 188.263 226.105 189.929 225.765C191.595 225.426 193.499 227.864 194.178 231.21Z"
        fill="url(#paint54_linear_447_829)" />
    <path
        d="M146.98 349.472L147.775 352.299L184.098 359.356L277.482 345.289V342.348L146.98 349.472Z"
        fill="url(#paint55_linear_447_829)" />
    <path d="M146.763 349.472L183.404 356.29L277.108 342.574L260.985 337.372L146.763 349.472Z"
        fill="url(#paint56_linear_447_829)" />
    <path
        d="M215.35 345.91L214.764 255.413C214.754 253.896 216.054 252.804 217.898 252.779L336.01 251.205C336.949 251.192 338.744 251.988 339.456 252.669C340.166 253.348 340.968 253.475 340.933 254.345L336.868 329.066C336.804 330.25 335.84 331.201 334.515 331.39L218.264 347.964L215.352 345.91H215.35Z"
        fill="url(#paint57_linear_447_829)" />
    <path
        d="M218.262 347.964L218.067 257.249C218.064 255.743 219.356 254.657 221.182 254.63L338.488 252.856C339.421 252.842 340.372 253.226 341.08 253.903C341.786 254.578 342.175 255.471 342.141 256.339L339.182 330.283C339.134 331.492 338.145 332.468 336.789 332.643L218.262 347.964Z"
        fill="url(#paint58_linear_447_829)" />
    <path style="mix-blend-mode:multiply" opacity="0.3"
        d="M218.262 347.964L336.789 332.643C338.145 332.468 339.134 331.492 339.182 330.283L340.044 308.739C307.594 323.184 263.161 323.284 218.222 328.458L218.264 347.962L218.262 347.964Z"
        fill="url(#paint59_linear_447_829)" />
    <path
        d="M282.257 360.361L278.041 361.638C278.041 361.638 256.128 354.961 254.911 354.59C254.718 354.533 253.608 353.865 254.259 353.62C257.982 352.228 280.104 350.944 280.104 350.944L296.187 352.594L282.257 360.361Z"
        fill="white" />
    <path
        d="M281.956 359.339L277.694 360.698C277.694 360.698 255.492 353.993 254.262 353.62C253.043 353.252 279.534 350.542 279.534 350.542L296.098 351.133L281.958 359.339H281.956Z"
        fill="url(#paint60_linear_447_829)" />
    <path
        d="M299.799 298.507C299.799 298.507 310.896 351.447 311.949 354.322C312.915 356.959 285.877 361.173 279.171 361.803C278.61 361.856 277.75 361.508 277.478 361.366C275.528 361.258 281.873 299.682 281.873 299.682L282.554 299.695L299.797 298.511L299.799 298.507Z"
        fill="url(#paint61_linear_447_829)" />
    <path
        d="M299.573 298.507C299.573 298.507 311.987 353.43 313.013 356.376C314.033 359.304 282.086 361.863 279.238 361.794C277.385 361.597 282.464 299.717 282.464 299.717L299.571 298.507H299.573Z"
        fill="url(#paint62_linear_447_829)" />
    <path
        d="M134.687 344.323C134.687 344.323 137.497 340.778 144.168 340.319C150.839 339.862 161.452 344.294 163.548 347.468C165.644 350.643 163.644 352.585 160.948 352.444C158.252 352.305 154.545 348.597 149.516 347.804C144.484 347.009 134.423 354.496 134.689 344.321L134.687 344.323Z"
        fill="url(#paint63_linear_447_829)" />
    <path
        d="M443.698 527.357C472.49 523.658 508.994 513.938 523.655 486.532C527.144 480.012 530.642 467.347 521.84 462.578C513.794 458.217 503.388 462.822 497.407 468.496C493.01 472.668 489.579 481.977 484.638 484.922C477.406 489.23 473.514 477.474 473.664 472.622C474.004 461.773 487.349 457.332 496.219 454.975C510.94 451.064 528.081 447.714 527.159 431.122C526.237 414.531 510.062 404.581 497.617 411.838C487.365 417.819 488.807 430.584 481.803 438.243C475.579 445.047 473.414 434.004 473.828 428.588C474.731 416.828 485.072 408.323 492.68 400.441C501.282 391.531 510.786 373.604 501.617 361.823C496.341 355.044 482.937 353.455 475.014 354.6C436.234 360.199 461.95 410.384 454.899 415.983C447.848 421.582 441.177 411.781 441.195 396.877C441.212 381.973 438.931 370.981 423.378 375.751C407.824 380.52 404.864 419.449 422.624 434.409C440.385 449.369 421.51 465.69 416.742 454.969C413.3 447.228 410.274 426.955 400.326 424.731C383.75 421.032 383.997 454.879 388.766 462.755C395.453 473.798 410.573 476.195 419.018 485.722C421.471 488.49 427.01 495.344 424.858 499.39C421.857 505.031 413.485 498.997 410.411 496.382C403.497 490.503 393.925 470.525 384.184 483.792C372.155 500.175 392.272 524.46 443.7 527.353L443.698 527.357Z"
        fill="url(#paint64_linear_447_829)" />
    <g style="mix-blend-mode:soft-light" opacity="0.8">
        <path
            d="M447.844 524.302C447.167 524.302 446.614 523.835 446.6 523.156C446.589 522.568 445.788 463.588 471.562 393.397C471.799 392.753 472.515 392.441 473.159 392.678C473.805 392.915 474.135 393.638 473.898 394.285C448.282 464.043 449.077 522.524 449.088 523.106C449.102 523.793 448.554 524.304 447.867 524.304H447.844V524.302Z"
            fill="white" />
    </g>
    <path
        d="M458.434 502.108C453.767 498.137 443.852 504.347 439.737 506.709C437.349 508.078 434.084 510.181 431.21 508.962C428.194 507.681 428.406 504.514 430.231 502.27C433.496 498.252 439.764 497.149 444.317 495.19C449.21 493.086 453.701 490.224 456.114 485.287C458.037 481.35 458.477 475.53 456.311 471.653C450.319 460.923 441.596 469.297 436.716 475.698C434.35 478.803 429.048 484.152 425.031 480.492C420.757 476.596 424.426 469.65 427.741 466.587C432.074 462.585 437.322 459.802 442.041 456.323C446.298 453.185 450.668 448.692 447.835 443.13C445.646 438.833 440.138 436.455 435.432 436.819C424.557 437.662 422.861 453.54 415.699 459.638C413.166 461.794 407.41 463.507 404.39 461.393C401.315 459.235 403.313 454.302 404.42 451.61C407.699 443.629 431.228 416.878 411.728 413.518C406.82 412.674 400.056 414.218 396.201 417.339C388.926 423.225 385.065 434.883 383.148 443.731C380.134 457.648 380.305 473.106 383.669 486.947C391.105 517.536 408.584 527.36 408.584 527.36C416.142 529.848 425.596 531.075 433.432 529.416C442.643 527.467 453.659 520.647 458.214 512.14C459.688 509.388 461.327 504.57 458.434 502.111V502.108Z"
        fill="url(#paint65_linear_447_829)" />
    <path
        d="M160.781 220.768V199.997L71.4455 200.325L66.2923 189.319L33.4736 188.783V227.026L59.332 225.769V225.783L160.781 220.768Z"
        fill="url(#paint66_linear_447_829)" />
    <path d="M61.374 225.783L162.947 220.768V199.998L61.374 200.37V225.783Z"
        fill="url(#paint67_linear_447_829)" />
    <g style="mix-blend-mode:soft-light">
        <path d="M159.874 217.096V203.834L65.9043 204.964V220.948L159.874 217.096Z" fill="white" />
    </g>
    <path d="M35.8916 227.027L84.7175 224.618L68.5887 189.319L35.8916 188.783V227.027Z"
        fill="url(#paint68_linear_447_829)" />
    <g style="mix-blend-mode:soft-light">
        <path d="M78.0027 220.439L65.7601 193.884L40.8467 193.683V221.962L78.0027 220.439Z"
            fill="white" />
    </g>
    <path d="M151.899 215.38L157.595 215.17V205.88L151.899 205.972V215.38Z" fill="white" />
    <path d="M143.956 215.669L149.844 215.455V206.007L143.956 206.104V215.669Z" fill="white" />
    <path d="M135.734 215.97L141.829 215.748V206.138L135.734 206.238V215.97Z" fill="white" />
    <path d="M127.224 216.283L133.532 216.051V206.275L127.224 206.377V216.283Z" fill="white" />
    <path d="M118.406 216.605L124.942 216.365V206.416L118.406 206.522V216.605Z"
        fill="url(#paint69_linear_447_829)" />
    <path d="M109.265 216.94L116.042 216.691V206.562L109.265 206.672V216.94Z"
        fill="url(#paint70_linear_447_829)" />
    <path d="M99.7842 217.287L106.814 217.029V206.713L99.7842 206.829V217.287Z"
        fill="url(#paint71_linear_447_829)" />
    <path d="M89.9424 217.648L97.2401 217.38V206.871L89.9424 206.991V217.648Z"
        fill="url(#paint72_linear_447_829)" />
    <defs>
        <linearGradient id="paint0_linear_447_829" x1="123.175" y1="182.899" x2="90.0305"
            y2="665.35" gradientUnits="userSpaceOnUse">
            <stop stop-color="#FFC444" />
            <stop offset="1" stop-color="#F36F56" />
        </linearGradient>
        <linearGradient id="paint1_linear_447_829" x1="13.0244" y1="404.34" x2="165.38" y2="404.34"
            gradientUnits="userSpaceOnUse">
            <stop stop-color="#FF9085" />
            <stop offset="1" stop-color="#FB6FBB" />
        </linearGradient>
        <linearGradient id="paint2_linear_447_829" x1="286.473" y1="101.921" x2="152.88"
            y2="302.509" gradientUnits="userSpaceOnUse">
            <stop stop-color="#444B8C" />
            <stop offset="1" stop-color="#26264F" />
        </linearGradient>
        <linearGradient id="paint3_linear_447_829" x1="84.8608" y1="308.742" x2="198.738"
            y2="308.742" gradientUnits="userSpaceOnUse">
            <stop stop-color="#444B8C" />
            <stop offset="1" stop-color="#26264F" />
        </linearGradient>
        <linearGradient id="paint4_linear_447_829" x1="302.047" y1="158.855" x2="307.513"
            y2="162.883" gradientUnits="userSpaceOnUse">
            <stop stop-color="#AA80F9" />
            <stop offset="1" stop-color="#6165D7" />
        </linearGradient>
        <linearGradient id="paint5_linear_447_829" x1="311.576" y1="164.944" x2="299.473"
            y2="152.637" gradientUnits="userSpaceOnUse">
            <stop stop-color="#AA80F9" />
            <stop offset="1" stop-color="#6165D7" />
        </linearGradient>
        <linearGradient id="paint6_linear_447_829" x1="304.307" y1="160.636" x2="302.837"
            y2="160.288" gradientUnits="userSpaceOnUse">
            <stop stop-color="#444B8C" />
            <stop offset="1" stop-color="#3E4177" />
        </linearGradient>
        <linearGradient id="paint7_linear_447_829" x1="301.879" y1="157.062" x2="307.072"
            y2="160.213" gradientUnits="userSpaceOnUse">
            <stop stop-color="#AA80F9" />
            <stop offset="1" stop-color="#6165D7" />
        </linearGradient>
        <linearGradient id="paint8_linear_447_829" x1="311.557" y1="160.808" x2="307.044"
            y2="162.325" gradientUnits="userSpaceOnUse">
            <stop stop-color="#6165D7" />
            <stop offset="1" stop-color="#AA80F9" />
        </linearGradient>
        <linearGradient id="paint9_linear_447_829" x1="424.664" y1="470.309" x2="444.966"
            y2="470.309" gradientUnits="userSpaceOnUse">
            <stop stop-color="#311944" />
            <stop offset="1" stop-color="#6B3976" />
        </linearGradient>
        <linearGradient id="paint10_linear_447_829" x1="438.652" y1="469.156" x2="455.456"
            y2="418.749" gradientUnits="userSpaceOnUse">
            <stop stop-color="#AB316D" />
            <stop offset="1" stop-color="#792D3D" />
        </linearGradient>
        <linearGradient id="paint11_linear_447_829" x1="356.749" y1="469.312" x2="377.051"
            y2="469.312" gradientUnits="userSpaceOnUse">
            <stop stop-color="#311944" />
            <stop offset="1" stop-color="#6B3976" />
        </linearGradient>
        <linearGradient id="paint12_linear_447_829" x1="371.819" y1="468.934" x2="390.322"
            y2="413.424" gradientUnits="userSpaceOnUse">
            <stop stop-color="#AB316D" />
            <stop offset="1" stop-color="#792D3D" />
        </linearGradient>
        <linearGradient id="paint13_linear_447_829" x1="417.908" y1="259.087" x2="372.98"
            y2="428.353" gradientUnits="userSpaceOnUse">
            <stop stop-color="#311944" />
            <stop offset="1" stop-color="#6B3976" />
        </linearGradient>
        <linearGradient id="paint14_linear_447_829" x1="473.251" y1="369.423" x2="408.79"
            y2="369.423" gradientUnits="userSpaceOnUse">
            <stop stop-color="#311944" />
            <stop offset="1" stop-color="#6B3976" />
        </linearGradient>
        <linearGradient id="paint15_linear_447_829" x1="243.731" y1="269.295" x2="262.885"
            y2="334.773" gradientUnits="userSpaceOnUse">
            <stop stop-color="#AB316D" />
            <stop offset="1" stop-color="#792D3D" />
        </linearGradient>
        <linearGradient id="paint16_linear_447_829" x1="-428.365" y1="1271.77" x2="-508.05"
            y2="1385.26" gradientUnits="userSpaceOnUse">
            <stop stop-color="#E38DDD" />
            <stop offset="1" stop-color="#9571F6" />
        </linearGradient>
        <linearGradient id="paint17_linear_447_829" x1="-366.962" y1="1314.88" x2="-446.647"
            y2="1428.37" gradientUnits="userSpaceOnUse">
            <stop stop-color="#E38DDD" />
            <stop offset="1" stop-color="#9571F6" />
        </linearGradient>
        <linearGradient id="paint18_linear_447_829" x1="361.172" y1="224.458" x2="329.626"
            y2="327.621" gradientUnits="userSpaceOnUse">
            <stop stop-color="#FFC444" />
            <stop offset="1" stop-color="#F36F56" />
        </linearGradient>
        <linearGradient id="paint19_linear_447_829" x1="384.566" y1="228.095" x2="403.722"
            y2="293.57" gradientUnits="userSpaceOnUse">
            <stop stop-color="#AB316D" />
            <stop offset="1" stop-color="#792D3D" />
        </linearGradient>
        <linearGradient id="paint20_linear_447_829" x1="422.711" y1="262.046" x2="311.956"
            y2="158.604" gradientUnits="userSpaceOnUse">
            <stop stop-color="#E38DDD" />
            <stop offset="1" stop-color="#9571F6" />
        </linearGradient>
        <linearGradient id="paint21_linear_447_829" x1="360.413" y1="189.22" x2="309.165"
            y2="144.323" gradientUnits="userSpaceOnUse">
            <stop stop-color="#AB316D" />
            <stop offset="1" stop-color="#792D3D" />
        </linearGradient>
        <linearGradient id="paint22_linear_447_829" x1="345.475" y1="174.225" x2="309.467"
            y2="148.006" gradientUnits="userSpaceOnUse">
            <stop stop-color="#444B8C" />
            <stop offset="1" stop-color="#26264F" />
        </linearGradient>
        <linearGradient id="paint23_linear_447_829" x1="317.611" y1="156.534" x2="346.712"
            y2="207.653" gradientUnits="userSpaceOnUse">
            <stop stop-color="#AB316D" />
            <stop offset="1" stop-color="#792D3D" />
        </linearGradient>
        <linearGradient id="paint24_linear_447_829" x1="-370.782" y1="1312.19" x2="-450.467"
            y2="1425.68" gradientUnits="userSpaceOnUse">
            <stop stop-color="#E38DDD" />
            <stop offset="1" stop-color="#9571F6" />
        </linearGradient>
        <linearGradient id="paint25_linear_447_829" x1="320.359" y1="157.015" x2="307.306"
            y2="144.325" gradientUnits="userSpaceOnUse">
            <stop stop-color="#AA80F9" />
            <stop offset="1" stop-color="#6165D7" />
        </linearGradient>
        <linearGradient id="paint26_linear_447_829" x1="308.763" y1="139.208" x2="312.304"
            y2="144.037" gradientUnits="userSpaceOnUse">
            <stop stop-color="#AA80F9" />
            <stop offset="1" stop-color="#6165D7" />
        </linearGradient>
        <linearGradient id="paint27_linear_447_829" x1="308.747" y1="139.187" x2="312.296"
            y2="144.026" gradientUnits="userSpaceOnUse">
            <stop stop-color="#AA80F9" />
            <stop offset="1" stop-color="#6165D7" />
        </linearGradient>
        <linearGradient id="paint28_linear_447_829" x1="331.399" y1="153.983" x2="323.006"
            y2="156.804" gradientUnits="userSpaceOnUse">
            <stop stop-color="#AA80F9" />
            <stop offset="1" stop-color="#6165D7" />
        </linearGradient>
        <linearGradient id="paint29_linear_447_829" x1="331.089" y1="155.746" x2="339.143"
            y2="157.401" gradientUnits="userSpaceOnUse">
            <stop stop-color="#AA80F9" />
            <stop offset="1" stop-color="#6165D7" />
        </linearGradient>
        <linearGradient id="paint30_linear_447_829" x1="335.375" y1="152.646" x2="326.149"
            y2="155.748" gradientUnits="userSpaceOnUse">
            <stop stop-color="#AA80F9" />
            <stop offset="1" stop-color="#6165D7" />
        </linearGradient>
        <linearGradient id="paint31_linear_447_829" x1="335.336" y1="152.528" x2="329.787"
            y2="154.393" gradientUnits="userSpaceOnUse">
            <stop stop-color="#AA80F9" />
            <stop offset="1" stop-color="#6165D7" />
        </linearGradient>
        <linearGradient id="paint32_linear_447_829" x1="218.501" y1="181.095" x2="86.2932"
            y2="-15.3132" gradientUnits="userSpaceOnUse">
            <stop stop-color="#F36F56" />
            <stop offset="1" stop-color="#FFC444" />
        </linearGradient>
        <linearGradient id="paint33_linear_447_829" x1="217.539" y1="179.3" x2="89.1843"
            y2="-11.3808" gradientUnits="userSpaceOnUse">
            <stop stop-color="#FFC444" />
            <stop offset="1" stop-color="#F36F56" />
        </linearGradient>
        <linearGradient id="paint34_linear_447_829" x1="199.071" y1="191.784" x2="70.369"
            y2="0.584124" gradientUnits="userSpaceOnUse">
            <stop stop-color="#FFC444" />
            <stop offset="1" stop-color="#F36F56" />
        </linearGradient>
        <linearGradient id="paint35_linear_447_829" x1="158.902" y1="11.1817" x2="165.562"
            y2="181.012" gradientUnits="userSpaceOnUse">
            <stop stop-color="#FFC444" />
            <stop offset="1" stop-color="#F36F56" />
        </linearGradient>
        <linearGradient id="paint36_linear_447_829" x1="148.258" y1="421.844" x2="195.916"
            y2="272.518" gradientUnits="userSpaceOnUse">
            <stop stop-color="#311944" />
            <stop offset="1" stop-color="#A03976" />
        </linearGradient>
        <linearGradient id="paint37_linear_447_829" x1="146.48" y1="421.275" x2="194.136"
            y2="271.949" gradientUnits="userSpaceOnUse">
            <stop stop-color="#311944" />
            <stop offset="1" stop-color="#A03976" />
        </linearGradient>
        <linearGradient id="paint38_linear_447_829" x1="217.219" y1="448.748" x2="488.124"
            y2="448.748" gradientUnits="userSpaceOnUse">
            <stop offset="0.49" stop-color="#EBEFF2" />
            <stop offset="1" stop-color="white" />
        </linearGradient>
        <linearGradient id="paint39_linear_447_829" x1="108.875" y1="379.789" x2="148.895"
            y2="254.393" gradientUnits="userSpaceOnUse">
            <stop stop-color="#311944" />
            <stop offset="1" stop-color="#A03976" />
        </linearGradient>
        <linearGradient id="paint40_linear_447_829" x1="175.039" y1="243.105" x2="206.812"
            y2="243.105" gradientUnits="userSpaceOnUse">
            <stop stop-color="#FFC444" />
            <stop offset="1" stop-color="#F36F56" />
        </linearGradient>
        <linearGradient id="paint41_linear_447_829" x1="221.803" y1="220.646" x2="218.95"
            y2="227.196" gradientUnits="userSpaceOnUse">
            <stop stop-color="#AA80F9" />
            <stop offset="1" stop-color="#6165D7" />
        </linearGradient>
        <linearGradient id="paint42_linear_447_829" x1="216.339" y1="231.215" x2="220.868"
            y2="213.629" gradientUnits="userSpaceOnUse">
            <stop stop-color="#AA80F9" />
            <stop offset="1" stop-color="#6165D7" />
        </linearGradient>
        <linearGradient id="paint43_linear_447_829" x1="220.642" y1="223.489" x2="221.796"
            y2="222.397" gradientUnits="userSpaceOnUse">
            <stop stop-color="#444B8C" />
            <stop offset="1" stop-color="#3E4177" />
        </linearGradient>
        <linearGradient id="paint44_linear_447_829" x1="221.012" y1="218.924" x2="217.945"
            y2="224.533" gradientUnits="userSpaceOnUse">
            <stop stop-color="#AA80F9" />
            <stop offset="1" stop-color="#6165D7" />
        </linearGradient>
        <linearGradient id="paint45_linear_447_829" x1="214.175" y1="227.437" x2="219.085"
            y2="226.438" gradientUnits="userSpaceOnUse">
            <stop stop-color="#6165D7" />
            <stop offset="1" stop-color="#AA80F9" />
        </linearGradient>
        <linearGradient id="paint46_linear_447_829" x1="215.163" y1="258.387" x2="197.894"
            y2="214.527" gradientUnits="userSpaceOnUse">
            <stop stop-color="#311944" />
            <stop offset="1" stop-color="#6B3976" />
        </linearGradient>
        <linearGradient id="paint47_linear_447_829" x1="205.633" y1="228.017" x2="209.519"
            y2="289.625" gradientUnits="userSpaceOnUse">
            <stop stop-color="#FFC444" />
            <stop offset="1" stop-color="#F36F56" />
        </linearGradient>
        <linearGradient id="paint48_linear_447_829" x1="205.18" y1="228.443" x2="210.373"
            y2="210.011" gradientUnits="userSpaceOnUse">
            <stop stop-color="#AA80F9" />
            <stop offset="1" stop-color="#6165D7" />
        </linearGradient>
        <linearGradient id="paint49_linear_447_829" x1="206.351" y1="206.122" x2="205.671"
            y2="212.382" gradientUnits="userSpaceOnUse">
            <stop stop-color="#AA80F9" />
            <stop offset="1" stop-color="#6165D7" />
        </linearGradient>
        <linearGradient id="paint50_linear_447_829" x1="206.353" y1="206.093" x2="205.672"
            y2="212.369" gradientUnits="userSpaceOnUse">
            <stop stop-color="#AA80F9" />
            <stop offset="1" stop-color="#6165D7" />
        </linearGradient>
        <linearGradient id="paint51_linear_447_829" x1="192.515" y1="231.689" x2="201.641"
            y2="229.832" gradientUnits="userSpaceOnUse">
            <stop stop-color="#AA80F9" />
            <stop offset="1" stop-color="#6165D7" />
        </linearGradient>
        <linearGradient id="paint52_linear_447_829" x1="193.724" y1="233.129" x2="187.265"
            y2="238.883" gradientUnits="userSpaceOnUse">
            <stop stop-color="#AA80F9" />
            <stop offset="1" stop-color="#6165D7" />
        </linearGradient>
        <linearGradient id="paint53_linear_447_829" x1="188.189" y1="232.569" x2="198.224"
            y2="230.527" gradientUnits="userSpaceOnUse">
            <stop stop-color="#AA80F9" />
            <stop offset="1" stop-color="#6165D7" />
        </linearGradient>
        <linearGradient id="paint54_linear_447_829" x1="188.163" y1="232.438" x2="194.197"
            y2="231.211" gradientUnits="userSpaceOnUse">
            <stop stop-color="#AA80F9" />
            <stop offset="1" stop-color="#6165D7" />
        </linearGradient>
        <linearGradient id="paint55_linear_447_829" x1="146.98" y1="350.853" x2="277.482"
            y2="350.853" gradientUnits="userSpaceOnUse">
            <stop stop-color="#AA80F9" />
            <stop offset="1" stop-color="#6165D7" />
        </linearGradient>
        <linearGradient id="paint56_linear_447_829" x1="146.763" y1="346.83" x2="277.108"
            y2="346.83" gradientUnits="userSpaceOnUse">
            <stop stop-color="#40447E" />
            <stop offset="1" stop-color="#3C3B6B" />
        </linearGradient>
        <linearGradient id="paint57_linear_447_829" x1="340.935" y1="299.586" x2="214.764"
            y2="299.586" gradientUnits="userSpaceOnUse">
            <stop stop-color="#AA80F9" />
            <stop offset="1" stop-color="#6165D7" />
        </linearGradient>
        <linearGradient id="paint58_linear_447_829" x1="245.675" y1="249.188" x2="326.351"
            y2="371.784" gradientUnits="userSpaceOnUse">
            <stop stop-color="#AA80F9" />
            <stop offset="1" stop-color="#6165D7" />
        </linearGradient>
        <linearGradient id="paint59_linear_447_829" x1="340.044" y1="328.352" x2="218.222"
            y2="328.352" gradientUnits="userSpaceOnUse">
            <stop stop-color="#AA80F9" />
            <stop offset="1" stop-color="#6165D7" />
        </linearGradient>
        <linearGradient id="paint60_linear_447_829" x1="260.157" y1="343.364" x2="299.77"
            y2="367.134" gradientUnits="userSpaceOnUse">
            <stop stop-color="#AA80F9" />
            <stop offset="1" stop-color="#6165D7" />
        </linearGradient>
        <linearGradient id="paint61_linear_447_829" x1="277.107" y1="330.157" x2="311.976"
            y2="330.157" gradientUnits="userSpaceOnUse">
            <stop stop-color="#AA80F9" />
            <stop offset="1" stop-color="#6165D7" />
        </linearGradient>
        <linearGradient id="paint62_linear_447_829" x1="283.17" y1="304.137" x2="307.339"
            y2="405.908" gradientUnits="userSpaceOnUse">
            <stop stop-color="#AA80F9" />
            <stop offset="1" stop-color="#6165D7" />
        </linearGradient>
        <linearGradient id="paint63_linear_447_829" x1="134.681" y1="346.371" x2="164.42"
            y2="346.371" gradientUnits="userSpaceOnUse">
            <stop stop-color="#FFC444" />
            <stop offset="1" stop-color="#F36F56" />
        </linearGradient>
        <linearGradient id="paint64_linear_447_829" x1="479.06" y1="285.68" x2="404.928"
            y2="859.599" gradientUnits="userSpaceOnUse">
            <stop stop-color="#FF9085" />
            <stop offset="1" stop-color="#FB6FBB" />
        </linearGradient>
        <linearGradient id="paint65_linear_447_829" x1="434.672" y1="372.519" x2="386.82"
            y2="742.989" gradientUnits="userSpaceOnUse">
            <stop stop-color="#FFC444" />
            <stop offset="1" stop-color="#F36F56" />
        </linearGradient>
        <linearGradient id="paint66_linear_447_829" x1="137.75" y1="165.646" x2="-317.32"
            y2="603.998" gradientUnits="userSpaceOnUse">
            <stop stop-color="#444B8C" />
            <stop offset="1" stop-color="#26264F" />
        </linearGradient>
        <linearGradient id="paint67_linear_447_829" x1="141.946" y1="179.169" x2="25.6066"
            y2="301.815" gradientUnits="userSpaceOnUse">
            <stop stop-color="#AA80F9" />
            <stop offset="1" stop-color="#6165D7" />
        </linearGradient>
        <linearGradient id="paint68_linear_447_829" x1="73.1614" y1="193.145" x2="7.6996"
            y2="262.156" gradientUnits="userSpaceOnUse">
            <stop stop-color="#AA80F9" />
            <stop offset="1" stop-color="#6165D7" />
        </linearGradient>
        <linearGradient id="paint69_linear_447_829" x1="102.212" y1="192.764" x2="149.749"
            y2="238.554" gradientUnits="userSpaceOnUse">
            <stop stop-color="#AA80F9" />
            <stop offset="1" stop-color="#6165D7" />
        </linearGradient>
        <linearGradient id="paint70_linear_447_829" x1="97.7298" y1="197.375" x2="146.48"
            y2="244.336" gradientUnits="userSpaceOnUse">
            <stop stop-color="#AA80F9" />
            <stop offset="1" stop-color="#6165D7" />
        </linearGradient>
        <linearGradient id="paint71_linear_447_829" x1="93.1518" y1="202.225" x2="143.177"
            y2="250.413" gradientUnits="userSpaceOnUse">
            <stop stop-color="#AA80F9" />
            <stop offset="1" stop-color="#6165D7" />
        </linearGradient>
        <linearGradient id="paint72_linear_447_829" x1="88.4786" y1="207.332" x2="139.837"
            y2="256.806" gradientUnits="userSpaceOnUse">
            <stop stop-color="#AA80F9" />
            <stop offset="1" stop-color="#6165D7" />
        </linearGradient>
    </defs>
</svg>