<svg width="542" height="540" viewBox="0 0 542 540" fill="none" xmlns="http://www.w3.org/2000/svg">
    <path
        d="M238.575 53.9415C213.663 100.141 70.1993 35.2808 31.1145 90.6834C-7.20659 145.004 55.3398 190.91 29.0997 314.905C14.9886 381.59 -10.8255 404.803 4.93005 445.858C21.1826 488.211 69.3914 517.553 112.69 527.821C202.006 549.003 240.914 482.026 341.3 505.211C375.843 513.19 387.604 524.901 423.881 524.995C432.973 525.018 510.9 526.605 535.669 488.253C556.839 455.471 519.142 424.686 501.575 354.31C469.06 224.044 556.344 161.744 506.462 81.9661C476.923 34.7263 422.143 17.9096 401.041 11.4316C347.918 -4.87655 267.007 -7.21178 245.353 27.759C238.353 39.0629 244.18 43.5491 238.577 53.9435L238.575 53.9415Z"
        fill="#F4F7FA" />
    <path
        d="M100.338 293.026C96.3682 299.315 92.3963 304.039 88.2305 310.001C119.078 315.488 147.81 326.435 179.076 332.058C167.661 292.727 152.613 273.049 175.326 231.349C185.986 211.781 212.728 176.334 209.209 153.922C205.201 128.388 187.158 130.303 196.583 110.553C211.314 79.6807 203.883 41.5227 156.376 44.4374C109.489 47.3157 82.614 166.255 99.7128 204.574C107.73 240.097 121.073 260.189 100.34 293.026H100.338Z"
        fill="url(#paint0_linear_447_983)" />
    <mask id="mask0_447_983" style="mask-type:luminance" maskUnits="userSpaceOnUse" x="94" y="44"
        width="117" height="258">
        <path
            d="M177.02 228.028C181.05 220.692 214.969 172.428 209.641 153.147C203.569 131.182 187.741 129.367 196.783 110.23C210.915 80.3196 204.042 41.3155 156.412 44.3683C109.405 47.3809 82.6233 166.437 99.7585 204.33C107.039 242.985 122.243 255.636 99.6511 295.222C83.8245 322.949 161.867 255.607 177.019 228.028H177.02Z"
            fill="white" />
    </mask>
    <g mask="url(#mask0_447_983)">
        <path
            d="M136.698 317.839L136.103 317.82C136.475 306.268 135.946 294.546 135.431 283.212L135.238 278.912C134.837 269.801 134.639 261.644 134.466 254.448C134.368 250.398 134.276 246.571 134.157 242.862C133.791 231.512 133.513 223.574 133.374 219.637C133.328 218.317 133.298 217.447 133.284 217.048C132.29 185.973 142.374 143.378 147.791 120.494C148.378 118.015 148.902 115.799 149.343 113.892C156.894 81.1505 160.827 46.1778 161.038 9.9463L161.633 9.95014C161.422 46.2257 157.483 81.2426 149.922 114.026C149.483 115.933 148.957 118.151 148.37 120.632C142.959 143.49 132.889 186.034 133.879 217.029C133.892 217.428 133.923 218.299 133.969 219.616C134.107 223.553 134.386 231.491 134.752 242.843C134.873 246.554 134.963 250.382 135.061 254.435C135.234 261.629 135.431 269.782 135.832 278.887L136.026 283.185C136.54 294.531 137.072 306.265 136.698 317.839Z"
            fill="#FCFDFE" />
        <path
            d="M134.403 260.393L133.809 260.383C134.129 239.819 142.791 215.791 158.857 190.898C172.241 170.163 190.416 149.557 208.72 134.364L209.1 134.822C190.838 149.977 172.707 170.534 159.356 191.221C143.349 216.022 134.72 239.94 134.402 260.393H134.403Z"
            fill="#FCFDFE" />
        <path
            d="M147.42 124.434L146.895 124.157C155.176 108.419 165.498 93.6325 175.479 79.3352C182.31 69.5492 189.376 59.4292 195.729 49.0867L196.235 49.3976C189.873 59.7554 182.804 69.8811 175.967 79.6749C165.997 93.9587 155.687 108.728 147.42 124.434Z"
            fill="#FCFDFE" />
        <path
            d="M135.751 180.753C131.806 156.332 115.45 125.42 100.75 114.602L101.103 114.124C115.909 125.017 132.374 156.108 136.341 180.657L135.753 180.753H135.751Z"
            fill="#FCFDFE" />
    </g>
    <path
        d="M105.286 203.816C100.422 241.661 123.448 240.993 152.885 241.423C136.991 273.209 122.684 304.743 108.278 336.797C88.581 336.216 74.4852 335.433 71.3824 311.712C67.8729 284.885 66.7388 269.287 41.0245 254.233C15.3102 239.18 1.27007 211.747 19.5681 188.239C38.8236 163.503 26.9921 118.762 57.4267 106.326C110.458 84.6562 110.354 164.405 105.288 203.814L105.286 203.816Z"
        fill="url(#paint1_linear_447_983)" />
    <mask id="mask1_447_983" style="mask-type:luminance" maskUnits="userSpaceOnUse" x="11" y="102"
        width="156" height="236">
        <path
            d="M123.567 334.934C101.034 338.15 75.5923 341.913 71.3747 311.363C67.8651 285.931 66.7579 268.799 41.0148 254.151C15.2717 239.503 1.33906 211.526 19.5469 188.243C38.7065 163.739 27.1992 118.432 57.419 106.349C110.078 85.2952 111.008 163.244 105.025 204.33C99.0424 245.416 129.335 236.576 154.56 243.62C188.997 253.238 141.771 332.338 123.565 334.936L123.567 334.934Z"
            fill="white" />
    </mask>
    <g mask="url(#mask1_447_983)">
        <path
            d="M120.328 293.506C97.461 270.881 79.0364 251.392 67.295 223.941C56.0583 197.672 54.5942 172.996 62.3981 141.429C66.4431 125.067 67.4927 112.884 68.6305 96.1673L69.2234 96.2076C68.0817 112.955 67.0302 125.161 62.9738 141.571C55.2025 173.001 56.657 197.566 67.84 223.707C79.5391 251.058 97.9254 270.503 120.744 293.084L120.326 293.506H120.328Z"
            fill="#FCFDFE" />
        <path
            d="M70.675 325.641L70.3604 325.136C79.3424 319.533 88.3207 315.55 97.8074 312.957C102.66 311.632 107.317 311.198 112.817 310.956L112.843 311.551C107.384 311.791 102.766 312.221 97.9666 313.533C88.5375 316.11 79.6111 320.071 70.6789 325.643L70.675 325.641Z"
            fill="#FCFDFE" />
        <path
            d="M75.4182 240.23C58.1755 223.104 33.317 211.915 5.42285 208.722L5.49001 208.131C33.5165 211.338 58.4998 222.588 75.8365 239.808L75.4162 240.23H75.4182Z"
            fill="#FCFDFE" />
        <path
            d="M58.0453 176.369L57.4639 176.244C58.0625 173.439 69.2992 152.146 79.613 133.157C89.969 114.089 101.369 93.6997 102.52 92.581L102.935 93.007C101.958 93.9568 91.7304 112.096 80.1368 133.441C69.8423 152.393 58.6324 173.625 58.0472 176.369H58.0453Z"
            fill="#FCFDFE" />
    </g>
    <path
        d="M427.926 307.184C427.926 405.8 348.012 489.396 246.057 494.057C140.167 498.898 51.2812 417.344 51.2812 311.729C51.2812 206.115 140.167 122.415 246.057 124.7C348.012 126.899 427.926 208.569 427.926 307.184Z"
        fill="url(#paint2_linear_447_983)" />
    <path
        d="M436.31 307.184C436.31 405.8 356.396 489.396 254.44 494.057C148.551 498.898 59.665 417.344 59.665 311.729C59.665 206.115 148.551 122.415 254.44 124.7C356.396 126.899 436.31 208.569 436.31 307.184Z"
        fill="url(#paint3_linear_447_983)" />
    <path
        d="M425.804 307.31C425.804 400.228 350.424 478.848 254.44 483.043C154.979 487.389 71.665 410.69 71.665 311.584C71.665 212.478 154.979 133.765 254.44 135.713C350.422 137.591 425.804 214.391 425.804 307.31Z"
        fill="url(#paint4_linear_447_983)" />
    <path
        d="M96.7725 342.705V301.795L223.591 251V293.955L142.795 321.909L144.159 319.864V324.636L142.795 322.591L223.591 350.545V393.5L96.7725 342.705Z"
        fill="white" />
    <path
        d="M389.997 342.705L263.179 393.5V350.545L343.974 322.591L342.611 324.636V319.864L343.974 321.909L263.179 293.955V251L389.997 301.795V342.705Z"
        fill="white" />
    <path style="mix-blend-mode:multiply" opacity="0.3"
        d="M172.374 229.367C166.112 208.958 166.4 177.962 196.933 132.165C118.165 154.857 59.665 226.285 59.665 311.731C59.665 417.346 148.551 498.9 254.44 494.059C293.485 492.275 329.231 478.946 358.441 457.801C357.536 429.634 351.409 398.802 334.176 370.365C286.792 292.171 192.019 293.401 172.372 229.369L172.374 229.367Z"
        fill="url(#paint5_linear_447_983)" />
    <path
        d="M412.999 487.869C373.983 490.667 341.616 460.813 341.616 421.266C341.616 381.719 373.983 348.483 412.999 347.199C451.193 345.944 481.676 375.895 481.676 413.944C481.676 451.992 451.191 485.131 412.999 487.869Z"
        fill="url(#paint6_linear_447_983)" />
    <path
        d="M417.754 489.454C378.738 492.252 346.371 462.398 346.371 422.851C346.371 383.304 378.738 350.068 417.754 348.784C455.948 347.529 486.431 377.48 486.431 415.529C486.431 453.577 455.946 486.716 417.754 489.454Z"
        fill="#D8DEE8" />
    <path
        d="M481.78 415.772C481.78 451.3 453.397 482.097 417.754 484.603C381.398 487.161 351.386 459.416 351.386 422.588C351.386 385.76 381.398 354.878 417.754 353.635C453.397 352.414 481.78 380.245 481.78 415.771V415.772Z"
        fill="white" />
    <mask id="mask2_447_983" style="mask-type:luminance" maskUnits="userSpaceOnUse" x="356" y="358"
        width="122" height="122">
        <path
            d="M477.115 416.016C477.115 448.955 450.781 477.475 417.756 479.752C384.117 482.074 356.386 456.381 356.386 422.327C356.386 388.274 384.117 359.681 417.756 358.486C450.781 357.311 477.115 383.077 477.115 416.016Z"
            fill="white" />
    </mask>
    <g mask="url(#mask2_447_983)">
        <path
            d="M409.919 374.13C398.376 374.531 387.423 381.661 382.562 390.891C376.704 402.012 384.525 406.867 380.707 424.565C377.19 440.863 368.973 444.139 370.332 454.6C371.819 466.059 383.044 472.677 387.478 475.291C407.432 487.053 438.619 484.542 454.461 466.708C455.785 465.219 466.719 452.908 463.768 442.412C461.125 433.019 449.804 433.681 447.459 423.899C445.439 415.471 453.176 412.207 452.439 399.85C452.295 397.432 451.614 385.988 443.004 381.243C437.27 378.083 430.973 379.508 428.664 380.155C425.894 378.121 419.145 373.811 409.921 374.132L409.919 374.13Z"
            fill="url(#paint7_linear_447_983)" />
        <path
            d="M351.386 467.591C351.386 467.591 409.695 429.801 481.78 459.184C481.78 459.184 472.599 488.918 417.754 494.356C361.201 499.965 351.386 467.591 351.386 467.591Z"
            fill="url(#paint8_linear_447_983)" />
        <path
            d="M407.421 419.66L405.235 436.07C404.489 441.669 400.667 446.554 395.349 448.692L377.577 455.836C377.577 455.836 411.594 470.062 454.557 450.927L434.97 445.344C429.409 443.603 425.621 438.578 425.379 432.606L424.817 418.75L407.421 419.66Z"
            fill="url(#paint9_linear_447_983)" />
        <path
            d="M433.932 403.912C433.932 417.647 425.665 432.867 415.415 433.443C405.107 434.022 396.708 419.585 396.708 405.71C396.708 391.835 405.107 383.887 415.415 383.45C425.665 383.014 433.932 390.177 433.932 403.912Z"
            fill="url(#paint10_linear_447_983)" />
        <path
            d="M423.615 391.987C418.048 392.526 409.617 394.251 403.776 400.667C393.969 411.44 398.626 427.495 394.264 428.698C390.379 429.77 384.359 418.482 384.457 405.735C384.538 395.059 388.187 382.319 397.686 378.76C403.264 376.668 404.906 379.62 422.893 380.635C433.374 381.226 429.262 386.111 431.62 387.761C442.086 395.084 440.762 420.773 435.128 421.4C432.457 421.698 428.765 415.197 423.615 391.987Z"
            fill="url(#paint11_linear_447_983)" />
    </g>
    <path
        d="M451.85 312.723C414.111 313.924 382.812 283.286 382.812 244.403C382.812 205.52 414.111 174.101 451.85 174.364C488.807 174.621 518.313 205.282 518.313 242.716C518.313 280.151 488.807 311.547 451.85 312.725V312.723Z"
        fill="url(#paint12_linear_447_983)" />
    <path
        d="M456.607 312.723C418.867 313.924 387.569 283.286 387.569 244.403C387.569 205.52 418.867 174.101 456.607 174.364C493.564 174.621 523.07 205.282 523.07 242.716C523.07 280.151 493.564 311.547 456.607 312.725V312.723Z"
        fill="#D8DEE8" />
    <path
        d="M518.566 242.772C518.566 277.726 491.094 306.902 456.607 307.953C421.438 309.026 392.416 280.556 392.416 244.342C392.416 208.128 421.438 178.936 456.607 179.132C491.094 179.326 518.566 207.817 518.566 242.77V242.772Z"
        fill="white" />
    <mask id="mask3_447_983" style="mask-type:luminance" maskUnits="userSpaceOnUse" x="397" y="183"
        width="118" height="121">
        <path
            d="M514.049 242.828C514.049 275.235 488.561 302.248 456.604 303.181C424.065 304.131 397.249 277.768 397.249 244.282C397.249 210.797 424.067 183.766 456.604 183.904C488.561 184.04 514.049 210.421 514.049 242.828Z"
            fill="white" />
    </mask>
    <g mask="url(#mask3_447_983)">
        <path
            d="M392.415 288.753C392.415 288.753 448.808 253.89 518.565 285.639C518.565 285.639 509.677 314.529 456.606 317.703C401.906 320.974 392.415 288.753 392.415 288.753Z"
            fill="url(#paint13_linear_447_983)" />
        <path
            d="M446.609 243.668L444.495 259.721C443.881 269.926 433.976 273.963 433.976 273.963C445.606 287.759 467.837 286.71 475.612 273.22C470.24 271.296 464.216 262.991 463.982 257.108L463.439 243.457L446.609 243.666V243.668Z"
            fill="url(#paint14_linear_447_983)" />
        <path
            d="M472.258 229.221C472.258 242.732 464.26 257.378 454.344 257.539C444.371 257.703 436.247 243.173 436.247 229.526C436.247 215.88 444.371 208.392 454.344 208.367C464.26 208.342 472.258 215.711 472.258 229.221Z"
            fill="url(#paint15_linear_447_983)" />
        <path
            d="M435.71 232.976C436.708 232.808 437.704 232.639 438.7 232.468C438.241 231.355 436.353 226.424 438.7 222.079C440.951 217.91 446.252 215.857 450.299 216.11C454.895 216.398 457.654 218.539 459.961 216.858C461.256 215.914 461.676 214.206 461.824 212.879C461.926 213.727 462.158 214.982 462.754 216.367C464.47 220.347 467.371 221.16 468.95 223.785C470.013 225.552 470.706 228.521 468.95 233.769C469.827 233.708 470.702 233.646 471.577 233.585C472.5 230.637 473.609 226.462 474.298 221.356C475.321 213.777 476.025 208.557 473.12 206.026C472.541 205.522 469.981 203.52 463.854 205.42C462.419 203.902 459.393 201.124 454.736 199.723C453.124 199.239 445.134 196.837 438.046 202.045C433.226 205.587 429.447 212.192 430.662 217.643C431.305 220.525 433.06 221.813 434.607 227.383C435.259 229.736 435.561 231.716 435.71 232.973V232.976Z"
            fill="url(#paint16_linear_447_983)" />
        <path
            d="M469.768 234.231C469.768 234.231 470.917 228.302 474.409 228.861C477.894 229.417 472.899 239.161 469.768 240.362V234.233V234.231Z"
            fill="url(#paint17_linear_447_983)" />
        <path
            d="M438.489 234.54C438.489 234.54 437.318 228.578 433.751 229.2C430.178 229.824 435.294 239.583 438.489 240.725V234.54Z"
            fill="url(#paint18_linear_447_983)" />
    </g>
    <path
        d="M336.175 180.304C296.954 179.992 264.414 147.473 264.414 107.82C264.414 68.1676 296.952 37.4317 336.175 39.2661C374.567 41.0622 405.209 73.5289 405.209 111.675C405.209 149.822 374.567 180.61 336.175 180.304Z"
        fill="url(#paint19_linear_447_983)" />
    <path
        d="M340.932 180.304C301.711 179.992 269.171 147.473 269.171 107.82C269.171 68.1676 301.709 37.4317 340.932 39.2661C379.324 41.0622 409.965 73.5289 409.965 111.675C409.965 149.822 379.324 180.61 340.932 180.304Z"
        fill="#D8DEE8" />
    <path
        d="M405.288 111.549C405.288 147.166 376.758 175.776 340.93 175.442C304.382 175.102 274.21 144.887 274.21 107.96C274.21 71.0344 304.382 42.4706 340.93 44.1323C376.756 45.7614 405.288 75.9312 405.288 111.551V111.549Z"
        fill="white" />
    <mask id="mask4_447_983" style="mask-type:luminance" maskUnits="userSpaceOnUse" x="279" y="48"
        width="122" height="123">
        <path
            d="M400.6 111.42C400.6 144.443 374.13 170.931 340.932 170.578C307.116 170.217 279.237 142.24 279.237 108.097C279.237 73.9529 307.116 47.5018 340.932 48.9946C374.13 50.4587 400.6 78.3969 400.6 111.42Z"
            fill="white" />
    </mask>
    <g mask="url(#mask4_447_983)">
        <path
            d="M292.255 153.159C288.726 142.922 301.978 139.429 303.664 115.601C303.78 113.984 306.025 81.4383 311.029 75.1848C311.695 74.354 312.435 73.6958 312.435 73.6958C314.938 71.7578 318.806 71.9842 332.608 66.2258C344.436 61.2905 343.753 61.4325 345.282 61.1524C354.176 59.5175 367.322 67.6572 371.649 78.5197C375.529 88.2617 370.874 96.5779 377.829 113.698C386.453 138.334 390.764 150.651 386.861 158.387C375.001 181.895 300.18 176.139 292.257 153.159H292.255Z"
            fill="url(#paint20_linear_447_983)" />
        <path
            d="M274.212 153.08C274.212 153.08 332.83 119.851 405.29 155.072C405.29 155.072 396.06 184.148 340.932 185.219C284.079 186.324 274.212 153.08 274.212 153.08Z"
            fill="url(#paint21_linear_447_983)" />
        <path
            d="M330.543 109.501L328.346 125.779C327.596 131.334 323.754 135.926 318.408 137.645L300.542 143.388C300.542 143.388 334.738 160.37 377.925 144.62L358.236 137.455C352.646 135.265 348.837 129.923 348.593 123.917L348.029 109.981L330.543 109.501Z"
            fill="url(#paint22_linear_447_983)" />
        <path
            d="M357.192 95.8334C357.192 109.605 348.881 124.203 338.579 123.962C328.217 123.718 319.774 108.573 319.774 94.6591C319.774 80.7456 328.217 73.4502 338.579 73.8359C348.883 74.2197 357.192 82.0619 357.192 95.8315V95.8334Z"
            fill="url(#paint23_linear_447_983)" />
        <path
            d="M319.149 103.614C320.936 103.568 318.357 89.0465 325.278 85.2318C329.874 82.699 337.846 85.3431 342.331 90.1863C349.398 97.8213 345.443 108.411 350.797 110.835C354.195 112.374 358.731 109.426 360.905 107.241C367.692 100.414 366.767 85.5446 358.744 76.9329C352.349 70.0673 343.668 69.5569 341.603 69.4974C329.785 69.1635 318.934 77.6025 316.446 87.8683C314.534 95.7586 317.827 103.647 319.149 103.614Z"
            fill="url(#paint24_linear_447_983)" />
    </g>
    <path
        d="M171.377 347.032C171.377 347.032 184.314 351.374 185.684 372.802C183.573 372.612 178.648 372.725 178.648 372.725C178.648 372.725 179.561 357.15 170.349 353.992C171.091 352.182 171.375 347.032 171.375 347.032H171.377Z"
        fill="white" />
    <path
        d="M123.39 344.99C123.718 348.938 124.048 352.883 124.376 356.828C130.885 355.149 137.986 353.199 145.6 352.933C155.469 352.587 164.483 353.802 172.487 355.797C172.842 355.31 173.596 354.134 173.943 352.207C174.502 349.104 173.565 346.506 173.393 346.044C169.319 344.545 164.896 343.269 160.149 342.373C146.491 339.79 134.089 341.93 123.39 344.99Z"
        fill="url(#paint25_linear_447_983)" />
    <path
        d="M122.775 348.396C122.795 346.971 122.904 345.192 123.389 344.99C123.848 344.801 124.462 346.1 124.727 346.819C124.836 347.118 125.08 347.846 125.232 350.146C125.427 353.115 125.199 354.564 124.99 355.458C124.865 355.995 124.667 356.811 124.376 356.828C124.142 356.841 123.936 356.321 123.633 355.318C123.224 353.965 122.729 351.712 122.775 348.395V348.396Z"
        fill="url(#paint26_linear_447_983)" />
    <path
        d="M110.73 373.176C113.474 373.715 120.137 375.312 120.137 375.312C120.137 375.312 115.794 361.402 123.976 355.116C124.187 354.072 124.402 352.416 124.145 350.417C123.945 348.87 123.529 347.631 123.168 346.771C119.697 348.671 112.125 355.135 110.73 373.178V373.176Z"
        fill="white" />
    <path
        d="M53.3593 376.26C53.3593 376.26 53.7028 368.901 65.3636 369.032C67.1961 370.39 67.2863 376.398 67.2863 376.398L53.3574 376.26H53.3593Z"
        fill="url(#paint27_linear_447_983)" />
    <path
        d="M42.9629 521.168L74.8828 540L94.0481 468.88L62.3988 373.694L53.3592 376.26L39.5877 513.675C39.2749 516.793 40.6239 519.789 42.9629 521.168Z"
        fill="url(#paint28_linear_447_983)" />
    <path style="mix-blend-mode:multiply" opacity="0.3"
        d="M94.0483 468.88L62.399 373.694L53.3594 376.26C55.5871 384.71 56.6559 398.443 57.1587 406.086C59.2963 438.591 66.3806 447.616 62.9497 470.279C60.0945 489.145 53.8487 491.768 54.3956 504.455C54.9904 518.271 63.0207 529.707 72.5401 538.616L74.883 539.998L94.0483 468.878V468.88Z"
        fill="url(#paint29_linear_447_983)" />
    <path d="M62.3994 373.694L232.178 375.469L257.981 521.696L74.8834 540L62.3994 373.694Z"
        fill="url(#paint30_linear_447_983)" />
    <g style="mix-blend-mode:multiply" opacity="0.2">
        <path
            d="M232.178 375.469L176.137 374.884C175.095 377.91 173.498 382.095 171.169 386.831C145.687 438.618 86.4598 445.305 87.5401 453.938C89.1558 466.835 219.236 448.151 222.478 465.451C224.042 473.794 197.127 493.079 168.715 500.654C134.31 509.826 108.751 499.104 91.6234 519.117C85.7997 525.921 83.2246 533.833 81.9697 539.179L257.977 521.696L232.176 375.469H232.178Z"
            fill="url(#paint31_linear_447_983)" />
    </g>
    <path
        d="M65.3636 369.033C63.393 369.01 60.6356 368.734 57.6326 370.467C56.9917 370.837 56.4257 371.246 55.9268 371.664L57.3102 371.186C59.5342 370.557 62.5986 371.461 63.7422 373.71C65.1468 376.473 65.6514 382.834 65.9584 385.986C66.8315 394.949 72.1908 450.653 72.1908 450.653C72.5919 455.345 76.134 458.883 80.3132 458.774L237.585 449.803C238.746 449.774 239.891 449.394 240.849 448.633C242.844 447.04 243.744 444.288 243.282 441.675L235.543 377.311C234.887 373.604 232.076 370.916 228.812 370.879L65.3636 369.033Z"
        fill="url(#paint32_linear_447_983)" />
    <path
        d="M67.1034 369.053C65.1347 369.03 62.7956 368.734 60.1879 369.408C59.4837 369.59 58.3573 369.924 57.8604 370.34C57.8604 370.34 63.3904 369.076 65.482 373.727C66.758 376.565 67.3912 382.849 67.6982 386C68.5713 394.961 73.9268 450.647 73.9268 450.647C74.3278 455.339 77.8661 458.875 82.0434 458.766L240.94 454.585C242.099 454.554 243.245 454.174 244.2 453.41C246.194 451.818 247.094 449.066 246.632 446.455L237.179 377.329C236.525 373.623 233.714 370.935 230.452 370.899L67.1034 369.055V369.053Z"
        fill="url(#paint33_linear_447_983)" />
    <path style="mix-blend-mode:multiply" opacity="0.1"
        d="M246.63 446.453L237.178 377.327C236.523 373.621 233.712 370.933 230.45 370.897L67.1015 369.053C65.1327 369.03 62.7937 368.734 60.186 369.408C59.4818 369.59 58.3554 369.924 57.8604 370.34C57.8604 370.34 63.3904 369.076 65.482 373.727C65.6834 374.174 65.8657 374.715 66.0365 375.306C81.9744 376.102 97.8201 375.807 113.58 376.995C144.471 379.27 175.362 379.568 203.888 392.301C212.95 396.346 219.144 410.666 216.694 417.258C214.927 422.013 208.884 421.623 206.774 427.875C204.552 434.454 209.876 438.921 207.645 443.54C205.304 448.385 198.177 446.096 186.605 449.592C180.207 451.524 175.289 454.364 172.215 456.39L240.94 454.581C242.099 454.55 243.245 454.17 244.2 453.407C246.194 451.814 247.094 449.062 246.632 446.451L246.63 446.453Z"
        fill="url(#paint34_linear_447_983)" />
    <path
        d="M171.882 467.888L151.983 472.898L149.873 473.088C147.745 473.28 145.912 471.426 145.82 468.965L144.941 445.699C144.849 443.237 146.534 441.193 148.667 441.159L150.79 441.122L170.799 443.676C172.703 443.644 174.307 442.607 174.393 444.902L175.209 466.606C175.295 468.901 173.779 467.713 171.882 467.884V467.888Z"
        fill="url(#paint35_linear_447_983)" />
    <path
        d="M173.39 471.085L151.348 473.079C149.222 473.27 147.391 471.417 147.297 468.957L146.419 445.697C146.327 443.237 148.011 441.193 150.143 441.157L172.25 440.786C174.154 440.754 175.767 442.607 175.854 444.902L176.669 466.601C176.755 468.895 175.286 470.912 173.39 471.083V471.085Z"
        fill="url(#paint36_linear_447_983)" />
    <defs>
        <linearGradient id="paint0_linear_447_983" x1="162.72" y1="401.185" x2="120.702"
            y2="-110.817" gradientUnits="userSpaceOnUse">
            <stop stop-color="#AA80F9" />
            <stop offset="1" stop-color="#6165D7" />
        </linearGradient>
        <linearGradient id="paint1_linear_447_983" x1="40.0817" y1="154.777" x2="196.685"
            y2="379.649" gradientUnits="userSpaceOnUse">
            <stop stop-color="#E38DDD" />
            <stop offset="1" stop-color="#9571F6" />
        </linearGradient>
        <linearGradient id="paint2_linear_447_983" x1="106.983" y1="562.707" x2="391.032"
            y2="19.7055" gradientUnits="userSpaceOnUse">
            <stop stop-color="#444B8C" />
            <stop offset="1" stop-color="#26264F" />
        </linearGradient>
        <linearGradient id="paint3_linear_447_983" x1="115.367" y1="562.707" x2="399.418"
            y2="19.7055" gradientUnits="userSpaceOnUse">
            <stop stop-color="#FFC444" />
            <stop offset="1" stop-color="#F36F56" />
        </linearGradient>
        <linearGradient id="paint4_linear_447_983" x1="348.576" y1="198.819" x2="-145.831"
            y2="745.747" gradientUnits="userSpaceOnUse">
            <stop stop-color="#FFC444" />
            <stop offset="1" stop-color="#F36F56" />
        </linearGradient>
        <linearGradient id="paint5_linear_447_983" x1="59.665" y1="313.213" x2="358.441"
            y2="313.213" gradientUnits="userSpaceOnUse">
            <stop stop-color="#FFC444" />
            <stop offset="1" stop-color="#F36F56" />
        </linearGradient>
        <linearGradient id="paint6_linear_447_983" x1="341.616" y1="417.607" x2="481.676"
            y2="417.607" gradientUnits="userSpaceOnUse">
            <stop stop-color="#444B8C" />
            <stop offset="1" stop-color="#26264F" />
        </linearGradient>
        <linearGradient id="paint7_linear_447_983" x1="438.965" y1="371.207" x2="419.606"
            y2="431.221" gradientUnits="userSpaceOnUse">
            <stop stop-color="#AB316D" />
            <stop offset="1" stop-color="#792D3D" />
        </linearGradient>
        <linearGradient id="paint8_linear_447_983" x1="351.386" y1="471.503" x2="481.78"
            y2="471.503" gradientUnits="userSpaceOnUse">
            <stop stop-color="#FF9085" />
            <stop offset="1" stop-color="#FB6FBB" />
        </linearGradient>
        <linearGradient id="paint9_linear_447_983" x1="415.917" y1="424.446" x2="416.169"
            y2="473.144" gradientUnits="userSpaceOnUse">
            <stop stop-color="#F36F56" />
            <stop offset="1" stop-color="#FFC444" />
        </linearGradient>
        <linearGradient id="paint10_linear_447_983" x1="422.82" y1="354.416" x2="411.602"
            y2="430.014" gradientUnits="userSpaceOnUse">
            <stop stop-color="#F36F56" />
            <stop offset="1" stop-color="#FFC444" />
        </linearGradient>
        <linearGradient id="paint11_linear_447_983" x1="424.835" y1="366.311" x2="404.839"
            y2="428.299" gradientUnits="userSpaceOnUse">
            <stop stop-color="#AB316D" />
            <stop offset="1" stop-color="#792D3D" />
        </linearGradient>
        <linearGradient id="paint12_linear_447_983" x1="382.814" y1="243.559" x2="518.313"
            y2="243.559" gradientUnits="userSpaceOnUse">
            <stop stop-color="#444B8C" />
            <stop offset="1" stop-color="#26264F" />
        </linearGradient>
        <linearGradient id="paint13_linear_447_983" x1="392.415" y1="295.116" x2="518.565"
            y2="295.116" gradientUnits="userSpaceOnUse">
            <stop stop-color="#AB316D" />
            <stop offset="1" stop-color="#792D3D" />
        </linearGradient>
        <linearGradient id="paint14_linear_447_983" x1="454.666" y1="248.916" x2="454.908"
            y2="295.586" gradientUnits="userSpaceOnUse">
            <stop stop-color="#F36F56" />
            <stop offset="1" stop-color="#FFC444" />
        </linearGradient>
        <linearGradient id="paint15_linear_447_983" x1="461.541" y1="184.532" x2="449.759"
            y2="257.286" gradientUnits="userSpaceOnUse">
            <stop stop-color="#F36F56" />
            <stop offset="1" stop-color="#FFC444" />
        </linearGradient>
        <linearGradient id="paint16_linear_447_983" x1="455.352" y1="199.61" x2="449.585"
            y2="235.221" gradientUnits="userSpaceOnUse">
            <stop stop-color="#444B8C" />
            <stop offset="1" stop-color="#26264F" />
        </linearGradient>
        <linearGradient id="paint17_linear_447_983" x1="479.978" y1="187.561" x2="468.234"
            y2="260.084" gradientUnits="userSpaceOnUse">
            <stop stop-color="#F36F56" />
            <stop offset="1" stop-color="#FFC444" />
        </linearGradient>
        <linearGradient id="paint18_linear_447_983" x1="444.253" y1="181.74" x2="432.45"
            y2="254.638" gradientUnits="userSpaceOnUse">
            <stop stop-color="#F36F56" />
            <stop offset="1" stop-color="#FFC444" />
        </linearGradient>
        <linearGradient id="paint19_linear_447_983" x1="264.416" y1="109.749" x2="405.209"
            y2="109.749" gradientUnits="userSpaceOnUse">
            <stop stop-color="#444B8C" />
            <stop offset="1" stop-color="#26264F" />
        </linearGradient>
        <linearGradient id="paint20_linear_447_983" x1="427.366" y1="-31.8536" x2="260.562"
            y2="284.039" gradientUnits="userSpaceOnUse">
            <stop stop-color="#AB316D" />
            <stop offset="1" stop-color="#792D3D" />
        </linearGradient>
        <linearGradient id="paint21_linear_447_983" x1="339.815" y1="152.925" x2="333.473"
            y2="266.268" gradientUnits="userSpaceOnUse">
            <stop stop-color="#444B8C" />
            <stop offset="1" stop-color="#26264F" />
        </linearGradient>
        <linearGradient id="paint22_linear_447_983" x1="339.084" y1="115.076" x2="339.335"
            y2="163.513" gradientUnits="userSpaceOnUse">
            <stop stop-color="#F36F56" />
            <stop offset="1" stop-color="#FFC444" />
        </linearGradient>
        <linearGradient id="paint23_linear_447_983" x1="345.934" y1="45.1761" x2="334.77"
            y2="120.408" gradientUnits="userSpaceOnUse">
            <stop stop-color="#F36F56" />
            <stop offset="1" stop-color="#FFC444" />
        </linearGradient>
        <linearGradient id="paint24_linear_447_983" x1="372.821" y1="32.8399" x2="309.63"
            y2="152.514" gradientUnits="userSpaceOnUse">
            <stop stop-color="#AB316D" />
            <stop offset="1" stop-color="#792D3D" />
        </linearGradient>
        <linearGradient id="paint25_linear_447_983" x1="145.848" y1="391.062" x2="149.53"
            y2="336.258" gradientUnits="userSpaceOnUse">
            <stop offset="0.1" stop-color="#311944" />
            <stop offset="0.27" stop-color="#361B47" />
            <stop offset="0.48" stop-color="#462050" />
            <stop offset="0.72" stop-color="#602A5F" />
            <stop offset="0.97" stop-color="#843773" />
            <stop offset="1" stop-color="#893976" />
        </linearGradient>
        <linearGradient id="paint26_linear_447_983" x1="125.212" y1="351.58" x2="167.315"
            y2="374.153" gradientUnits="userSpaceOnUse">
            <stop offset="0.1" stop-color="#311944" />
            <stop offset="0.27" stop-color="#361B47" />
            <stop offset="0.48" stop-color="#462050" />
            <stop offset="0.72" stop-color="#602A5F" />
            <stop offset="0.97" stop-color="#843773" />
            <stop offset="1" stop-color="#893976" />
        </linearGradient>
        <linearGradient id="paint27_linear_447_983" x1="65.3693" y1="422.049" x2="41.3052"
            y2="202.072" gradientUnits="userSpaceOnUse">
            <stop offset="0.1" stop-color="#311944" />
            <stop offset="0.69" stop-color="#6D2E66" />
            <stop offset="1" stop-color="#893976" />
        </linearGradient>
        <linearGradient id="paint28_linear_447_983" x1="170.072" y1="513.328" x2="10.7111"
            y2="424.591" gradientUnits="userSpaceOnUse">
            <stop stop-color="#311944" />
            <stop offset="1" stop-color="#893976" />
        </linearGradient>
        <linearGradient id="paint29_linear_447_983" x1="26.2673" y1="389.862" x2="74.3246"
            y2="470.45" gradientUnits="userSpaceOnUse">
            <stop stop-color="#311944" />
            <stop offset="1" stop-color="#893976" />
        </linearGradient>
        <linearGradient id="paint30_linear_447_983" x1="148.718" y1="293.729" x2="166.245"
            y2="528.965" gradientUnits="userSpaceOnUse">
            <stop offset="0.1" stop-color="#311944" />
            <stop offset="0.69" stop-color="#6D2E66" />
            <stop offset="1" stop-color="#893976" />
        </linearGradient>
        <linearGradient id="paint31_linear_447_983" x1="117.581" y1="426.894" x2="246.642"
            y2="526.336" gradientUnits="userSpaceOnUse">
            <stop stop-color="#311944" />
            <stop offset="1" stop-color="#893976" />
        </linearGradient>
        <linearGradient id="paint32_linear_447_983" x1="84.337" y1="413.401" x2="138.682"
            y2="411.29" gradientUnits="userSpaceOnUse">
            <stop offset="0.1" stop-color="#311944" />
            <stop offset="0.69" stop-color="#6D2E66" />
            <stop offset="1" stop-color="#893976" />
        </linearGradient>
        <linearGradient id="paint33_linear_447_983" x1="168.926" y1="595.7" x2="150.057"
            y2="383.624" gradientUnits="userSpaceOnUse">
            <stop offset="0.1" stop-color="#311944" />
            <stop offset="0.27" stop-color="#361B47" />
            <stop offset="0.48" stop-color="#462050" />
            <stop offset="0.72" stop-color="#602A5F" />
            <stop offset="0.97" stop-color="#843773" />
            <stop offset="1" stop-color="#893976" />
        </linearGradient>
        <linearGradient id="paint34_linear_447_983" x1="178.125" y1="644.893" x2="146.119"
            y2="352.32" gradientUnits="userSpaceOnUse">
            <stop stop-color="#311944" />
            <stop offset="1" stop-color="#893976" />
        </linearGradient>
        <linearGradient id="paint35_linear_447_983" x1="223.256" y1="490.716" x2="126.745"
            y2="440.266" gradientUnits="userSpaceOnUse">
            <stop stop-color="#FFC444" />
            <stop offset="1" stop-color="#F36F56" />
        </linearGradient>
        <linearGradient id="paint36_linear_447_983" x1="136.734" y1="448.028" x2="235.232"
            y2="483.273" gradientUnits="userSpaceOnUse">
            <stop stop-color="#FFC444" />
            <stop offset="1" stop-color="#F36F56" />
        </linearGradient>
    </defs>
</svg>