<svg width="544" height="540" viewBox="0 0 544 540" fill="none" xmlns="http://www.w3.org/2000/svg">
<path d="M478.504 464.075C464.364 478.644 451.723 487.214 442.043 493.68C347.618 556.728 239.676 538.556 206.312 532.342C152.477 522.312 107.017 515.261 67.9659 479.968C-20.7717 399.801 -16.4478 232.571 51.3519 128.972C59.396 116.682 127.098 16.3358 235.274 2.19545C237.923 1.84486 239.89 1.65009 241.624 1.47479C258.354 -0.297621 362.05 -9.64662 446.62 61.1916C458.715 71.3391 478.212 89.6281 496.267 117.519C562.294 219.521 562.509 377.499 478.504 464.075Z" fill="url(#paint0_linear_293_996)"/>
<path d="M472.473 243.258L455.006 283.066L459.804 285.171L477.271 245.363L472.473 243.258Z" fill="#BDD0FB"/>
<path d="M434.329 206.354L435.42 212.723C435.79 214.866 437.465 216.521 439.608 216.872L444.672 217.709C446.035 217.943 447.204 218.82 447.808 220.086C449.327 223.241 451.177 226.163 453.32 228.831C454.196 229.922 454.488 231.343 454.099 232.687L452.657 237.615C452.054 239.699 452.833 241.939 454.605 243.186L459.883 246.925C461.656 248.172 464.012 248.172 465.785 246.906L469.953 243.906C471.083 243.088 472.543 242.913 473.848 243.361C477.082 244.49 480.451 245.27 483.938 245.659C485.32 245.815 486.547 246.613 487.21 247.821L489.683 252.32C490.716 254.229 492.858 255.242 495.001 254.891L501.37 253.801C503.512 253.43 505.168 251.755 505.518 249.613L506.356 244.549C506.589 243.186 507.466 242.017 508.732 241.413C511.887 239.894 514.809 238.044 517.477 235.901C518.568 235.025 519.99 234.732 521.334 235.122L526.261 236.563C528.345 237.167 530.585 236.388 531.832 234.616L535.571 229.337C536.818 227.565 536.818 225.208 535.552 223.436L532.552 219.268C531.734 218.138 531.559 216.677 532.007 215.372C533.137 212.139 533.916 208.769 534.305 205.283C534.461 203.9 535.26 202.673 536.467 202.011L540.966 199.537C542.875 198.505 543.888 196.363 543.537 194.22L542.447 187.851C542.077 185.709 540.402 184.053 538.259 183.702L533.195 182.865C531.832 182.631 530.663 181.755 530.059 180.489C528.54 177.333 526.69 174.412 524.547 171.744C523.671 170.653 523.379 169.231 523.768 167.887L525.21 162.959C525.813 160.875 525.034 158.635 523.262 157.389L517.983 153.649C516.211 152.403 513.854 152.403 512.082 153.669L507.914 156.668C506.784 157.486 505.323 157.662 504.018 157.214C500.785 156.084 497.416 155.305 493.929 154.915C492.546 154.76 491.319 153.961 490.657 152.753L488.184 148.254C487.151 146.345 485.009 145.333 482.866 145.683L476.497 146.774C474.355 147.144 472.699 148.819 472.349 150.962L471.511 156.026C471.277 157.389 470.401 158.558 469.135 159.161C465.98 160.681 463.058 162.531 460.39 164.673C459.299 165.55 457.877 165.842 456.533 165.452L451.606 164.011C449.522 163.407 447.282 164.186 446.035 165.959L442.296 171.237C441.049 173.01 441.049 175.366 442.315 177.139L445.314 181.307C446.133 182.436 446.308 183.897 445.86 185.202C444.73 188.435 443.951 191.805 443.562 195.291C443.406 196.674 442.607 197.901 441.4 198.564L436.9 201.037C434.992 202.089 433.959 204.231 434.329 206.354ZM451.372 202.887C449.95 182.144 465.629 164.186 486.372 162.765C507.115 161.343 525.073 177.022 526.495 197.765C527.917 218.508 512.238 236.466 491.495 237.888C470.752 239.29 452.794 223.631 451.372 202.887Z" fill="#91B3FA"/>
<path d="M458.697 86.1328L453.582 87.2671L468.969 156.655L474.084 155.52L458.697 86.1328Z" fill="#BDD0FB"/>
<path d="M424.43 61.786L373.537 67.439L374.116 72.6464L425.008 66.9933L424.43 61.786Z" fill="#BDD0FB"/>
<path d="M417.073 56.0107L417.871 60.7241C418.144 62.3018 419.39 63.5288 420.968 63.8015L424.708 64.4248C425.72 64.6001 426.577 65.2428 427.025 66.1777C428.135 68.5149 429.518 70.6769 431.096 72.6441C431.739 73.4427 431.973 74.5139 431.68 75.4877L430.609 79.13C430.161 80.6686 430.726 82.3242 432.05 83.2396L435.946 86.0054C437.251 86.9403 439.004 86.9208 440.309 85.9859L443.386 83.7655C444.224 83.1617 445.295 83.0254 446.269 83.376C448.664 84.2135 451.157 84.7978 453.728 85.0705C454.741 85.1873 455.657 85.7717 456.144 86.6676L457.974 89.9982C458.734 91.4005 460.312 92.1601 461.889 91.8875L466.603 91.0889C468.18 90.8162 469.407 89.5697 469.68 87.992L470.303 84.2524C470.479 83.2396 471.121 82.3826 472.056 81.9347C474.394 80.8245 476.556 79.4416 478.523 77.864C479.321 77.2212 480.393 76.9875 481.366 77.2796L485.009 78.3509C486.547 78.7989 488.203 78.234 489.118 76.9096L491.884 73.0141C492.819 71.7092 492.799 69.9563 491.865 68.6513L489.644 65.5739C489.04 64.7364 488.904 63.6651 489.255 62.6913C490.092 60.2956 490.676 57.8025 490.949 55.2316C491.066 54.2188 491.65 53.3033 492.546 52.8164L495.877 50.9856C497.279 50.226 498.039 48.6483 497.766 47.0707L496.968 42.3572C496.695 40.7796 495.448 39.5525 493.871 39.2798L490.131 38.6566C489.118 38.4813 488.261 37.8385 487.813 36.9036C486.703 34.5664 485.32 32.4044 483.743 30.4372C483.1 29.6387 482.866 28.5674 483.158 27.5936L484.23 23.9514C484.678 22.4127 484.113 20.7571 482.788 19.8417L478.893 17.076C477.588 16.1411 475.835 16.1605 474.53 17.0954L471.453 19.3158C470.615 19.9196 469.544 20.0559 468.57 19.7054C466.174 18.8678 463.681 18.2835 461.11 18.0109C460.097 17.894 459.182 17.3097 458.695 16.4137L456.864 13.0832C456.105 11.6808 454.527 10.9212 452.949 11.1939L448.236 11.9924C446.658 12.2651 445.431 13.5116 445.158 15.0893L444.535 18.8289C444.36 19.8417 443.717 20.6987 442.782 21.1467C440.445 22.2569 438.283 23.6397 436.316 25.2174C435.517 25.8601 434.446 26.0938 433.472 25.8017L429.83 24.7304C428.291 24.2825 426.636 24.8473 425.72 26.1717L422.955 30.0672C422.02 31.3721 422.039 33.1251 422.974 34.43L425.194 37.5269C425.798 38.3644 425.935 39.4357 425.584 40.4095C424.746 42.8052 424.162 45.2983 423.89 47.8692C423.773 48.882 423.188 49.7975 422.292 50.2844L418.962 52.1152C417.559 52.8554 416.8 54.433 417.073 56.0107ZM429.674 53.4397C428.622 38.1112 440.211 24.8278 455.54 23.7956C470.868 22.7438 484.152 34.3327 485.184 49.6611C486.236 64.9896 474.647 78.273 459.318 79.3053C443.99 80.357 430.706 68.7681 429.674 53.4397Z" fill="#91B3FA"/>
<path d="M140.338 76.6893L138.83 81.707L202.251 100.772L203.759 95.7547L140.338 76.6893Z" fill="#BDD0FB"/>
<path d="M22.6029 43.1947L20.3825 50.7908C19.6424 53.3423 20.5968 56.0691 22.7588 57.6078L27.8812 61.2305C29.2641 62.2043 30.0627 63.8209 30.0627 65.5154C30.0432 69.8004 30.5106 74.0075 31.4455 78.0977C31.8156 79.7532 31.3871 81.4867 30.238 82.7527L26.0114 87.4077C24.239 89.3749 23.8884 92.2575 25.1739 94.5753L28.972 101.509C30.238 103.827 32.8479 105.093 35.4773 104.645L41.671 103.574C43.346 103.282 45.0406 103.846 46.2481 105.073C49.1892 108.053 52.5003 110.722 56.123 113.001C57.5643 113.916 58.4797 115.435 58.5576 117.13L58.8693 123.401C59.0056 126.05 60.7975 128.329 63.3295 129.069L70.9256 131.29C73.4771 132.03 76.2039 131.075 77.7426 128.913L81.3653 123.791C82.3392 122.408 83.9558 121.609 85.6503 121.609C89.9352 121.629 94.1423 121.161 98.2325 120.227C99.888 119.857 101.621 120.285 102.888 121.434L107.543 125.661C109.51 127.433 112.392 127.784 114.71 126.498L121.644 122.7C123.962 121.434 125.228 118.824 124.78 116.195L123.709 110.001C123.416 108.326 123.981 106.632 125.208 105.424C128.188 102.483 130.857 99.1719 133.135 95.5491C134.051 94.1078 135.57 93.1924 137.265 93.1145L143.536 92.8029C146.185 92.6665 148.464 90.8746 149.204 88.3426L151.424 80.7465C152.165 78.195 151.21 75.4682 149.048 73.9296L143.926 70.3068C142.543 69.333 141.744 67.7164 141.744 66.0219C141.764 61.7369 141.296 57.5298 140.361 53.4397C139.991 51.7841 140.42 50.0506 141.569 48.7846L145.796 44.1296C147.568 42.1624 147.919 39.2798 146.633 36.962L142.835 30.0282C141.569 27.7104 138.959 26.4444 136.33 26.8924L130.136 27.9636C128.461 28.2558 126.766 27.6909 125.559 26.4639C122.618 23.4839 119.307 20.8155 115.684 18.5367C114.243 17.6213 113.327 16.1021 113.249 14.4076L112.938 8.13594C112.801 5.48706 111.009 3.20824 108.477 2.46811L100.901 0.247722C98.3493 -0.492408 95.6226 0.461972 94.0839 2.62393L90.4611 7.7464C89.4873 9.12927 87.8707 9.92784 86.1762 9.92784C81.8912 9.90836 77.6842 10.3758 73.594 11.3107C71.9384 11.6808 70.205 11.2523 68.9389 10.1031L64.2839 5.8766C62.3167 4.10418 59.4341 3.7536 57.1163 5.03909L50.1825 8.83712C47.8647 10.1031 46.5987 12.7131 47.0467 15.3425L48.1179 21.5362C48.4101 23.2112 47.8452 24.9057 46.6182 26.1133C43.6382 29.0543 40.9698 32.3654 38.691 35.9882C37.7756 37.4295 36.2564 38.3449 34.5619 38.4228L28.2903 38.7344C25.6219 38.8513 23.3431 40.6432 22.6029 43.1947ZM43.2292 48.4925C52.773 24.9057 79.6319 13.5311 103.199 23.0749C126.786 32.6186 138.161 59.4776 128.617 83.0448C119.073 106.632 92.2141 118.006 68.6468 108.462C45.06 98.9187 33.6854 72.0598 43.2292 48.4925Z" fill="#BDD0FB"/>
<path d="M85.0864 82.1489C84.3268 79.1884 87.8521 77.0264 90.1894 78.9936C113.835 99.055 171.234 159.824 163.287 271.447C153.295 411.487 184.829 460.823 222.478 489.999C222.478 489.999 172.188 477.904 138.415 427.945C55.5201 305.24 98.5256 134.757 85.0864 82.1489Z" fill="#91B3FA"/>
<path d="M104.446 124.765C108.05 140.113 111.341 155.539 114.068 171.042C116.873 186.546 119.21 202.108 121.06 217.749C122.852 233.389 124.352 249.048 125.17 264.747C126.066 280.445 126.28 296.163 126.455 311.94C126.709 327.716 126.884 343.61 128.676 359.522C130.448 375.416 134.149 391.348 140.654 406.131C142.271 409.812 143.985 413.493 145.874 417.019C147.705 420.583 149.692 424.069 151.756 427.536C155.905 434.431 160.501 441.053 165.585 447.286C175.771 459.771 187.847 470.678 201.014 479.774C202.397 480.728 204.305 480.378 205.26 478.995C206.195 477.631 205.883 475.781 204.559 474.807C201.423 472.509 198.306 470.172 195.326 467.698C193.807 466.49 192.346 465.224 190.866 463.978C189.425 462.673 187.945 461.426 186.562 460.082C180.894 454.804 175.616 449.136 170.785 443.098C161.066 431.101 153.081 417.583 146.848 403.463C143.809 396.373 141.297 389.069 139.349 381.59C137.421 374.111 136.058 366.476 135.123 358.763C133.253 343.317 132.961 327.58 132.591 311.823C132.201 296.046 131.695 280.192 130.546 264.396C130 256.488 129.299 248.6 128.462 240.731C128.072 236.797 127.585 232.863 127.137 228.928C126.631 224.994 126.105 221.079 125.559 217.164C123.3 201.485 120.573 185.903 117.36 170.419C114.068 154.954 110.367 139.567 106.063 124.356C105.946 123.927 105.498 123.674 105.05 123.791C104.602 123.908 104.349 124.336 104.446 124.765Z" fill="white"/>
<path d="M135.045 490.174C133.76 495.648 127.294 498.024 122.716 494.752C97.4741 476.677 30.7066 419.161 24.1623 312.193C18.6113 221.858 7.04195 173.419 0.244446 151.779C-1.19686 147.202 4.04248 143.463 7.91842 146.287C50.6122 177.489 181.81 291.742 135.045 490.174Z" fill="#7D97F4"/>
<path d="M127.469 491.09C127.372 491.187 127.255 491.265 127.118 491.324C126.067 491.908 124.723 491.538 124.138 490.467C123.476 489.259 56.9814 368.949 43.6007 243.692C43.4643 242.484 44.3408 241.413 45.5484 241.277C46.7559 241.14 47.8272 242.017 47.9635 243.224C61.2469 367.586 127.313 487.156 127.975 488.344C128.501 489.279 128.268 490.428 127.469 491.09Z" fill="white"/>
<path d="M125.541 423.056L310.729 89.0633L418.379 383.128L125.541 423.056ZM309.034 111.033L142.427 411.487L405.874 375.571L309.034 111.033Z" fill="url(#paint1_linear_293_996)"/>
<path d="M421.807 472.976C475.806 472.976 519.582 429.201 519.582 375.201C519.582 321.202 475.806 277.426 421.807 277.426C367.807 277.426 324.032 321.202 324.032 375.201C324.032 429.201 367.807 472.976 421.807 472.976Z" fill="white"/>
<path d="M294.349 360.71L293.433 375.396C293.122 380.304 295.965 384.881 300.523 386.79L311.313 391.289C314.235 392.497 316.338 395.087 317.001 398.165C318.695 405.936 321.286 413.376 324.636 420.408C325.999 423.271 325.921 426.601 324.363 429.348L318.598 439.515C316.163 443.8 316.728 449.156 319.981 452.856L329.719 463.9C332.972 467.601 338.231 468.808 342.788 466.938L353.598 462.478C356.52 461.27 359.831 461.621 362.499 463.316C369.063 467.523 376.133 471.009 383.612 473.677C386.592 474.729 388.891 477.144 389.728 480.183L392.844 491.44C394.149 496.193 398.337 499.582 403.245 499.894L417.931 500.809C422.839 501.121 427.416 498.277 429.325 493.719L433.824 482.929C435.032 480.007 437.622 477.904 440.7 477.242C448.471 475.547 455.911 472.957 462.943 469.607C465.806 468.243 469.136 468.321 471.883 469.879L482.05 475.645C486.335 478.079 491.691 477.514 495.391 474.262L506.415 464.523C510.116 461.27 511.324 456.012 509.454 451.454L504.994 440.644C503.786 437.723 504.137 434.412 505.831 431.743C510.038 425.179 513.525 418.109 516.193 410.63C517.245 407.65 519.66 405.352 522.698 404.514L533.956 401.398C538.708 400.093 542.097 395.905 542.409 390.997L543.324 376.311C543.636 371.403 540.792 366.826 536.235 364.917L525.445 360.418C522.523 359.211 520.419 356.62 519.757 353.543C518.063 345.771 515.472 338.331 512.122 331.3C510.759 328.437 510.837 325.106 512.395 322.36L518.16 312.193C520.595 307.908 520.03 302.552 516.777 298.851L507.039 287.808C503.786 284.107 498.527 282.899 493.97 284.769L483.16 289.229C480.238 290.437 476.927 290.086 474.259 288.392C467.695 284.185 460.625 280.698 453.146 278.03C450.166 276.978 447.867 274.563 447.03 271.525L443.913 260.267C442.608 255.515 438.421 252.125 433.513 251.814L418.827 250.898C413.919 250.587 409.342 253.43 407.433 257.988L402.934 268.778C401.726 271.7 399.136 273.804 396.058 274.466C388.287 276.16 380.847 278.751 373.815 282.101C370.952 283.464 367.622 283.386 364.875 281.828L354.708 276.063C350.423 273.628 345.067 274.193 341.367 277.446L330.323 287.184C326.622 290.437 325.415 295.696 327.285 300.253L331.745 311.063C332.952 313.985 332.602 317.296 330.907 319.964C326.7 326.528 323.214 333.598 320.546 341.077C319.494 344.057 317.079 346.356 314.04 347.193L302.782 350.31C298.049 351.614 294.641 355.802 294.349 360.71ZM333.887 361.918C341.6 315.27 385.657 283.698 432.305 291.411C478.953 299.124 510.525 343.181 502.812 389.829C495.099 436.476 451.042 468.049 404.394 460.336C357.747 452.623 326.194 408.565 333.887 361.918Z" fill="url(#paint2_linear_293_996)"/>
<path d="M318.012 330.657C318.46 329.469 320.116 329.43 320.603 330.599C322.414 334.923 326.407 342.363 333.068 344.33C333.399 344.427 333.73 344.525 334.042 344.642C334.217 343.746 334.1 342.752 333.282 341.778C330.945 339.032 333.964 334.475 333.964 334.475C333.964 334.475 334.646 338.058 337.684 339.987C340.294 341.642 341.969 345.869 340.82 349.647C339.067 363.359 336.165 381.57 357.726 391.912C379.287 402.235 402.718 361.645 402.718 361.645L394.324 407.611C394.324 407.611 374.788 426.192 346.955 407.007C319.103 387.822 331.627 353.231 331.627 353.231C331.627 353.231 311.565 347.933 318.012 330.657Z" fill="url(#paint3_linear_293_996)"/>
<path d="M398.063 296.261C398.063 296.261 389.025 271.057 419.585 274.193C419.585 274.193 433.706 270.025 436.14 283.542C436.14 283.542 446.21 288.489 440.873 301.13C440.873 301.13 467.148 286.989 482.223 309.68C497.298 332.371 487.91 347.076 476.75 352.004C476.75 352.004 486.742 355.549 483.626 366.748C480.509 377.967 458.948 388.29 444.009 377.013C444.009 377.013 406.788 386.771 404.178 359.951C404.178 359.951 385.149 350.796 400.848 326.372C416.605 301.948 398.063 296.261 398.063 296.261Z" fill="url(#paint4_linear_293_996)"/>
<path d="M403.984 356.562C409.73 354.03 426.694 348.537 445.139 361.704C448.275 363.943 449.911 367.722 449.366 371.54C446.989 388.446 441.341 438.21 454.235 457.804C454.235 457.804 438.653 480.027 416.878 466.432C416.878 466.432 403.166 428.938 389.435 413.435C379.949 402.742 396.68 367.878 400.965 359.444C401.608 358.159 402.679 357.146 403.984 356.562Z" fill="url(#paint5_linear_293_996)"/>
<path d="M416.371 322.009C416.371 322.009 428.33 345.869 430.375 356.795C430.375 356.795 421.182 362.463 411.054 356.133C411.054 356.133 406.964 331.319 404.997 327.034L416.371 322.009Z" fill="url(#paint6_linear_293_996)"/>
<path d="M399.835 289.521C399.835 289.521 380.806 324.736 395.784 332.371C410.762 340.026 424.318 314.997 424.318 314.997C424.318 314.997 427.454 296.65 421.104 291.352C414.735 286.055 399.835 289.521 399.835 289.521Z" fill="url(#paint7_linear_293_996)"/>
<path d="M409.554 280.465C409.554 280.465 399.27 284.302 398.374 289.288C397.498 294.274 414.579 296.65 419.234 296.28L425.409 315.173C425.409 315.173 434.154 295.579 428.447 285.607C422.76 275.634 409.554 280.465 409.554 280.465Z" fill="url(#paint8_linear_293_996)"/>
<path d="M419.546 313.186C419.546 313.186 427.22 301.656 431.642 307.986C436.063 314.316 425.039 320.88 420.598 318.055L419.546 313.186Z" fill="url(#paint9_linear_293_996)"/>
<path d="M447.905 364.664C447.905 364.664 479.049 384.55 490.073 415.694C501.097 446.838 453.32 456.304 453.32 456.304C453.32 456.304 445.86 449.818 438.42 453.402C430.98 456.986 436.219 440.722 445.315 439.631C454.411 438.521 451.1 446.254 463.234 438.813C475.037 431.568 480.588 413.045 445.276 390.471C443.231 389.166 441.497 387.374 440.329 385.251C432.148 370.39 435.791 359.522 447.905 364.664Z" fill="url(#paint10_linear_293_996)"/>
<path d="M161.593 513.781C219.411 513.781 266.282 466.91 266.282 409.091C266.282 351.273 219.411 304.402 161.593 304.402C103.775 304.402 56.9036 351.273 56.9036 409.091C56.9036 466.91 103.775 513.781 161.593 513.781Z" fill="white"/>
<path d="M33.3947 395.126L32.4403 410.299C32.1287 415.382 35.0697 420.115 39.7637 422.063L50.9046 426.699C53.9235 427.945 56.0855 430.614 56.7866 433.808C58.5396 441.832 61.2079 449.545 64.6749 456.81C66.0772 459.771 65.9993 463.199 64.3827 466.042L58.4227 476.56C55.9102 480.981 56.475 486.532 59.8446 490.35L69.8947 501.763C73.2643 505.581 78.6789 506.847 83.3924 504.899L94.5722 500.303C97.5912 499.056 101.019 499.407 103.765 501.179C110.543 505.522 117.867 509.126 125.599 511.891C128.677 512.982 131.053 515.475 131.91 518.631L135.124 530.278C136.487 535.186 140.791 538.692 145.875 539.023L161.048 539.977C166.131 540.289 170.864 537.348 172.812 532.654L177.447 521.513C178.694 518.494 181.362 516.332 184.556 515.631C192.581 513.878 200.294 511.21 207.559 507.743C210.519 506.34 213.947 506.418 216.791 508.035L227.309 513.995C231.73 516.508 237.281 515.943 241.098 512.573L252.512 502.523C256.329 499.153 257.595 493.739 255.648 489.025L251.051 477.846C249.805 474.827 250.155 471.399 251.928 468.652C256.271 461.874 259.874 454.551 262.64 446.818C263.731 443.741 266.224 441.365 269.379 440.508L281.026 437.294C285.935 435.931 289.44 431.626 289.772 426.543L290.726 411.37C291.038 406.287 288.097 401.554 283.403 399.606L272.262 394.97C269.243 393.724 267.081 391.056 266.38 387.861C264.627 379.837 261.958 372.124 258.491 364.859C257.089 361.898 257.167 358.47 258.784 355.627L264.744 345.109C267.256 340.688 266.691 335.137 263.322 331.319L253.272 319.906C249.902 316.088 244.487 314.822 239.774 316.77L228.594 321.367C225.575 322.613 222.147 322.262 219.401 320.49C212.623 316.147 205.299 312.543 197.567 309.778C194.49 308.687 192.113 306.194 191.257 303.039L188.043 291.391C186.679 286.483 182.375 282.977 177.291 282.646L162.119 281.692C157.035 281.38 152.302 284.321 150.355 289.015L145.719 300.156C144.473 303.175 141.804 305.337 138.61 306.038C130.585 307.791 122.872 310.459 115.607 313.926C112.647 315.329 109.219 315.251 106.375 313.634L95.8577 307.674C91.4364 305.162 85.8854 305.726 82.0679 309.096L70.6543 319.146C66.8368 322.516 65.5708 327.93 67.5185 332.644L72.1151 343.824C73.3617 346.843 73.0111 350.271 71.2387 353.017C66.8953 359.795 63.292 367.118 60.5263 374.851C59.4355 377.928 56.9425 380.304 53.7872 381.161L42.1399 384.375C37.2122 385.719 33.7063 390.043 33.3947 395.126ZM74.2771 396.373C82.2432 348.148 127.8 315.523 176.006 323.47C224.231 331.436 256.855 376.993 248.909 425.199C240.943 473.424 195.386 506.048 147.18 498.102C98.9351 490.136 66.3109 444.598 74.2771 396.373Z" fill="url(#paint11_linear_293_996)"/>
<path d="M216.713 457.161C221.855 461.309 228.049 462.887 235.294 459.147L238.586 466.588C238.586 466.588 235.294 483.065 218.758 484.546C217.122 484.701 215.486 484.604 213.889 484.37C206.215 472.45 211.902 462.556 216.713 457.161Z" fill="url(#paint12_linear_293_996)"/>
<path d="M189.504 467.932L197.392 420.914C197.704 421.401 204.092 447.013 216.713 457.18C211.902 462.556 206.215 472.45 213.889 484.409C200.528 482.325 189.504 467.932 189.504 467.932Z" fill="url(#paint13_linear_293_996)"/>
<path d="M128.384 397.132C128.384 397.132 157.464 387.433 194.977 392.809C198.892 393.373 209.02 414.506 207.52 429.192C204.968 454.064 191.393 495.784 190.906 495.92C175.266 500.069 123.71 496.563 123.71 496.563L128.384 397.132Z" fill="url(#paint14_linear_293_996)"/>
<path d="M157.055 366.612L158.671 391.796C158.827 394.133 160.346 396.12 162.469 396.762C167.358 398.204 176.61 399.957 185.686 396.314C187.342 395.652 188.199 393.685 187.634 391.893L175.636 353.367L157.055 366.612Z" fill="url(#paint15_linear_293_996)"/>
<path d="M173.785 327.891C173.785 327.891 187.302 341.525 191.12 349.939C194.937 358.353 198.969 363.223 189.679 368.832C180.388 374.442 170.085 372.728 162.216 365.911C162.216 365.911 149.965 355.451 149.458 349.433C148.952 343.415 173.785 327.891 173.785 327.891Z" fill="url(#paint16_linear_293_996)"/>
<path d="M163.229 358.431L164.495 357.944C164.495 357.944 155.185 349.316 159.002 345.693C162.839 342.051 179.453 331.358 180.856 323.451C182.219 315.816 175.772 309.135 169.89 308.862C169.52 308.843 169.208 309.135 169.15 309.505L169.033 310.459C168.955 311.102 168.137 311.336 167.728 310.81C167.358 310.323 166.559 310.479 166.443 311.102C165.995 313.478 163.969 317.841 155.944 322.808C144.55 329.839 138.357 337.961 141.453 346.531C141.648 347.076 141.181 347.602 140.616 347.485C139.486 347.291 137.948 347.583 136.643 349.978C134.364 354.127 138.61 360.944 148.348 364.119C148.816 364.275 149.03 364.82 148.738 365.209C147.745 366.612 146.537 369.455 152.789 370.215C159.178 370.994 162.196 369.455 163.268 368.696C163.56 368.482 163.657 368.112 163.501 367.8L160.112 360.457C159.937 360.087 160.112 359.619 160.502 359.483L163.229 358.431Z" fill="url(#paint17_linear_293_996)"/>
<path d="M164.144 359.892C164.144 359.892 157.347 350.465 153.802 355.237C150.237 360.009 160.794 366.027 164.728 364.956L164.144 359.892Z" fill="url(#paint18_linear_293_996)"/>
<path d="M128.618 469.568C127.04 458.466 138.551 442.124 143.304 435.931C144.667 434.158 145.427 431.996 145.446 429.757C145.582 414.019 138.98 403.93 128.404 397.132C128.404 397.132 89.9949 441.891 99.7724 476.307C100.824 480.027 102.46 483.221 104.544 485.948C106.063 472.996 121.061 470.172 128.618 469.568Z" fill="url(#paint19_linear_293_996)"/>
<path d="M129.339 465.263L127.878 465.088C129.124 454.2 138.668 440.742 142.739 435.463L143.908 436.359C139.915 441.56 130.527 454.746 129.339 465.263Z" fill="#7D97F4"/>
<path d="M128.91 471.106C128.774 470.6 128.676 470.094 128.618 469.568C121.061 470.172 106.063 472.996 104.525 485.967C121.664 508.639 168.916 500.458 168.916 500.458V491.635C168.916 491.635 132.63 484.896 128.91 471.106Z" fill="url(#paint20_linear_293_996)"/>
<path d="M164.378 500.419C164.378 500.419 166.949 482.793 183.641 489.804C196.204 495.063 194.977 499.465 194.977 499.465L164.378 500.419Z" fill="url(#paint21_linear_293_996)"/>
<path d="M244.448 421.985L236.034 473.229C235.878 474.125 235.235 474.865 234.378 475.099C231.184 475.995 223.082 477.729 215.115 475.002C214.025 474.632 213.226 473.658 213.031 472.509L204.13 420.855L244.448 421.985Z" fill="#91B3FA"/>
<path d="M244.449 418.538L242.52 414.253C242.326 413.844 241.936 413.552 241.488 413.513C237.748 413.201 220.57 411.857 209.312 413.415C208.63 413.513 208.065 413.961 207.793 414.584L206.293 418.168L244.449 418.538Z" fill="#7D97F4"/>
<path d="M245.948 418.635L246.299 422.161C246.396 423.037 245.753 423.797 244.877 423.855C238.372 424.303 213.441 425.744 203.313 422.511C202.592 422.277 202.164 421.498 202.359 420.758L202.826 418.947C203.099 417.934 203.995 417.233 205.046 417.233L244.526 417.35C245.286 417.369 245.89 417.915 245.948 418.635Z" fill="#91B3FA"/>
<path d="M242.383 434.567C242.383 434.567 219.303 438.268 206.487 434.567L206.292 433.438L205.611 434.158C205.28 434.509 205.143 434.996 205.221 435.463L208.98 455.914C208.98 455.914 225.146 459.79 239.715 456.167L243.357 435.463C243.474 434.898 243.338 434.295 242.987 433.847L242.578 433.301L242.383 434.567Z" fill="#7D97F4"/>
<path d="M227.387 456.986C227.153 456.986 226.958 456.771 226.958 456.538L227.309 437.84C227.309 437.606 227.523 437.392 227.757 437.411C227.99 437.411 228.185 437.606 228.185 437.859L227.834 456.557C227.834 456.791 227.64 456.986 227.387 456.986ZM222.965 456.927C222.732 456.927 222.537 456.713 222.537 456.479L222.887 437.976C222.887 437.742 223.102 437.528 223.335 437.547C223.569 437.547 223.764 437.762 223.764 437.995L223.413 456.499C223.413 456.732 223.218 456.927 222.965 456.927ZM231.808 456.732C231.574 456.732 231.379 456.518 231.379 456.284L231.73 437.547C231.73 437.314 231.925 437.08 232.178 437.119C232.412 437.119 232.606 437.314 232.606 437.567L232.256 456.304C232.256 456.538 232.061 456.732 231.808 456.732ZM217.726 456.615C217.492 456.615 217.297 456.401 217.297 456.167L217.629 437.956C217.629 437.723 217.843 437.567 218.076 437.528C218.31 437.528 218.505 437.742 218.505 437.976L218.174 456.187C218.154 456.421 217.96 456.615 217.726 456.615ZM235.294 456.304C235.061 456.304 234.866 456.09 234.866 455.856L235.275 437.197C235.275 436.963 235.45 436.768 235.723 436.768C235.956 436.768 236.151 436.983 236.151 437.216L235.742 455.875C235.742 456.129 235.547 456.304 235.294 456.304ZM212.662 455.564L211.337 437.489C211.318 437.255 211.493 437.041 211.746 437.022C212 437.002 212.194 437.177 212.214 437.431L213.538 455.505C213.558 455.739 213.382 455.953 213.129 455.973C213.11 455.973 213.11 455.973 213.09 455.973C212.857 455.973 212.662 455.778 212.662 455.564ZM237.885 455.836C237.651 455.817 237.456 455.603 237.495 455.369L239.073 436.71C239.092 436.476 239.307 436.301 239.54 436.301C239.774 436.32 239.969 436.535 239.93 436.768L238.352 455.427C238.333 455.661 238.138 455.836 237.924 455.836C237.924 455.836 237.904 455.836 237.885 455.836ZM209.214 454.96L206.936 436.671C206.897 436.437 207.072 436.203 207.325 436.184C207.559 436.145 207.793 436.32 207.812 436.574L210.091 454.863C210.13 455.096 209.955 455.33 209.701 455.349C209.682 455.349 209.662 455.349 209.643 455.349C209.429 455.33 209.253 455.174 209.214 454.96Z" fill="white"/>
<path d="M243.397 446.585C243.397 446.585 236.288 442.202 231.574 445.514C227.095 448.669 234.399 467.698 237.028 469.568C239.677 471.438 248.656 456.654 243.397 446.585Z" fill="url(#paint22_linear_293_996)"/>
<path d="M288.641 222.735C342.641 222.735 386.416 178.959 386.416 124.96C386.416 70.9601 342.641 27.1847 288.641 27.1847C234.642 27.1847 190.866 70.9601 190.866 124.96C190.866 178.959 234.642 222.735 288.641 222.735Z" fill="white"/>
<path d="M401.2 99.6199L390.234 96.601C387.273 95.7829 384.917 93.543 383.884 90.641C381.294 83.3565 377.885 76.4616 373.795 70.0732C372.14 67.4827 371.809 64.2495 372.977 61.4058L377.321 50.8687C379.151 46.428 377.963 41.325 374.36 38.1502L363.609 28.6649C360.005 25.4901 354.786 24.9447 350.618 27.3209L340.723 32.9498C338.035 34.469 334.802 34.5469 332.017 33.2225C325.161 29.9698 317.896 27.4573 310.339 25.7822C307.339 25.12 304.827 23.0749 303.639 20.2313L299.256 9.73312C297.406 5.31182 292.965 2.52659 288.174 2.83822L273.878 3.73417C269.086 4.02633 265.016 7.33744 263.73 11.973L260.711 22.9386C259.893 25.8991 257.653 28.2558 254.751 29.2881C247.467 31.8786 240.572 35.2871 234.183 39.3773C231.593 41.0328 228.36 41.3639 225.516 40.1953L214.979 35.8519C210.538 34.021 205.435 35.2092 202.26 38.8124L192.775 49.5638C189.6 53.167 189.055 58.3869 191.431 62.555L197.06 72.4494C198.579 75.1372 198.657 78.3704 197.333 81.1556C194.08 88.0116 191.568 95.2765 189.893 102.834C189.23 105.833 187.185 108.346 184.342 109.534L173.843 113.916C169.422 115.766 166.637 120.207 166.949 124.999L167.844 139.295C168.137 144.086 171.448 148.157 176.083 149.442L187.049 152.461C190.009 153.279 192.366 155.519 193.398 158.421C195.989 165.706 199.397 172.601 203.488 178.989C205.143 181.579 205.474 184.813 204.306 187.656L199.962 198.193C198.131 202.634 199.319 207.737 202.923 210.912L213.674 220.397C217.277 223.572 222.497 224.117 226.665 221.741L236.56 216.112C239.247 214.593 242.481 214.515 245.266 215.84C252.122 219.092 259.387 221.605 266.944 223.28C269.943 223.942 272.456 225.987 273.644 228.831L278.026 239.329C279.877 243.75 284.317 246.536 289.109 246.224L303.405 245.328C308.196 245.036 312.267 241.725 313.553 237.089L316.572 226.124C317.39 223.163 319.629 220.806 322.532 219.774C329.816 217.184 336.711 213.775 343.099 209.685C345.69 208.029 348.923 207.698 351.767 208.867L362.304 213.21C366.745 215.041 371.848 213.853 375.022 210.25L384.508 199.498C387.682 195.895 388.228 190.675 385.852 186.507L380.223 176.613C378.703 173.925 378.626 170.692 379.95 167.907C383.203 161.051 385.715 153.786 387.39 146.229C388.052 143.229 390.098 140.717 392.941 139.528L403.439 135.146C407.861 133.296 410.646 128.855 410.334 124.064L409.438 109.767C409.127 104.957 405.835 100.886 401.2 99.6199ZM302.236 206.783C256.796 214.282 213.888 183.547 206.37 138.107C198.871 92.6666 229.606 49.7585 275.046 42.2404C320.486 34.7417 363.394 65.4765 370.913 110.917C378.411 156.357 347.676 199.284 302.236 206.783Z" fill="#7D97F4"/>
<path d="M299.841 108.56C299.841 108.56 335.874 173.73 387.507 178.444L390.254 186.215C390.254 186.215 319.104 200.102 282.662 141.496L299.841 108.56Z" fill="url(#paint23_linear_293_996)"/>
<path d="M386.475 182.962C384.878 179.71 387.137 175.795 390.76 175.736C390.935 175.736 391.13 175.736 391.305 175.736C397.382 175.97 403.537 175.035 405.816 173.477C406.575 172.951 407.647 173.107 408.114 173.886C408.737 174.899 408.25 176.632 402.485 179.145C402.485 179.145 415.223 184.111 425.488 179.242C435.479 174.49 421.047 199.654 390.624 187.578C389.085 186.975 387.858 185.806 387.118 184.326L386.475 182.962Z" fill="url(#paint24_linear_293_996)"/>
<path d="M287.941 214.729C287.941 214.729 321.344 123.207 295.05 102.425C295.05 102.425 255.628 96.0555 226.978 106.943L230.25 190.87C230.23 190.851 251.265 227.838 287.941 214.729Z" fill="url(#paint25_linear_293_996)"/>
<path d="M287.239 83.0643C287.239 83.0643 282.116 95.5102 280.812 105.288C280.422 108.151 278.202 110.41 275.358 110.897C269.242 111.91 259.095 112.475 252.92 106.846C251.557 105.599 251.089 103.632 251.713 101.879C254.264 94.7701 267.47 65.1259 274.676 60.5878L287.239 83.0643Z" fill="url(#paint26_linear_293_996)"/>
<path d="M235.119 174.529C235.119 174.587 235.119 174.646 235.119 174.685C235.002 190.169 255.94 191.649 255.94 191.649C255.94 191.649 261.92 181.696 269.613 181.365C277.287 181.034 287.96 193.558 287.96 193.558L270.918 196.285C270.918 196.285 238.411 215.781 216.129 192.623C220.044 178.19 229.432 175.055 235.119 174.529Z" fill="url(#paint27_linear_293_996)"/>
<path d="M226.958 106.924C248.071 114.403 245.013 130.997 245.013 130.997C245.013 130.997 235.275 159.006 235.1 174.529C229.432 175.055 220.044 178.19 216.109 192.623C215.584 192.078 215.058 191.513 214.532 190.909C187.926 160.057 226.958 106.924 226.958 106.924Z" fill="url(#paint28_linear_293_996)"/>
<path d="M235.119 175.347C235.567 175.347 235.937 174.977 235.937 174.529C236.073 162.453 242.091 142.664 244.662 134.698C244.799 134.27 244.565 133.802 244.136 133.666C243.708 133.529 243.241 133.763 243.104 134.192C240.494 142.216 234.437 162.219 234.301 174.509C234.281 174.977 234.651 175.347 235.119 175.347Z" fill="url(#paint29_linear_293_996)"/>
<path d="M310.339 51.7062C310.339 52.3294 296.511 90.8551 296.511 90.8551L274.677 82.4994L282.351 44.0322C282.351 44.0322 310.339 41.3443 310.339 51.7062Z" fill="url(#paint30_linear_293_996)"/>
<path d="M286.187 53.4007L280.559 73.3258C280.481 73.579 280.442 73.8322 280.442 74.1048C280.442 75.7214 280.851 81.3308 286.538 80.5712C291.699 79.8895 296.432 79.3247 299.451 80.7465C300.795 81.3893 301.438 82.928 300.951 84.3498C299.685 87.8557 296.705 95.6855 293.082 102.093C292.342 103.398 290.726 103.905 289.362 103.282C285.252 101.412 276.722 97.2436 270.645 92.277C269.827 91.5953 269.418 90.5435 269.612 89.4917C270.567 84.3887 273.41 68.885 273.547 64.4442C273.664 60.2761 268.989 57.0819 266.925 55.8938C266.243 55.5042 265.775 54.8615 265.581 54.1019C264.938 51.414 264.393 45.3372 272.144 43.9933C273.761 43.7206 274.832 42.1624 274.501 40.5458C273.839 37.3321 274.053 32.5992 280.149 30.8657C286.343 29.0933 290.239 32.8329 292.225 35.696C293.024 36.8452 294.524 37.2347 295.809 36.6504C296.549 36.3193 297.426 36.2998 298.38 37.1178C299.666 38.1891 301.613 37.8775 302.548 36.4751C304.36 33.8067 307.632 31.1579 313.202 32.9498C323.058 36.144 322.59 47.5186 318.987 53.6929C315.364 59.8671 304.866 55.8159 299.899 51.7062C296.121 48.5899 290.375 50.4597 287.823 51.5309C287.025 51.8815 286.421 52.5632 286.187 53.4007Z" fill="url(#paint31_linear_293_996)"/>
<path d="M272.67 71.865C272.67 71.865 277.403 60.6852 273.547 57.2182C269.69 53.7513 264.295 54.9394 264.47 63.5678C264.704 74.2997 272.67 71.865 272.67 71.865Z" fill="url(#paint32_linear_293_996)"/>
<defs>
<linearGradient id="paint0_linear_293_996" x1="334.428" y1="178.44" x2="202.195" y2="415.412" gradientUnits="userSpaceOnUse">
<stop stop-color="#DAE3FE"/>
<stop offset="1" stop-color="#E9EFFD"/>
</linearGradient>
<linearGradient id="paint1_linear_293_996" x1="125.539" y1="256.052" x2="418.395" y2="256.052" gradientUnits="userSpaceOnUse">
<stop stop-color="#FF928E"/>
<stop offset="1" stop-color="#FE7062"/>
</linearGradient>
<linearGradient id="paint2_linear_293_996" x1="493.895" y1="268.765" x2="318.457" y2="517.52" gradientUnits="userSpaceOnUse">
<stop stop-color="#E1473D"/>
<stop offset="1" stop-color="#E9605A"/>
</linearGradient>
<linearGradient id="paint3_linear_293_996" x1="305.588" y1="300.595" x2="395.701" y2="411.376" gradientUnits="userSpaceOnUse">
<stop stop-color="#FEBBBA"/>
<stop offset="1" stop-color="#FF928E"/>
</linearGradient>
<linearGradient id="paint4_linear_293_996" x1="512.407" y1="263.354" x2="442.998" y2="323.393" gradientUnits="userSpaceOnUse">
<stop stop-color="#09005D"/>
<stop offset="1" stop-color="#1A0F91"/>
</linearGradient>
<linearGradient id="paint5_linear_293_996" x1="443.872" y1="369.745" x2="393.796" y2="487.57" gradientUnits="userSpaceOnUse">
<stop stop-color="#4F52FF"/>
<stop offset="1" stop-color="#4042E2"/>
</linearGradient>
<linearGradient id="paint6_linear_293_996" x1="408.417" y1="372.137" x2="418.552" y2="339.138" gradientUnits="userSpaceOnUse">
<stop stop-color="#FEBBBA"/>
<stop offset="1" stop-color="#FF928E"/>
</linearGradient>
<linearGradient id="paint7_linear_293_996" x1="398.15" y1="296.332" x2="434.458" y2="354.528" gradientUnits="userSpaceOnUse">
<stop stop-color="#FEBBBA"/>
<stop offset="1" stop-color="#FF928E"/>
</linearGradient>
<linearGradient id="paint8_linear_293_996" x1="488.206" y1="235.377" x2="418.798" y2="295.417" gradientUnits="userSpaceOnUse">
<stop stop-color="#09005D"/>
<stop offset="1" stop-color="#1A0F91"/>
</linearGradient>
<linearGradient id="paint9_linear_293_996" x1="410.797" y1="288.442" x2="447.104" y2="346.638" gradientUnits="userSpaceOnUse">
<stop stop-color="#FEBBBA"/>
<stop offset="1" stop-color="#FF928E"/>
</linearGradient>
<linearGradient id="paint10_linear_293_996" x1="489.479" y1="460.644" x2="311.32" y2="256.857" gradientUnits="userSpaceOnUse">
<stop stop-color="#FEBBBA"/>
<stop offset="1" stop-color="#FF928E"/>
</linearGradient>
<linearGradient id="paint11_linear_293_996" x1="521.066" y1="226.816" x2="-231.221" y2="611.83" gradientUnits="userSpaceOnUse">
<stop stop-color="#FF928E"/>
<stop offset="1" stop-color="#FE7062"/>
</linearGradient>
<linearGradient id="paint12_linear_293_996" x1="238.576" y1="470.909" x2="189.497" y2="470.909" gradientUnits="userSpaceOnUse">
<stop stop-color="#A22B25"/>
<stop offset="1" stop-color="#C0423C"/>
</linearGradient>
<linearGradient id="paint13_linear_293_996" x1="251.557" y1="356.367" x2="231.264" y2="398.917" gradientUnits="userSpaceOnUse">
<stop stop-color="#4F52FF"/>
<stop offset="1" stop-color="#4042E2"/>
</linearGradient>
<linearGradient id="paint14_linear_293_996" x1="140.89" y1="484.395" x2="262.661" y2="238.889" gradientUnits="userSpaceOnUse">
<stop stop-color="#4F52FF"/>
<stop offset="1" stop-color="#4042E2"/>
</linearGradient>
<linearGradient id="paint15_linear_293_996" x1="172.285" y1="370.157" x2="171.548" y2="320.049" gradientUnits="userSpaceOnUse">
<stop stop-color="#A22B25"/>
<stop offset="1" stop-color="#C0423C"/>
</linearGradient>
<linearGradient id="paint16_linear_293_996" x1="-4293.06" y1="-2707.2" x2="-4243.32" y2="-2673.14" gradientUnits="userSpaceOnUse">
<stop stop-color="#A22B25"/>
<stop offset="1" stop-color="#C0423C"/>
</linearGradient>
<linearGradient id="paint17_linear_293_996" x1="142.632" y1="328.235" x2="198.08" y2="361.473" gradientUnits="userSpaceOnUse">
<stop stop-color="#09005D"/>
<stop offset="1" stop-color="#1A0F91"/>
</linearGradient>
<linearGradient id="paint18_linear_293_996" x1="-4301.72" y1="-2694.55" x2="-4251.98" y2="-2660.49" gradientUnits="userSpaceOnUse">
<stop stop-color="#A22B25"/>
<stop offset="1" stop-color="#C0423C"/>
</linearGradient>
<linearGradient id="paint19_linear_293_996" x1="108.685" y1="468.422" x2="230.456" y2="222.915" gradientUnits="userSpaceOnUse">
<stop stop-color="#4F52FF"/>
<stop offset="1" stop-color="#4042E2"/>
</linearGradient>
<linearGradient id="paint20_linear_293_996" x1="124.575" y1="456.835" x2="152.577" y2="530.524" gradientUnits="userSpaceOnUse">
<stop stop-color="#A22B25"/>
<stop offset="1" stop-color="#C0423C"/>
</linearGradient>
<linearGradient id="paint21_linear_293_996" x1="157.833" y1="441.977" x2="187.765" y2="520.743" gradientUnits="userSpaceOnUse">
<stop stop-color="#A22B25"/>
<stop offset="1" stop-color="#C0423C"/>
</linearGradient>
<linearGradient id="paint22_linear_293_996" x1="245.024" y1="457.003" x2="230.166" y2="457.003" gradientUnits="userSpaceOnUse">
<stop stop-color="#A22B25"/>
<stop offset="1" stop-color="#C0423C"/>
</linearGradient>
<linearGradient id="paint23_linear_293_996" x1="396.276" y1="113.993" x2="279.754" y2="189.928" gradientUnits="userSpaceOnUse">
<stop stop-color="#FF928E"/>
<stop offset="1" stop-color="#FE7062"/>
</linearGradient>
<linearGradient id="paint24_linear_293_996" x1="386.219" y1="183.927" x2="428.696" y2="180.093" gradientUnits="userSpaceOnUse">
<stop stop-color="#FEBBBA"/>
<stop offset="1" stop-color="#FF928E"/>
</linearGradient>
<linearGradient id="paint25_linear_293_996" x1="376.317" y1="83.3664" x2="259.796" y2="159.302" gradientUnits="userSpaceOnUse">
<stop stop-color="#FF928E"/>
<stop offset="1" stop-color="#FE7062"/>
</linearGradient>
<linearGradient id="paint26_linear_293_996" x1="287.241" y1="86.0648" x2="251.435" y2="86.0648" gradientUnits="userSpaceOnUse">
<stop stop-color="#FEBBBA"/>
<stop offset="1" stop-color="#FF928E"/>
</linearGradient>
<linearGradient id="paint27_linear_293_996" x1="287.941" y1="189.244" x2="216.114" y2="189.244" gradientUnits="userSpaceOnUse">
<stop stop-color="#FEBBBA"/>
<stop offset="1" stop-color="#FF928E"/>
</linearGradient>
<linearGradient id="paint28_linear_293_996" x1="360.556" y1="59.1805" x2="244.034" y2="135.116" gradientUnits="userSpaceOnUse">
<stop stop-color="#FF928E"/>
<stop offset="1" stop-color="#FE7062"/>
</linearGradient>
<linearGradient id="paint29_linear_293_996" x1="252.779" y1="150.795" x2="158.333" y2="177.076" gradientUnits="userSpaceOnUse">
<stop stop-color="#E1473D"/>
<stop offset="1" stop-color="#E9605A"/>
</linearGradient>
<linearGradient id="paint30_linear_293_996" x1="301.116" y1="51.9834" x2="254.151" y2="114.115" gradientUnits="userSpaceOnUse">
<stop stop-color="#FEBBBA"/>
<stop offset="1" stop-color="#FF928E"/>
</linearGradient>
<linearGradient id="paint31_linear_293_996" x1="285.836" y1="19.5139" x2="311.923" y2="147.504" gradientUnits="userSpaceOnUse">
<stop stop-color="#09005D"/>
<stop offset="1" stop-color="#1A0F91"/>
</linearGradient>
<linearGradient id="paint32_linear_293_996" x1="234.226" y1="100.498" x2="270.761" y2="63.0144" gradientUnits="userSpaceOnUse">
<stop stop-color="#FEBBBA"/>
<stop offset="1" stop-color="#FF928E"/>
</linearGradient>
</defs>
</svg>
