<svg width="554" height="540" viewBox="0 0 554 540" fill="none" xmlns="http://www.w3.org/2000/svg">
<path d="M491.421 452.268C481.292 462.931 471.713 469.809 464.142 475.229C375.159 539.065 269.88 520.458 247.506 515.909C214.468 509.191 150.597 496.218 104.426 441.925C34.5659 359.785 45.4422 230.354 99.6279 144.908C109.544 129.287 161.9 42.5432 268.316 28.628C332.721 20.2043 407.788 37.194 462.151 82.7427C576.281 178.336 568.159 371.496 491.421 452.268Z" fill="url(#paint0_linear_293_865)"/>
<path d="M405 405C479.558 330.442 479.559 209.558 405 135C330.442 60.4415 209.558 60.4416 135 135C60.4416 209.558 60.4416 330.442 135 405C209.558 479.558 330.442 479.558 405 405Z" fill="#BDD0FB"/>
<path d="M270.004 432.951C359.998 432.951 432.952 359.996 432.952 270.002C432.952 180.009 359.998 107.054 270.004 107.054C180.01 107.054 107.056 180.009 107.056 270.002C107.056 359.996 180.01 432.951 270.004 432.951Z" fill="url(#paint1_linear_293_865)"/>
<path d="M270.004 441.108C175.655 441.108 98.8989 364.352 98.8989 270.002C98.8989 175.653 175.655 98.897 270.004 98.897C364.354 98.897 441.11 175.653 441.11 270.002C441.11 364.352 364.354 441.108 270.004 441.108ZM270.004 107.054C180.151 107.054 107.056 180.149 107.056 270.002C107.056 359.856 180.151 432.95 270.004 432.95C359.858 432.95 432.952 359.856 432.952 270.002C432.935 180.149 359.84 107.054 270.004 107.054Z" fill="white"/>
<path d="M270.005 369.346C324.871 369.346 369.349 324.868 369.349 270.002C369.349 215.136 324.871 170.659 270.005 170.659C215.139 170.659 170.662 215.136 170.662 270.002C170.662 324.868 215.139 369.346 270.005 369.346Z" fill="url(#paint2_linear_293_865)"/>
<path d="M270.005 377.503C210.736 377.503 162.504 329.271 162.504 270.002C162.504 210.734 210.736 162.502 270.005 162.502C329.273 162.502 377.505 210.716 377.505 270.002C377.505 329.289 329.273 377.503 270.005 377.503ZM270.005 178.834C219.729 178.834 178.836 219.726 178.836 270.002C178.836 320.278 219.729 361.171 270.005 361.171C320.28 361.171 361.173 320.261 361.173 270.002C361.173 219.744 320.28 178.834 270.005 178.834Z" fill="white"/>
<path d="M270.004 308.496C291.263 308.496 308.497 291.262 308.497 270.002C308.497 248.743 291.263 231.509 270.004 231.509C248.745 231.509 231.511 248.743 231.511 270.002C231.511 291.262 248.745 308.496 270.004 308.496Z" fill="url(#paint3_linear_293_865)"/>
<path d="M270.005 316.653C244.289 316.653 223.354 295.736 223.354 270.002C223.354 244.269 244.271 223.352 270.005 223.352C295.72 223.352 316.655 244.269 316.655 270.002C316.655 295.736 295.72 316.653 270.005 316.653ZM270.005 239.684C253.281 239.684 239.686 253.279 239.686 270.002C239.686 286.725 253.281 300.321 270.005 300.321C286.728 300.321 300.323 286.725 300.323 270.002C300.323 253.279 286.728 239.684 270.005 239.684Z" fill="white"/>
<path d="M452.163 88.3229L456.233 92.3748L302.721 245.886L298.669 241.816L452.163 88.3229Z" fill="url(#paint4_linear_293_865)"/>
<path d="M301.549 232.042C303.877 229.714 314.842 240.679 312.514 243.007L271.835 274.978C270.324 276.151 268.387 274.214 269.56 272.704L301.549 232.042Z" fill="url(#paint5_linear_293_865)"/>
<path d="M456.144 92.4639L476.795 94.5076L448.431 122.871C439.137 132.166 426.181 136.786 413.101 135.489L456.144 92.4639Z" fill="#91B3FA"/>
<path d="M452.092 88.4119L450.049 67.7612L421.703 96.107C412.408 105.402 407.788 118.357 409.085 131.437L452.092 88.4119Z" fill="#91B3FA"/>
<g opacity="0.3">
<path d="M168.688 59.835C168.12 60.4037 167.178 60.4037 166.591 59.835C165.472 58.7154 164.281 57.6313 163.073 56.6005C162.451 56.0852 162.38 55.161 162.877 54.539L162.895 54.5213C163.428 53.8992 164.352 53.8104 164.974 54.3435C166.254 55.4276 167.498 56.565 168.688 57.7557C169.222 58.2888 169.257 59.1419 168.795 59.7283C168.76 59.7461 168.724 59.7817 168.688 59.835ZM156.799 51.9977C155.449 51.1446 154.062 50.3449 152.658 49.6163C151.93 49.2431 151.645 48.3545 152.019 47.6259C152.392 46.8972 153.28 46.6129 154.009 47.0038C155.484 47.768 156.959 48.6211 158.381 49.5097C159.074 49.9539 159.269 50.8603 158.843 51.5534C158.807 51.6067 158.772 51.6422 158.736 51.6956C158.274 52.2465 157.439 52.4064 156.799 51.9977ZM145.514 46.524C144.021 45.9909 142.475 45.5288 140.947 45.1201C140.165 44.9246 139.685 44.1071 139.881 43.3251C140.094 42.5432 140.894 42.0633 141.676 42.2588C143.293 42.6853 144.91 43.1652 146.492 43.7339C147.256 44.0004 147.665 44.8535 147.398 45.6177C147.345 45.7776 147.256 45.9375 147.149 46.062C146.776 46.5418 146.118 46.7373 145.514 46.524ZM133.305 43.7161C131.723 43.5384 130.124 43.414 128.525 43.3784C127.707 43.3607 127.067 42.6676 127.085 41.8678C127.103 41.0504 127.796 40.4106 128.596 40.4283C130.266 40.4817 131.954 40.5883 133.625 40.7838C134.443 40.8726 135.011 41.6013 134.922 42.4188C134.887 42.7031 134.78 42.9697 134.602 43.1829C134.318 43.5561 133.821 43.7694 133.305 43.7161ZM120.758 43.6983C119.177 43.876 117.595 44.1248 116.031 44.427C115.231 44.5869 114.449 44.0715 114.289 43.2718C114.13 42.4721 114.645 41.6901 115.445 41.5302C117.08 41.2103 118.768 40.9437 120.421 40.766C121.238 40.6771 121.967 41.2636 122.056 42.0633C122.109 42.4721 121.967 42.8631 121.736 43.1474C121.505 43.4495 121.167 43.645 120.758 43.6983ZM108.531 46.4529C107.039 46.9683 105.528 47.5548 104.089 48.2123C103.342 48.55 102.471 48.2123 102.134 47.4659C101.796 46.7195 102.134 45.8487 102.88 45.511C104.408 44.8357 105.99 44.2137 107.572 43.6628C108.336 43.3962 109.189 43.805 109.456 44.5691C109.633 45.0667 109.509 45.5999 109.207 45.9909C109.029 46.1864 108.798 46.3641 108.531 46.4529ZM70.8556 86.3147C70.0737 86.1014 69.5938 85.3017 69.8071 84.5198C70.2336 82.9026 70.7312 81.2853 71.2821 79.7037C71.5487 78.9395 72.4017 78.5307 73.1659 78.7973C73.9301 79.0639 74.3389 79.9169 74.0723 80.6811C73.5391 82.1739 73.0593 83.72 72.6683 85.2484C72.615 85.4617 72.5084 85.6394 72.384 85.7993C72.0108 86.2614 71.4243 86.4747 70.8556 86.3147ZM97.211 51.8377C95.8603 52.673 94.5274 53.5794 93.2656 54.539C92.6081 55.0366 91.684 54.8945 91.2041 54.2369C90.7065 53.5794 90.8487 52.6552 91.5063 52.1754C92.8391 51.1802 94.2431 50.2205 95.6648 49.3319C96.3579 48.9054 97.2643 49.1187 97.7086 49.8118C98.0462 50.3627 97.9929 51.0558 97.6019 51.5178C97.4775 51.6422 97.3531 51.7489 97.211 51.8377ZM75.1741 74.1944C74.4455 73.8212 74.1789 72.9327 74.5521 72.204C75.3163 70.729 76.1693 69.2539 77.0757 67.8322C77.5022 67.1391 78.4263 66.9436 79.1194 67.3701C79.8125 67.8144 80.008 68.7208 79.5815 69.4139C78.7284 70.7645 77.9287 72.1507 77.1823 73.5547C77.129 73.6435 77.0757 73.7324 77.0224 73.8035C76.5603 74.3366 75.7961 74.5143 75.1741 74.1944ZM87.401 59.6217C86.2814 60.7413 85.1796 61.932 84.1488 63.1405C83.6157 63.7625 82.6915 63.8336 82.0695 63.3182C81.4475 62.8028 81.3764 61.8787 81.874 61.2567L81.8918 61.2389C82.9759 59.9594 84.1133 58.7154 85.304 57.5424C85.8904 56.9737 86.8145 56.9737 87.401 57.5424C87.9342 58.0756 87.9697 58.9286 87.5076 59.5151C87.4721 59.5506 87.4366 59.5862 87.401 59.6217Z" fill="#91B3FA"/>
<path d="M70.6774 96.0536C70.8551 95.8226 70.9795 95.5382 70.9973 95.2361C71.0506 94.4719 71.1217 93.7077 71.2106 92.9436C71.2994 92.1261 70.7307 91.3974 69.9132 91.3086C69.0957 91.2197 68.3671 91.7884 68.2782 92.6059C68.1894 93.4056 68.1183 94.2231 68.0472 95.0228C67.9939 95.8403 68.5981 96.5512 69.4156 96.6045C69.9132 96.6401 70.3753 96.409 70.6774 96.0536Z" fill="#91B3FA"/>
</g>
<g opacity="0.3">
<path d="M85.1616 138.688C85.6059 138.137 85.6059 137.319 85.1083 136.768C84.5929 136.2 84.0953 135.613 83.6155 135.027C83.1001 134.405 82.1582 134.316 81.5362 134.831C80.8964 135.347 80.8253 136.288 81.3407 136.91C81.8561 137.532 82.3892 138.154 82.9224 138.741C83.4733 139.345 84.3974 139.398 85.0017 138.848C85.055 138.812 85.1083 138.759 85.1616 138.688Z" fill="#91B3FA"/>
<path d="M170.803 138.83C170.252 139.434 169.328 139.487 168.724 138.937C168.119 138.386 168.066 137.462 168.617 136.857C169.648 135.702 170.661 134.476 171.603 133.214C172.082 132.557 173.024 132.432 173.664 132.93C174.322 133.427 174.446 134.351 173.948 134.991C173.54 135.542 173.113 136.075 172.687 136.608C172.082 137.373 171.443 138.101 170.803 138.83ZM176.348 128.825C175.637 128.434 175.388 127.527 175.779 126.816C176.543 125.448 177.272 124.044 177.912 122.622C178.249 121.876 179.12 121.556 179.866 121.894C180.613 122.231 180.933 123.102 180.595 123.848C179.92 125.341 179.156 126.834 178.356 128.274C178.32 128.345 178.267 128.416 178.214 128.487C177.787 129.02 176.987 129.18 176.348 128.825ZM165.045 144.446C163.783 145.512 162.468 146.525 161.135 147.485C160.478 147.965 159.553 147.805 159.074 147.147C158.594 146.49 158.754 145.565 159.429 145.086C160.709 144.179 161.953 143.202 163.143 142.189C163.765 141.656 164.689 141.744 165.223 142.366C165.685 142.917 165.685 143.717 165.24 144.25C165.169 144.304 165.116 144.375 165.045 144.446ZM181.608 117.291C180.826 117.06 180.382 116.242 180.613 115.46C181.057 113.967 181.448 112.421 181.768 110.893C181.928 110.093 182.71 109.578 183.51 109.756C184.309 109.915 184.825 110.697 184.647 111.497C184.309 113.114 183.901 114.732 183.421 116.296C183.367 116.491 183.279 116.651 183.154 116.811C182.816 117.255 182.194 117.468 181.608 117.291ZM154.275 151.679C152.818 152.443 151.307 153.154 149.797 153.794C149.05 154.114 148.18 153.758 147.86 153.012C147.54 152.265 147.895 151.394 148.642 151.075C150.081 150.47 151.521 149.795 152.907 149.066C153.635 148.693 154.524 148.96 154.897 149.688C155.182 150.222 155.093 150.861 154.737 151.306C154.613 151.466 154.453 151.59 154.275 151.679ZM142.173 156.406C140.573 156.833 138.956 157.188 137.339 157.49C136.539 157.632 135.775 157.099 135.615 156.299C135.473 155.5 136.006 154.736 136.806 154.576C138.352 154.291 139.898 153.954 141.409 153.545C142.191 153.332 143.008 153.794 143.221 154.593C143.346 155.073 143.221 155.553 142.937 155.908C142.741 156.14 142.493 156.317 142.173 156.406ZM129.342 158.361C127.689 158.432 126.036 158.432 124.383 158.361C123.566 158.325 122.944 157.632 122.962 156.815C122.997 155.997 123.69 155.358 124.508 155.393C126.072 155.464 127.653 155.464 129.217 155.393C130.035 155.358 130.728 155.997 130.763 156.815C130.781 157.188 130.657 157.543 130.443 157.81C130.159 158.13 129.768 158.343 129.342 158.361ZM116.368 157.472C114.751 157.188 113.116 156.815 111.534 156.388C110.753 156.175 110.273 155.358 110.486 154.576C110.699 153.794 111.517 153.314 112.299 153.527C113.809 153.936 115.355 154.274 116.901 154.558C117.701 154.7 118.234 155.464 118.092 156.282C118.039 156.53 117.932 156.762 117.79 156.957C117.452 157.348 116.919 157.579 116.368 157.472ZM103.91 153.758C102.4 153.118 100.889 152.407 99.432 151.626C98.7033 151.252 98.4368 150.346 98.81 149.635C99.1832 148.924 100.09 148.64 100.8 149.013C102.187 149.742 103.608 150.417 105.048 151.039C105.794 151.359 106.15 152.23 105.83 152.976C105.776 153.101 105.705 153.225 105.617 153.332C105.243 153.829 104.532 154.025 103.91 153.758ZM92.5899 147.414C91.6125 146.703 90.635 145.974 89.6931 145.21C89.3554 144.926 89.0178 144.659 88.6801 144.375C88.0581 143.842 87.9693 142.917 88.5024 142.295C89.0356 141.673 89.9597 141.602 90.5817 142.118C90.9016 142.384 91.2215 142.651 91.5414 142.917C92.4299 143.646 93.3541 144.339 94.296 145.014C94.9535 145.494 95.1135 146.418 94.6336 147.076C94.6159 147.094 94.5981 147.129 94.5803 147.147C94.1182 147.734 93.2297 147.876 92.5899 147.414Z" fill="#91B3FA"/>
<path d="M185.447 104.317C185.624 104.086 185.749 103.802 185.767 103.482C185.82 102.682 185.856 101.865 185.891 101.065C185.909 100.248 185.269 99.5722 184.452 99.5544C183.634 99.5367 182.959 100.176 182.941 100.994C182.923 101.758 182.888 102.54 182.834 103.286C182.781 104.104 183.385 104.797 184.203 104.868C184.7 104.886 185.145 104.673 185.447 104.317Z" fill="#91B3FA"/>
</g>
<path d="M168.831 85.1951C168.777 84.9107 168.529 84.6797 168.244 84.6442L159.909 83.5779C158.257 80.0236 156.017 76.7003 153.245 73.7679L155.307 65.6285C155.378 65.3442 155.253 65.0421 155.022 64.8821L146.598 59.3551C146.35 59.1952 146.03 59.213 145.799 59.3907L139.152 64.5267C135.367 63.1405 131.422 62.4119 127.494 62.323L123.193 55.1077C123.051 54.8589 122.749 54.7167 122.465 54.7878L112.601 56.8316C112.317 56.8849 112.086 57.1337 112.05 57.418L110.984 65.7529C107.43 67.4057 104.107 69.6449 101.174 72.4173L93.0348 70.3558C92.7504 70.2847 92.4483 70.3913 92.2884 70.6401L86.7614 79.0639C86.6014 79.3127 86.6192 79.6326 86.7969 79.8636L91.9329 86.5102C90.5467 90.2956 89.8181 94.2409 89.7292 98.1684L82.514 102.469C82.2652 102.611 82.123 102.913 82.1941 103.198L84.2378 113.061C84.2911 113.345 84.5399 113.576 84.8243 113.612L93.1592 114.678C94.8119 118.233 97.0512 121.556 99.8235 124.488L97.762 132.628C97.6909 132.912 97.7976 133.214 98.0464 133.374L106.47 138.901C106.719 139.061 107.039 139.043 107.27 138.865L113.916 133.729C117.702 135.116 121.647 135.844 125.575 135.933L129.875 143.148C130.018 143.397 130.32 143.539 130.604 143.468L140.467 141.425C140.752 141.371 140.983 141.122 141.018 140.838L142.084 132.503C145.639 130.85 148.962 128.611 151.894 125.839L160.034 127.9C160.318 127.971 160.62 127.865 160.78 127.616L166.307 119.192C166.467 118.943 166.449 118.624 166.272 118.393L161.136 111.746C162.522 107.961 163.251 104.015 163.339 100.088L170.555 95.787C170.803 95.6448 170.946 95.3427 170.875 95.0583L168.831 85.1951Z" fill="#91B3FA"/>
<path d="M133.377 106.61C129.272 110.395 122.838 110.111 119.053 106.006C117.222 104.015 116.28 101.421 116.387 98.7193C116.494 96.018 117.667 93.5122 119.657 91.6817C123.762 87.8964 130.196 88.1807 133.981 92.286C137.429 96.0358 137.5 101.687 134.39 105.526C134.088 105.899 133.75 106.272 133.377 106.61ZM118.768 98.8259C118.68 100.905 119.408 102.878 120.812 104.406C123.709 107.552 128.632 107.765 131.795 104.868C134.958 101.972 135.154 97.0488 132.257 93.8854C129.36 90.7398 124.438 90.5266 121.274 93.4234C120.99 93.6899 120.723 93.9743 120.492 94.2586C119.426 95.556 118.84 97.1376 118.768 98.8259Z" fill="#BDD0FB"/>
<path d="M145.638 114.909C146.171 114.252 146.669 113.559 147.149 112.848C147.291 112.617 147.433 112.386 147.575 112.155C148.268 111.017 148.873 109.827 149.37 108.6C149.37 108.583 149.388 108.565 149.388 108.547C149.406 108.494 149.424 108.458 149.441 108.405C149.477 108.316 149.513 108.227 149.548 108.121C149.637 107.872 149.566 107.605 149.37 107.445C149.317 107.41 149.264 107.374 149.21 107.356C148.908 107.232 148.571 107.392 148.446 107.694C147.842 109.258 147.06 110.769 146.136 112.19C141.533 119.228 133.785 122.995 125.947 122.907C121.593 122.853 117.186 121.591 113.276 119.032C112.583 118.588 111.925 118.108 111.303 117.593C107.074 114.163 104.177 109.418 103.057 104.015C101.76 97.813 102.969 91.4685 106.452 86.1726C113.632 75.2252 128.364 72.1685 139.312 79.3305C139.987 79.7748 140.644 80.2546 141.266 80.7522C143.968 82.9381 146.154 85.6927 147.664 88.8205C147.7 88.9094 147.753 88.9627 147.824 89.016C148.002 89.1582 148.233 89.1937 148.446 89.0871C148.748 88.9449 148.855 88.5895 148.713 88.3052C147.131 85.0174 144.821 82.1206 141.995 79.8281C141.338 79.2949 140.662 78.7973 139.951 78.3353C128.471 70.8001 112.992 74.0168 105.457 85.515C101.813 91.0775 100.552 97.7241 101.902 104.246C103.075 109.915 106.114 114.892 110.557 118.499C111.215 119.032 111.908 119.548 112.619 120.01C118.181 123.653 124.845 124.915 131.35 123.564C137.055 122.391 142.031 119.352 145.638 114.909Z" fill="#BDD0FB"/>
<g opacity="0.3">
<path d="M230.782 45.0668C231.031 44.7647 231.066 44.3204 230.817 43.9827C230.373 43.3429 229.911 42.7209 229.431 42.0989C229.129 41.7079 228.543 41.6368 228.152 41.939C227.761 42.2411 227.69 42.8275 227.992 43.2185C228.454 43.805 228.898 44.4092 229.307 45.0135C229.591 45.4222 230.16 45.5288 230.569 45.2445C230.658 45.1912 230.729 45.1379 230.782 45.0668Z" fill="#91B3FA"/>
<path d="M226.215 39.7531C225.86 40.1085 225.291 40.1085 224.918 39.7531C224.011 38.8645 223.052 37.9937 222.074 37.194C221.861 37.0163 221.648 36.8563 221.434 36.6964C221.043 36.3943 220.972 35.8078 221.274 35.4168C221.577 35.0436 222.163 34.9548 222.554 35.2569C222.785 35.4346 222.998 35.6123 223.212 35.79C224.242 36.6253 225.255 37.5316 226.197 38.4735C226.535 38.8112 226.553 39.3266 226.268 39.6998C226.25 39.6998 226.233 39.7353 226.215 39.7531ZM217.613 34.0839C216.298 33.302 214.912 32.5734 213.49 31.9514C213.028 31.7559 212.815 31.2049 213.028 30.7429C213.224 30.2808 213.775 30.0676 214.237 30.2808C215.712 30.9384 217.169 31.6848 218.555 32.5023C218.982 32.7688 219.124 33.3198 218.875 33.7463C218.857 33.7818 218.822 33.8174 218.804 33.8529C218.52 34.2261 218.022 34.315 217.613 34.0839ZM209.154 30.3519C207.679 29.9076 206.169 29.5522 204.64 29.3034C204.143 29.2145 203.805 28.7525 203.894 28.2549C203.983 27.7572 204.445 27.4196 204.942 27.5084C206.542 27.775 208.123 28.1482 209.67 28.6103C210.149 28.7525 210.434 29.2678 210.274 29.7477C210.238 29.8721 210.185 29.9787 210.114 30.0676C209.901 30.3341 209.527 30.4585 209.154 30.3519ZM200.037 28.8235C198.491 28.7525 196.945 28.788 195.399 28.9124C194.901 28.9479 194.457 28.5747 194.421 28.0771C194.386 27.5795 194.759 27.1352 195.257 27.0997C196.856 26.9753 198.491 26.9398 200.108 27.0108C200.606 27.0286 200.997 27.4551 200.979 27.9705C200.961 28.166 200.89 28.3615 200.784 28.5037C200.606 28.6991 200.339 28.8235 200.037 28.8235ZM190.814 29.5522C189.303 29.8543 187.793 30.2631 186.335 30.7607C185.856 30.9206 185.34 30.6718 185.18 30.192C185.02 29.7121 185.269 29.1967 185.749 29.0368C187.277 28.5214 188.859 28.0949 190.441 27.775C190.938 27.6684 191.418 27.9883 191.525 28.4859C191.578 28.7702 191.507 29.0368 191.347 29.2501C191.205 29.3922 191.027 29.5166 190.814 29.5522ZM182.052 32.5023C180.666 33.1776 179.298 33.924 178.018 34.7593C177.592 35.0258 177.023 34.9014 176.756 34.4927C176.49 34.0662 176.597 33.4975 177.023 33.2309C178.374 32.3601 179.795 31.5604 181.253 30.8673C181.715 30.654 182.248 30.8317 182.479 31.2938C182.639 31.6137 182.586 32.0047 182.372 32.2712C182.283 32.3601 182.177 32.449 182.052 32.5023ZM174.286 37.5139C173.113 38.4913 171.976 39.5754 170.927 40.695C170.59 41.0682 170.003 41.086 169.63 40.7305C169.257 40.3929 169.239 39.8242 169.577 39.4332C170.679 38.2425 171.869 37.1229 173.096 36.0921C173.487 35.7723 174.055 35.8256 174.375 36.1988C174.659 36.5364 174.659 37.034 174.393 37.3539C174.375 37.425 174.34 37.4783 174.286 37.5139ZM164.245 48.5501C163.801 48.3013 163.641 47.7503 163.89 47.306C164.565 46.0798 165.312 44.8891 166.129 43.7339C166.253 43.5562 166.378 43.3785 166.502 43.2186C166.787 42.8098 167.373 42.721 167.782 43.0231C168.191 43.3252 168.279 43.8939 167.977 44.3026C167.853 44.4626 167.746 44.6225 167.622 44.8002C166.84 45.9021 166.129 47.0572 165.489 48.2124C165.471 48.2657 165.436 48.3013 165.4 48.3546C165.116 48.6567 164.636 48.7633 164.245 48.5501Z" fill="#91B3FA"/>
</g>
<g opacity="0.3">
<path d="M228.649 91.6107C227.636 92.8369 226.534 94.0099 225.379 95.0939C225.006 95.4316 224.437 95.4138 224.082 95.0584C223.744 94.6852 223.762 94.1165 224.118 93.7611C225.219 92.7303 226.268 91.6107 227.245 90.4378C227.565 90.0468 228.152 89.9935 228.525 90.3134C228.916 90.651 228.969 91.2197 228.649 91.6107ZM230.213 88.0208C229.787 87.7543 229.662 87.1856 229.947 86.759C230.764 85.4795 231.528 84.1466 232.186 82.796C232.399 82.3517 232.95 82.1562 233.412 82.3694C233.856 82.5827 234.052 83.1336 233.839 83.5957C233.146 85.0174 232.346 86.4214 231.493 87.7543C231.475 87.7898 231.457 87.8076 231.439 87.8431C231.12 88.1986 230.604 88.2874 230.213 88.0208ZM221.701 98.1507C220.421 99.0926 219.07 99.9634 217.684 100.745C217.24 100.994 216.689 100.834 216.44 100.39C216.191 99.9456 216.351 99.3947 216.796 99.1459C218.111 98.3995 219.408 97.582 220.634 96.6756C221.043 96.3735 221.612 96.4624 221.914 96.8711C222.163 97.2088 222.145 97.6708 221.878 97.9907C221.825 98.044 221.754 98.0974 221.701 98.1507ZM234.496 79.757C234.016 79.5971 233.768 79.0817 233.927 78.6019C234.425 77.1624 234.834 75.6873 235.154 74.2123C235.26 73.7147 235.74 73.4125 236.238 73.5014C236.735 73.608 237.038 74.0879 236.949 74.5855C236.611 76.1316 236.184 77.6955 235.669 79.1883C235.634 79.295 235.58 79.3838 235.509 79.4727C235.26 79.757 234.869 79.8814 234.496 79.757ZM213.383 102.807C211.908 103.411 210.398 103.926 208.869 104.353C208.39 104.495 207.874 104.193 207.75 103.713C207.608 103.233 207.892 102.718 208.39 102.594C209.847 102.185 211.304 101.705 212.708 101.119C213.17 100.923 213.703 101.154 213.899 101.616C214.023 101.936 213.97 102.291 213.757 102.54C213.65 102.665 213.526 102.754 213.383 102.807ZM204.178 105.348C202.596 105.579 200.997 105.721 199.415 105.775C198.917 105.792 198.491 105.384 198.473 104.886C198.455 104.389 198.864 103.962 199.362 103.944C200.872 103.909 202.401 103.766 203.893 103.553C204.391 103.482 204.853 103.82 204.924 104.317C204.96 104.584 204.889 104.833 204.729 105.028C204.622 105.188 204.427 105.313 204.178 105.348ZM194.652 105.597C193.07 105.455 191.471 105.206 189.925 104.868C189.427 104.762 189.125 104.282 189.232 103.784C189.338 103.287 189.818 102.985 190.316 103.091C191.791 103.411 193.302 103.66 194.812 103.802C195.31 103.855 195.683 104.3 195.63 104.797C195.612 104.975 195.541 105.153 195.434 105.277C195.256 105.49 194.972 105.633 194.652 105.597Z" fill="#91B3FA"/>
<path d="M237.447 70.3026C237.553 70.1604 237.624 70.0005 237.642 69.805C237.713 69.023 237.749 68.2411 237.766 67.4769C237.784 66.9793 237.375 66.5528 236.878 66.535C236.38 66.5172 235.954 66.926 235.936 67.4236C235.918 68.1522 235.865 68.8986 235.812 69.645C235.776 70.1426 236.131 70.5869 236.647 70.6402C236.967 70.658 237.251 70.5336 237.447 70.3026Z" fill="#91B3FA"/>
</g>
<path d="M226.428 56.8672C226.392 56.6717 226.232 56.5295 226.037 56.5117L220.457 55.8009C219.355 53.4195 217.862 51.198 215.996 49.2431L217.382 43.7872C217.435 43.5918 217.347 43.3963 217.187 43.2896L211.553 39.5931C211.393 39.4865 211.18 39.4865 211.02 39.6109L206.577 43.0408C204.036 42.1167 201.405 41.6369 198.775 41.5658L195.896 36.7319C195.79 36.5542 195.594 36.4831 195.399 36.5187L188.788 37.8871C188.592 37.9226 188.45 38.0826 188.432 38.278L187.721 43.8583C185.34 44.9602 183.118 46.453 181.164 48.319L175.708 46.9328C175.512 46.8795 175.317 46.9684 175.21 47.1283L171.514 52.7619C171.407 52.9219 171.407 53.1351 171.531 53.2951L174.961 57.738C174.037 60.2793 173.557 62.9095 173.486 65.5397L168.652 68.4187C168.475 68.5254 168.404 68.7209 168.439 68.9163L169.807 75.5274C169.843 75.7229 170.003 75.865 170.198 75.8828L175.779 76.5937C176.881 78.9751 178.373 81.1965 180.239 83.1514L178.853 88.6073C178.8 88.8028 178.889 88.9983 179.049 89.1049L184.682 92.8014C184.842 92.908 185.056 92.908 185.215 92.7836L189.658 89.3537C192.2 90.2778 194.83 90.7577 197.46 90.8288L200.339 95.6627C200.446 95.8404 200.641 95.9114 200.837 95.8759L207.448 94.5075C207.643 94.472 207.785 94.312 207.803 94.1165L208.514 88.5362C210.895 87.4344 213.117 85.9416 215.072 84.0755L220.528 85.4617C220.723 85.515 220.919 85.4262 221.025 85.2662L224.722 79.6326C224.828 79.4727 224.828 79.2594 224.704 79.0995L221.274 74.6566C222.198 72.1152 222.678 69.485 222.749 66.8548L227.583 63.9758C227.761 63.8692 227.832 63.6737 227.796 63.4782L226.428 56.8672Z" fill="#91B3FA"/>
<path d="M202.792 71.2799C201.441 72.524 199.664 73.1637 197.834 73.0926C195.985 73.0216 194.297 72.2218 193.035 70.8712C190.458 68.0633 190.654 63.7092 193.444 61.1146C196.252 58.5377 200.624 58.7332 203.201 61.5233C204.445 62.874 205.085 64.6511 205.013 66.4816C204.942 67.9744 204.409 69.3784 203.485 70.5335C203.29 70.8001 203.059 71.0489 202.792 71.2799ZM194.386 69.6272C195.31 70.6224 196.554 71.2088 197.905 71.2622C199.255 71.3155 200.553 70.8534 201.548 69.9293C202.543 69.0052 203.13 67.7612 203.183 66.4105C203.236 65.0599 202.774 63.7625 201.85 62.7673C199.948 60.7058 196.732 60.5636 194.67 62.4652C194.493 62.6429 194.315 62.8206 194.155 63.0161C192.627 64.9177 192.662 67.7612 194.386 69.6272Z" fill="#BDD0FB"/>
<path d="M211.322 77.0557C211.678 76.6114 212.033 76.1315 212.353 75.6517C212.993 74.6743 213.544 73.6257 213.97 72.5417C213.988 72.4884 214.006 72.435 214.024 72.3995C214.166 72.0263 214.041 71.5998 213.739 71.3687C213.668 71.3154 213.579 71.2621 213.49 71.2266C213.028 71.0489 212.495 71.2799 212.317 71.7419C211.926 72.7549 211.429 73.7324 210.825 74.6565C210.789 74.7098 210.754 74.7631 210.718 74.7987C209.278 76.949 207.359 78.6551 205.12 79.828C203.911 80.4678 202.596 80.9299 201.228 81.232C201.21 81.232 201.21 81.232 201.192 81.232C201.157 81.232 201.121 81.2498 201.086 81.2498C197.069 82.085 192.964 81.3031 189.534 79.0639C189.09 78.7795 188.663 78.4596 188.255 78.1397C185.518 75.9183 183.634 72.8438 182.905 69.3606C182.07 65.3442 182.852 61.2389 185.091 57.809C187.348 54.3791 190.796 52.0332 194.812 51.1979C198.829 50.3627 202.934 51.1446 206.364 53.3838C206.808 53.6682 207.217 53.9703 207.626 54.308C209.367 55.7297 210.789 57.5069 211.767 59.5328C211.82 59.6572 211.909 59.7639 212.015 59.8527C212.282 60.066 212.655 60.1193 212.993 59.9594C213.437 59.7461 213.633 59.1952 213.419 58.7331C212.317 56.4583 210.736 54.4679 208.781 52.8862C208.337 52.513 207.857 52.1754 207.377 51.8555C203.538 49.3319 198.953 48.4611 194.457 49.403C189.961 50.3449 186.104 52.9573 183.581 56.8138C181.057 60.6524 180.186 65.2375 181.128 69.7338C181.946 73.6435 184.043 77.0734 187.099 79.5615C187.562 79.9347 188.024 80.2723 188.521 80.61C196.003 85.4617 205.849 83.8089 211.322 77.0557Z" fill="#BDD0FB"/>
<path d="M119.461 508.018C119.461 508.018 118.43 513.527 117.897 518.983C117.683 521.116 119.318 522.982 121.451 523.088C128.72 523.462 144.27 524.19 149.868 523.995C150.703 523.959 151.272 523.106 150.97 522.324C150.721 521.667 150.223 521.134 149.583 520.831L123.992 508.782L119.461 508.018Z" fill="url(#paint6_linear_293_865)"/>
<path d="M118.696 504.766L119.425 511.377C119.425 511.377 123.903 513.509 127.013 511.181L125.218 503.806L118.696 504.766Z" fill="url(#paint7_linear_293_865)"/>
<path d="M120.456 380.684C120.1 382.408 117.825 466.681 126.462 504.535C126.604 505.157 126.285 505.779 125.698 506.028C124.312 506.578 121.593 507.378 118.341 507.449C117.328 507.467 116.439 506.809 116.173 505.85C113.685 497.053 101.76 453.033 100.551 411.074C99.2006 364.192 100.569 409.474 100.569 409.474L101.902 380.506L120.456 380.684Z" fill="url(#paint8_linear_293_865)"/>
<path d="M89.8709 510.613C89.8709 510.613 88.2893 513.385 86.7254 520.778C86.441 522.111 87.3651 523.408 88.7158 523.551C91.1149 523.817 94.8114 524.155 97.7793 524.155C99.1477 524.155 100.214 522.982 100.072 521.631C99.7697 518.93 98.7923 514.487 95.6645 511.004L89.8709 510.613Z" fill="url(#paint9_linear_293_865)"/>
<path d="M88.5742 502.118L90.3158 512.123C90.3158 512.123 92.1108 513.492 95.7007 512.55L94.9365 501.798L88.5742 502.118Z" fill="url(#paint10_linear_293_865)"/>
<path d="M84.7709 382.941C76.9692 427.352 85.3218 492.876 88.2186 505.708C88.3963 506.49 89.0183 507.094 89.8181 507.236C91.1687 507.467 93.3902 507.68 95.5761 507.058C96.3403 506.845 96.8734 506.17 96.909 505.388C97.4066 495.027 97.2822 431.458 104.391 406.4C104.746 405.138 105.546 404.018 106.63 403.272L120.048 393.924L121.221 378.623L84.7709 382.941Z" fill="url(#paint11_linear_293_865)"/>
<path d="M132.541 299.112C110.469 298.544 86.0327 304.462 86.0327 304.462C79.084 342.813 84.0956 387.171 84.0956 387.171C101.156 391.809 120.51 384.772 120.51 384.772C123.513 368.742 137.197 323.691 137.197 323.691C148.002 322.447 156.924 319.425 164.281 315.373C158.754 308.851 156.213 300.587 155.111 295.7C147.256 298.064 139.348 299.29 132.541 299.112Z" fill="url(#paint12_linear_293_865)"/>
<path d="M198.082 267.212C195.932 264.564 193.177 265.791 193.177 265.791C189.801 279.493 172.651 290.458 155.093 295.736C156.195 300.623 158.736 308.869 164.263 315.409C193.462 299.326 198.082 267.212 198.082 267.212Z" fill="url(#paint13_linear_293_865)"/>
<path d="M197.549 267.87C197.763 268.598 195.133 269.665 193.604 266.697C193.569 265.275 192.769 259.215 193.622 258.078C198.189 251.982 206.986 244.376 206.986 244.376C208.443 245.851 207.217 247.255 207.217 247.255L202.934 251.627C203.805 253.244 204.871 254.594 205.351 256.532C205.724 258.007 205.476 259.57 204.711 260.886C203.947 262.218 202.917 263.942 201.957 265.293C200.126 267.87 197.549 267.87 197.549 267.87Z" fill="url(#paint14_linear_293_865)"/>
<path d="M201.05 254.47L197.158 257.705L195.914 260.957L199.326 264.813C199.326 264.813 200.552 258.362 201.423 256.976C202.294 255.572 201.85 254.879 201.05 254.47Z" fill="url(#paint15_linear_293_865)"/>
<path d="M94.2963 325.93L86.0325 304.462C86.0325 304.462 65.2752 318.288 61.7031 336.024C65.5951 336.344 72.686 337.428 79.5814 341C81.1986 332.63 94.2963 325.93 94.2963 325.93Z" fill="url(#paint16_linear_293_865)"/>
<path d="M112.121 346.225C112.121 346.225 88.8404 359.092 81.1275 347.842C79.5281 345.514 79.1549 343.204 79.5814 341C72.6682 337.428 65.5951 336.344 61.7031 336.024C60.6368 341.373 61.1167 347.078 64.2089 352.872C77.662 378.036 115.142 351.965 115.142 351.965L112.121 346.225Z" fill="url(#paint17_linear_293_865)"/>
<path d="M110.344 280.968L103.129 301.227C103.005 301.565 103.147 301.938 103.449 302.116C105.35 303.2 112.228 306.328 120.598 301.121C121.469 300.587 122.074 299.681 122.216 298.668L124.65 281.11L110.344 280.968Z" fill="url(#paint18_linear_293_865)"/>
<path d="M125.806 262.307C125.806 262.307 133.377 276.898 132.346 282.762C131.297 288.627 121.736 288.112 113.437 283.26L107.75 267.514L125.806 262.307Z" fill="url(#paint19_linear_293_865)"/>
<path d="M113.862 275.565C114.2 275.423 114.324 274.996 114.129 274.694C113.525 273.752 112.387 271.797 112.032 270.109C112.032 270.109 110.646 269.203 115.586 268.083C120.509 266.946 127.866 265.204 129.448 261.028C130.994 256.958 127.138 246.668 120.758 254.772C120.509 255.074 120.047 255.092 119.816 254.772C118.803 253.421 116.102 250.596 112.316 252.266C108.78 253.812 108.353 256.389 108.389 257.704C108.406 258.095 108.051 258.38 107.678 258.309C105.901 257.953 101.618 257.616 99.574 261.987C97.8857 265.595 98.952 267.639 99.9116 268.652C100.232 268.972 100.089 269.505 99.6451 269.647C98.4721 270.002 96.9438 270.98 97.0682 273.717C97.2459 277.52 101.493 277.218 102.702 277.058C102.897 277.04 103.093 277.093 103.235 277.253C104.266 278.408 108.886 283.331 113.933 283.953C114.378 284.006 114.715 283.58 114.573 283.153L112.441 276.773C112.334 276.471 112.494 276.151 112.778 276.027L113.862 275.565Z" fill="url(#paint20_linear_293_865)"/>
<path d="M114.734 276.471C114.734 276.471 109.278 272.65 108.852 275.814C108.425 278.977 113.757 280.452 116.422 279.297L114.734 276.471Z" fill="url(#paint21_linear_293_865)"/>
<path d="M107.377 366.556L120.066 322.269C120.208 321.771 120.634 321.398 121.15 321.345C123.442 321.078 130.106 320.332 137.802 319.674C147.061 318.892 157.812 318.252 164.246 318.803C165.152 318.874 165.703 319.852 165.312 320.669C161.651 328.062 146.616 358.132 139.099 367.995C138.85 368.315 138.459 368.511 138.05 368.511L108.621 368.244C107.75 368.208 107.128 367.391 107.377 366.556Z" fill="url(#paint22_linear_293_865)"/>
<path d="M110.434 355.857C110.434 355.857 108.674 348.589 109.385 346.012C110.096 343.435 111.482 340.112 116.085 340.858C120.688 341.587 126.126 343.541 126.126 343.541C126.126 343.541 125.859 346.9 122.358 345.816L124.526 347.487C124.526 347.487 124.224 350.17 121.256 348.731L123.282 350.952C123.282 350.952 122.021 353.156 119.835 351.752C117.649 350.348 116.6 356.728 110.434 355.857Z" fill="url(#paint23_linear_293_865)"/>
<path d="M136.949 332.896C136.949 334.958 138.619 336.628 140.681 336.628C142.742 336.628 144.413 334.958 144.413 332.896C144.413 330.835 142.742 329.164 140.681 329.164C138.619 329.164 136.949 330.835 136.949 332.896Z" fill="#91B3FA"/>
<path d="M121.487 335.349L124.064 326.587C124.384 325.503 125.255 324.704 126.321 324.473C134.407 322.784 156.569 322.429 156.8 322.429L156.782 321.434C155.875 321.451 134.301 321.789 126.126 323.513C124.686 323.815 123.549 324.881 123.122 326.303L120.545 335.064L121.487 335.349Z" fill="#BDD0FB"/>
<path d="M451.15 269.469C451.506 268.794 452.501 268.9 452.696 269.629C453.443 272.33 455.273 277.058 459.094 278.746C459.29 278.835 459.467 278.924 459.645 278.995C459.823 278.479 459.823 277.875 459.414 277.235C458.223 275.423 460.374 272.935 460.374 272.935C460.374 272.935 460.516 275.12 462.169 276.489C463.59 277.68 464.283 280.31 463.306 282.478C461.244 290.511 458.134 301.138 470.201 308.887C482.268 316.653 499.24 294.243 499.24 294.243L490.816 320.971C490.816 320.971 477.808 330.568 462.666 317.079C447.525 303.573 457.566 283.935 457.566 283.935C457.566 283.935 446.014 279.279 451.15 269.469Z" fill="url(#paint24_linear_293_865)"/>
<path d="M501.355 254.985C501.355 254.985 497.854 239.311 515.821 243.469C515.821 243.469 524.529 242.048 524.974 250.276C524.974 250.276 530.59 253.972 526.484 261.099C526.484 261.099 543.172 254.648 550.458 269.292C557.727 283.918 551.045 291.968 544.043 294.065C544.043 294.065 549.73 296.909 547.028 303.36C544.345 309.793 530.732 314.343 522.681 306.505C522.681 306.505 499.809 309.527 500.253 293.372C500.253 293.372 489.608 286.495 500.787 273.148C511.965 259.766 501.355 254.985 501.355 254.985Z" fill="url(#paint25_linear_293_865)"/>
<path d="M500.36 291.31C503.967 290.226 514.47 288.236 524.458 297.459C526.146 299.023 526.84 301.405 526.235 303.626C523.552 313.507 516.479 342.688 522.681 355.324C522.681 355.324 511.734 367.391 499.809 357.67C499.809 357.67 494.46 334.336 487.44 324.081C482.606 317.008 495.153 297.513 498.334 292.803C498.831 292.092 499.542 291.559 500.36 291.31Z" fill="url(#paint26_linear_293_865)"/>
<path d="M510.33 271.691C510.33 271.691 515.661 286.779 516.07 293.443C516.07 293.443 510.17 296.127 504.625 291.595C504.625 291.595 504.038 276.525 503.203 273.823L510.33 271.691Z" fill="url(#paint27_linear_293_865)"/>
<path d="M502.919 251.111C502.919 251.111 488.968 270.642 497.303 276.311C505.638 281.98 515.572 268.101 515.572 268.101C515.572 268.101 518.806 257.42 515.43 253.795C512.035 250.169 502.919 251.111 502.919 251.111Z" fill="url(#paint28_linear_293_865)"/>
<path d="M509.369 246.455C509.369 246.455 502.954 247.965 502.065 250.88C501.159 253.777 511.164 256.478 513.954 256.602L516.211 268.314C516.211 268.314 522.876 257.296 520.246 250.951C517.598 244.571 509.369 246.455 509.369 246.455Z" fill="url(#paint29_linear_293_865)"/>
<path d="M512.871 266.679C512.871 266.679 518.309 260.388 520.459 264.493C522.627 268.598 515.572 271.673 513.137 269.665L512.871 266.679Z" fill="url(#paint30_linear_293_865)"/>
<path d="M485.876 406.666C485.911 407.733 484.063 416.139 483.05 420.617C482.641 422.412 482.925 424.314 483.85 425.913L518.913 484.933C519.34 485.643 519.642 486.425 519.837 487.225C520.477 489.997 521.81 496.786 521.117 502.953L519.304 506.721L527.141 504.943L528.847 483.884L526.626 482.533C524.707 481.36 523.214 479.619 522.361 477.54C519.197 469.844 511.325 450.242 509.281 440.681C506.97 429.823 494.921 421.008 494.921 421.008L497.036 415.996L485.876 406.666Z" fill="url(#paint31_linear_293_865)"/>
<path d="M535.867 497.693C535.867 497.693 531.638 490.975 531.14 488.363C530.642 485.75 529.256 481.129 526.644 482.516C526.644 482.516 525.417 495.222 525.844 500.181C526.27 505.139 520.228 504.979 520.228 504.979C520.228 504.979 518.558 505.21 517.349 506.436C516.514 507.272 517.118 508.729 518.291 508.818C520.264 508.942 523.409 508.978 526.697 508.338C527.852 508.107 528.705 507.129 528.776 505.974L529.647 491.366L534.996 498.119L535.867 497.693Z" fill="url(#paint32_linear_293_865)"/>
<path d="M506.829 416.067C506.829 416.067 508.073 468.849 508.233 476.349C508.393 483.848 507.042 500.465 499.542 505.423L502.812 507.84C502.812 507.84 506.9 504.375 510.899 497.675C515.377 490.157 516.745 488.789 516.745 488.789L515.253 485.732C514.595 484.399 514.417 482.889 514.702 481.431C516.319 473.576 521.739 447.434 523.214 441.801C524.956 435.154 525.08 426.286 519.02 418.858C512.942 411.447 506.829 416.067 506.829 416.067Z" fill="url(#paint33_linear_293_865)"/>
<path d="M513.777 510.222C514.008 510.222 514.204 510.062 514.24 509.831C514.488 508.071 515.537 501.016 516.39 499.185C517.367 497.088 520.548 488.291 516.39 487.545C516.39 487.545 506.029 502.669 504.039 504.712C502.048 506.756 499.542 505.423 499.542 505.423C499.542 505.423 497.605 505.992 496.148 507.858C495.455 508.747 496.095 510.044 497.232 510.062L504.216 510.133C506.242 510.151 508.073 508.924 508.819 507.041C510.045 503.966 512.16 499.47 514.613 497.479L513.333 509.706C513.28 509.991 513.493 510.222 513.777 510.222Z" fill="url(#paint34_linear_293_865)"/>
<path d="M498.174 351.965C498.174 351.965 499.738 356.977 497.339 365.223L482.357 417.542C482.126 418.36 482.571 419.231 483.37 419.515C487.849 421.115 502.581 425.664 522.681 424.278C523.694 424.207 524.547 423.496 524.76 422.501C526.093 416.529 530.607 396.181 531.531 392.005C535.086 376.081 539.031 358.896 521.615 348.5C513.582 351.947 506.1 353.973 498.174 351.965Z" fill="url(#paint35_linear_293_865)"/>
<path d="M525.897 299.432C525.897 299.432 542.94 313.596 547.17 332.949C551.4 352.303 522.272 354.364 522.272 354.364C522.272 354.364 518.309 349.939 513.617 351.521C508.926 353.102 513.262 343.808 518.753 343.843C524.245 343.861 521.703 348.215 529.47 344.696C537.04 341.267 541.714 330.657 522.396 314.591C521.277 313.667 520.388 312.477 519.837 311.126C516.087 301.654 519.073 295.451 525.897 299.432Z" fill="url(#paint36_linear_293_865)"/>
<path d="M419.233 444.04H413.155V509.795H419.233V444.04Z" fill="#7D97F4"/>
<path d="M442.833 511.057H389.589V507.538C389.589 507.289 389.785 507.094 390.034 507.094H442.407C442.655 507.094 442.851 507.289 442.851 507.538V511.057H442.833Z" fill="#7D97F4"/>
<path d="M452.892 441.623C452.892 445.444 449.764 448.572 445.943 448.572H388.683C384.862 448.572 381.734 445.444 381.734 441.623V435.332C381.734 431.511 384.862 428.383 388.683 428.383H445.943C449.764 428.383 452.892 431.511 452.892 435.332V441.623Z" fill="#7D97F4"/>
<path d="M362.31 489.82C362.31 489.82 342.655 498.279 343.775 507.147C343.775 507.147 364.088 503.255 367.731 497.444C371.374 491.632 369.366 488.274 369.366 488.274L362.31 489.82Z" fill="url(#paint37_linear_293_865)"/>
<path d="M367.126 480.152L368.122 488.771C368.264 490.069 367.553 491.366 366.309 491.792C365.687 492.023 364.887 492.166 363.821 492.166C362.328 492.166 360.995 491.188 360.587 489.749L358.649 482.764L367.126 480.152Z" fill="url(#paint38_linear_293_865)"/>
<path d="M410.063 414.006C410.063 414.006 373.915 412.335 355.93 422.821C337.946 433.306 356.837 483.653 356.837 483.653C356.837 483.653 361.528 484.666 368.299 481.041C368.299 481.041 358.649 444.182 375.408 437.767C394.264 430.551 413.777 432.311 413.777 432.311L410.169 415.126L410.063 414.006Z" fill="url(#paint39_linear_293_865)"/>
<path d="M347.737 503.273C351.842 502.367 364.034 497.319 365.882 497.39C367.73 497.462 370.36 500.234 370.36 500.234C370.36 500.234 370.805 501.745 369.49 503.93C366.344 506.383 359.591 510.879 351.718 511.377C345.924 511.732 342.459 509.44 340.451 507.2C342.192 505.477 344.982 503.859 347.737 503.273Z" fill="url(#paint40_linear_293_865)"/>
<path d="M351.718 511.359C359.591 510.861 366.344 506.365 369.49 503.913C368.601 505.388 366.895 507.165 363.679 508.96C355.735 513.456 342.584 512.799 339.989 511.786C337.91 510.968 338.55 509.031 340.451 507.165C342.442 509.422 345.925 511.714 351.718 511.359Z" fill="url(#paint41_linear_293_865)"/>
<path d="M374.68 495.702C374.413 496.715 371.534 499.772 369.864 501.478C369.064 502.295 367.927 502.633 366.825 502.402C366.132 502.242 365.332 502.011 364.639 501.638C363.608 501.087 363.253 499.772 363.821 498.741L368.033 491.082L374.68 495.702Z" fill="url(#paint42_linear_293_865)"/>
<path d="M445.89 410.967C445.89 410.967 449.053 433.359 439.919 437.927C430.802 442.494 410.791 445.497 403.896 457.102C397 468.707 384.631 491.508 373.364 498.048C373.364 498.048 366.931 495.951 365.047 492.788C365.047 492.788 378.411 457.635 383.991 449.087C388.825 441.694 395.881 431.031 405.922 426.411C408.801 425.095 409.014 422.039 408.516 418.929L407.592 413.242L445.89 410.967Z" fill="url(#paint43_linear_293_865)"/>
<path d="M361.315 385.589C374.11 389.232 379.833 353.245 379.78 352.374L399.4 375.299C399.4 375.299 387.706 395.861 370.076 398.047C365.616 398.598 361.812 397.834 358.631 396.376C360.977 392.538 361.51 388.735 361.315 385.589Z" fill="url(#paint44_linear_293_865)"/>
<path d="M337.643 373.806C343.223 371.514 347.951 376.081 347.951 376.081C353.478 381.733 357.85 384.594 361.333 385.589C361.51 388.735 360.977 392.52 358.631 396.376C351.736 393.213 347.72 386.833 346.067 383.652C345.463 382.497 344.076 382.017 342.904 382.586C341.731 383.154 340.504 384.025 340.433 385.216C340.291 387.544 337.501 387.686 337.483 386.833C337.465 385.962 339.634 381.359 339.634 381.359C339.634 381.359 333.236 385.465 330.73 387.046C328.242 388.61 326.109 386.016 326.109 386.016C326.109 386.016 332.063 376.099 337.643 373.806Z" fill="url(#paint45_linear_293_865)"/>
<path d="M440.95 337.552C440.95 337.552 423.765 325.823 382.25 347.042C382.25 347.042 377.967 352.463 379.975 358.576C381.984 364.69 406.633 397.745 407.592 413.277C407.592 413.277 424.44 423.194 446.317 413.366C446.317 413.348 453.657 372.367 440.95 337.552Z" fill="url(#paint46_linear_293_865)"/>
<path d="M405.158 322.571L411.946 335.882C412.622 337.197 412.48 338.796 411.555 339.969C409.689 342.315 405.78 345.461 399.115 343.435C397.125 342.83 395.614 341.213 395.135 339.205L391.616 324.348L405.158 322.571Z" fill="url(#paint47_linear_293_865)"/>
<path d="M453.692 384.043C454.848 375.957 433.468 360.265 433.468 360.265L440.95 337.552C440.95 337.552 481.754 366.662 473.17 390.441C471.944 393.853 470.113 396.341 467.874 398.1C463.556 389.25 457.691 385.554 453.692 384.043Z" fill="url(#paint48_linear_293_865)"/>
<path d="M423.854 386.282C423.854 386.282 448.041 393.035 453.053 385.678C453.39 385.18 453.586 384.629 453.675 384.043C457.691 385.571 463.538 389.25 467.856 398.1C456.376 407.128 434.232 397.016 428.208 393.977C427.213 393.48 426.075 393.373 425.027 393.711C422.894 394.386 419.18 395.417 417.118 395.31C414.097 395.15 410.845 406.062 405.709 403.307C405.727 403.29 408.055 384.629 423.854 386.282Z" fill="url(#paint49_linear_293_865)"/>
<path d="M396.45 300.819C396.237 300.996 387.28 316.653 382.712 324.633C381.326 327.067 382.357 330.177 384.934 331.279L386.906 332.132C389.608 333.287 395.419 334.265 397.694 332.417L412.107 317.204C412.124 317.186 401.301 296.624 396.45 300.819Z" fill="url(#paint50_linear_293_865)"/>
<path d="M416.176 313.045C417.935 312.05 420.068 310.042 418.415 306.488C416.727 302.88 413.422 302.56 411.271 302.791C410.4 302.88 409.618 302.329 409.37 301.494C409.227 301.014 408.872 300.605 408.126 300.481C407.095 300.321 406.473 299.272 406.739 298.277C407.255 296.358 407.166 293.745 404.074 291.879C398.6 288.556 393.464 293.39 392.042 297.566C390.62 301.76 396.769 305.012 400.697 305.688C403.683 306.185 405.14 309.633 405.673 311.25C405.833 311.766 405.762 312.317 405.46 312.779L401.088 319.425C402.296 320.936 403.363 322.535 404.411 324.17C404.802 323.744 405.158 323.388 405.424 323.14C407.326 321.398 410.702 322.304 412.106 322.784C412.568 322.944 413.066 322.909 413.493 322.678C415.003 321.896 418.078 319.692 415.554 315.533C414.985 314.663 415.288 313.543 416.176 313.045Z" fill="url(#paint51_linear_293_865)"/>
<path d="M402.793 327.014C402.793 327.014 405.601 319.816 408.783 320.225C411.964 320.634 414.345 323.922 410.24 327.316C405.122 331.563 402.793 327.014 402.793 327.014Z" fill="url(#paint52_linear_293_865)"/>
<path d="M392.966 401.69C392.93 401.69 392.877 401.69 392.841 401.69L336.345 401.637C334.941 401.637 333.822 400.5 333.822 399.113C333.822 397.709 334.959 396.554 336.345 396.59L392.841 396.643C394.245 396.643 395.365 397.78 395.365 399.167C395.365 400.517 394.316 401.619 392.966 401.69Z" fill="url(#paint53_linear_293_865)"/>
<path d="M285.536 350.383H332.595C336.061 350.383 339.224 352.392 340.699 355.519L362.452 401.654H303.965C301.726 401.654 299.718 400.286 298.9 398.207L282.035 355.519C281.075 353.049 282.888 350.383 285.536 350.383Z" fill="url(#paint54_linear_293_865)"/>
<path d="M318.699 374.037C319.712 377.201 318.965 380.275 317.01 380.915C315.056 381.537 312.656 379.476 311.643 376.312C310.63 373.149 311.377 370.074 313.332 369.435C315.269 368.813 317.668 370.856 318.699 374.037Z" fill="#91B3FA"/>
<path d="M293.178 522.875C292.858 522.875 292.538 522.822 292.236 522.679C291.028 522.182 290.477 520.831 290.992 519.658L340.788 407.59C341.304 406.417 342.708 405.884 343.916 406.382C345.125 406.879 345.676 408.23 345.16 409.403L295.346 521.489C294.973 522.36 294.085 522.875 293.178 522.875Z" fill="#91B3FA"/>
<path d="M349.266 522.875C348.342 522.875 347.471 522.36 347.08 521.489L297.284 409.421C296.768 408.248 297.319 406.897 298.528 406.4C299.736 405.902 301.123 406.435 301.656 407.608L351.452 519.676C351.967 520.849 351.416 522.2 350.208 522.697C349.906 522.822 349.586 522.875 349.266 522.875Z" fill="#91B3FA"/>
<path d="M447.312 522.875C446.992 522.875 446.672 522.822 446.37 522.679C445.161 522.182 444.61 520.831 445.126 519.658L494.922 407.59C495.437 406.417 496.841 405.884 498.05 406.382C499.258 406.879 499.809 408.23 499.294 409.403L449.497 521.489C449.124 522.36 448.236 522.875 447.312 522.875Z" fill="#91B3FA"/>
<path d="M503.417 522.875C502.493 522.875 501.622 522.36 501.231 521.489L451.435 409.421C450.92 408.248 451.471 406.897 452.679 406.4C453.888 405.902 455.274 406.435 455.807 407.608L505.603 519.676C506.119 520.849 505.568 522.2 504.359 522.697C504.057 522.822 503.737 522.875 503.417 522.875Z" fill="#91B3FA"/>
<path d="M509.264 404.125C509.388 403.396 509.211 402.632 508.784 402.046C508.358 401.477 507.718 401.139 507.06 401.139H280.508C279.637 401.139 278.801 401.637 278.339 402.472C277.86 403.307 277.806 404.338 278.179 405.245L280.632 411.198C281.201 412.566 282.409 413.437 283.76 413.437H505.514C506.758 413.437 507.825 412.442 508.073 411.074L509.264 404.125Z" fill="#91B3FA"/>
<defs>
<linearGradient id="paint0_linear_293_865" x1="612.694" y1="668.166" x2="171.88" y2="120.703" gradientUnits="userSpaceOnUse">
<stop stop-color="#DAE3FE"/>
<stop offset="1" stop-color="#E9EFFD"/>
</linearGradient>
<linearGradient id="paint1_linear_293_865" x1="411.954" y1="81.5366" x2="45.0704" y2="568.633" gradientUnits="userSpaceOnUse">
<stop stop-color="#4F52FF"/>
<stop offset="1" stop-color="#4042E2"/>
</linearGradient>
<linearGradient id="paint2_linear_293_865" x1="411.955" y1="81.5366" x2="45.0724" y2="568.632" gradientUnits="userSpaceOnUse">
<stop stop-color="#4F52FF"/>
<stop offset="1" stop-color="#4042E2"/>
</linearGradient>
<linearGradient id="paint3_linear_293_865" x1="303.272" y1="7.75367" x2="282.849" y2="168.733" gradientUnits="userSpaceOnUse">
<stop stop-color="#FF928E"/>
<stop offset="1" stop-color="#FE7062"/>
</linearGradient>
<linearGradient id="paint4_linear_293_865" x1="226.648" y1="258.325" x2="390.822" y2="159.01" gradientUnits="userSpaceOnUse">
<stop stop-color="#09005D"/>
<stop offset="1" stop-color="#1A0F91"/>
</linearGradient>
<linearGradient id="paint5_linear_293_865" x1="281.993" y1="258.284" x2="398.204" y2="161.892" gradientUnits="userSpaceOnUse">
<stop stop-color="#09005D"/>
<stop offset="1" stop-color="#1A0F91"/>
</linearGradient>
<linearGradient id="paint6_linear_293_865" x1="149.279" y1="500.681" x2="54.1886" y2="602.161" gradientUnits="userSpaceOnUse">
<stop stop-color="#09005D"/>
<stop offset="1" stop-color="#1A0F91"/>
</linearGradient>
<linearGradient id="paint7_linear_293_865" x1="118.658" y1="507.993" x2="127.018" y2="508.073" gradientUnits="userSpaceOnUse">
<stop stop-color="#FEBBBA"/>
<stop offset="1" stop-color="#FF928E"/>
</linearGradient>
<linearGradient id="paint8_linear_293_865" x1="157.795" y1="384.97" x2="76.6728" y2="492.762" gradientUnits="userSpaceOnUse">
<stop stop-color="#09005D"/>
<stop offset="1" stop-color="#1A0F91"/>
</linearGradient>
<linearGradient id="paint9_linear_293_865" x1="128.35" y1="481.066" x2="33.2556" y2="582.55" gradientUnits="userSpaceOnUse">
<stop stop-color="#09005D"/>
<stop offset="1" stop-color="#1A0F91"/>
</linearGradient>
<linearGradient id="paint10_linear_293_865" x1="88.5322" y1="507.277" x2="95.7502" y2="507.346" gradientUnits="userSpaceOnUse">
<stop stop-color="#FEBBBA"/>
<stop offset="1" stop-color="#FF928E"/>
</linearGradient>
<linearGradient id="paint11_linear_293_865" x1="143.621" y1="374.302" x2="62.5002" y2="482.093" gradientUnits="userSpaceOnUse">
<stop stop-color="#09005D"/>
<stop offset="1" stop-color="#1A0F91"/>
</linearGradient>
<linearGradient id="paint12_linear_293_865" x1="-2404.02" y1="-1524.61" x2="-2318.73" y2="-1461.54" gradientUnits="userSpaceOnUse">
<stop stop-color="#FF928E"/>
<stop offset="1" stop-color="#FE7062"/>
</linearGradient>
<linearGradient id="paint13_linear_293_865" x1="155.141" y1="290.211" x2="197.854" y2="290.617" gradientUnits="userSpaceOnUse">
<stop stop-color="#FEBBBA"/>
<stop offset="1" stop-color="#FF928E"/>
</linearGradient>
<linearGradient id="paint14_linear_293_865" x1="188.408" y1="283.368" x2="159.128" y2="348.305" gradientUnits="userSpaceOnUse">
<stop stop-color="#FEBBBA"/>
<stop offset="1" stop-color="#FF928E"/>
</linearGradient>
<linearGradient id="paint15_linear_293_865" x1="197.923" y1="261.739" x2="210.057" y2="243.466" gradientUnits="userSpaceOnUse">
<stop stop-color="#FEBBBA"/>
<stop offset="1" stop-color="#FF928E"/>
</linearGradient>
<linearGradient id="paint16_linear_293_865" x1="-2410.05" y1="-1516.45" x2="-2324.76" y2="-1453.38" gradientUnits="userSpaceOnUse">
<stop stop-color="#FF928E"/>
<stop offset="1" stop-color="#FE7062"/>
</linearGradient>
<linearGradient id="paint17_linear_293_865" x1="61.1031" y1="349.819" x2="115.155" y2="350.332" gradientUnits="userSpaceOnUse">
<stop stop-color="#FEBBBA"/>
<stop offset="1" stop-color="#FF928E"/>
</linearGradient>
<linearGradient id="paint18_linear_293_865" x1="100.841" y1="319.971" x2="121.264" y2="280.327" gradientUnits="userSpaceOnUse">
<stop stop-color="#FEBBBA"/>
<stop offset="1" stop-color="#FF928E"/>
</linearGradient>
<linearGradient id="paint19_linear_293_865" x1="129.742" y1="279.086" x2="106.381" y2="264.531" gradientUnits="userSpaceOnUse">
<stop stop-color="#FEBBBA"/>
<stop offset="1" stop-color="#FF928E"/>
</linearGradient>
<linearGradient id="paint20_linear_293_865" x1="94.0861" y1="249.306" x2="124.213" y2="273.57" gradientUnits="userSpaceOnUse">
<stop stop-color="#09005D"/>
<stop offset="1" stop-color="#1A0F91"/>
</linearGradient>
<linearGradient id="paint21_linear_293_865" x1="123.519" y1="284.371" x2="102.501" y2="271.277" gradientUnits="userSpaceOnUse">
<stop stop-color="#FEBBBA"/>
<stop offset="1" stop-color="#FF928E"/>
</linearGradient>
<linearGradient id="paint22_linear_293_865" x1="129.649" y1="315.474" x2="159.474" y2="439.747" gradientUnits="userSpaceOnUse">
<stop stop-color="#09005D"/>
<stop offset="1" stop-color="#1A0F91"/>
</linearGradient>
<linearGradient id="paint23_linear_293_865" x1="109.212" y1="348.351" x2="126.11" y2="348.351" gradientUnits="userSpaceOnUse">
<stop stop-color="#FEBBBA"/>
<stop offset="1" stop-color="#FF928E"/>
</linearGradient>
<linearGradient id="paint24_linear_293_865" x1="445.996" y1="250.654" x2="491.336" y2="323.319" gradientUnits="userSpaceOnUse">
<stop stop-color="#FEBBBA"/>
<stop offset="1" stop-color="#FF928E"/>
</linearGradient>
<linearGradient id="paint25_linear_293_865" x1="571.86" y1="243.967" x2="526.064" y2="274.501" gradientUnits="userSpaceOnUse">
<stop stop-color="#09005D"/>
<stop offset="1" stop-color="#1A0F91"/>
</linearGradient>
<linearGradient id="paint26_linear_293_865" x1="559.02" y1="249.091" x2="525.984" y2="300.148" gradientUnits="userSpaceOnUse">
<stop stop-color="#FF928E"/>
<stop offset="1" stop-color="#FE7062"/>
</linearGradient>
<linearGradient id="paint27_linear_293_865" x1="501.837" y1="300.92" x2="510.337" y2="282.041" gradientUnits="userSpaceOnUse">
<stop stop-color="#FEBBBA"/>
<stop offset="1" stop-color="#FF928E"/>
</linearGradient>
<linearGradient id="paint28_linear_293_865" x1="501.399" y1="255.042" x2="518.65" y2="292.391" gradientUnits="userSpaceOnUse">
<stop stop-color="#FEBBBA"/>
<stop offset="1" stop-color="#FF928E"/>
</linearGradient>
<linearGradient id="paint29_linear_293_865" x1="559.552" y1="225.507" x2="513.754" y2="256.042" gradientUnits="userSpaceOnUse">
<stop stop-color="#09005D"/>
<stop offset="1" stop-color="#1A0F91"/>
</linearGradient>
<linearGradient id="paint30_linear_293_865" x1="509.515" y1="251.292" x2="526.766" y2="288.641" gradientUnits="userSpaceOnUse">
<stop stop-color="#FEBBBA"/>
<stop offset="1" stop-color="#FF928E"/>
</linearGradient>
<linearGradient id="paint31_linear_293_865" x1="549.537" y1="536.015" x2="486.205" y2="421.702" gradientUnits="userSpaceOnUse">
<stop stop-color="#FEBBBA"/>
<stop offset="1" stop-color="#FF928E"/>
</linearGradient>
<linearGradient id="paint32_linear_293_865" x1="535.878" y1="495.682" x2="517.05" y2="495.503" gradientUnits="userSpaceOnUse">
<stop stop-color="#09005D"/>
<stop offset="1" stop-color="#1A0F91"/>
</linearGradient>
<linearGradient id="paint33_linear_293_865" x1="477.342" y1="451.208" x2="573.38" y2="482.927" gradientUnits="userSpaceOnUse">
<stop stop-color="#FEBBBA"/>
<stop offset="1" stop-color="#FF928E"/>
</linearGradient>
<linearGradient id="paint34_linear_293_865" x1="518.39" y1="498.916" x2="495.945" y2="498.703" gradientUnits="userSpaceOnUse">
<stop stop-color="#09005D"/>
<stop offset="1" stop-color="#1A0F91"/>
</linearGradient>
<linearGradient id="paint35_linear_293_865" x1="585.283" y1="330.977" x2="531.223" y2="372.424" gradientUnits="userSpaceOnUse">
<stop stop-color="#09005D"/>
<stop offset="1" stop-color="#1A0F91"/>
</linearGradient>
<linearGradient id="paint36_linear_293_865" x1="543.455" y1="359.653" x2="452.677" y2="225.059" gradientUnits="userSpaceOnUse">
<stop stop-color="#FEBBBA"/>
<stop offset="1" stop-color="#FF928E"/>
</linearGradient>
<linearGradient id="paint37_linear_293_865" x1="350.586" y1="474.317" x2="356.503" y2="497.243" gradientUnits="userSpaceOnUse">
<stop stop-color="#09005D"/>
<stop offset="1" stop-color="#1A0F91"/>
</linearGradient>
<linearGradient id="paint38_linear_293_865" x1="368.697" y1="486.927" x2="358.258" y2="484.617" gradientUnits="userSpaceOnUse">
<stop stop-color="#FEBBBA"/>
<stop offset="1" stop-color="#FF928E"/>
</linearGradient>
<linearGradient id="paint39_linear_293_865" x1="389.256" y1="462.504" x2="358.657" y2="390.513" gradientUnits="userSpaceOnUse">
<stop stop-color="#09005D"/>
<stop offset="1" stop-color="#1A0F91"/>
</linearGradient>
<linearGradient id="paint40_linear_293_865" x1="352.054" y1="496.497" x2="377.868" y2="552.043" gradientUnits="userSpaceOnUse">
<stop stop-color="#09005D"/>
<stop offset="1" stop-color="#1A0F91"/>
</linearGradient>
<linearGradient id="paint41_linear_293_865" x1="367.957" y1="510.809" x2="339.888" y2="504.597" gradientUnits="userSpaceOnUse">
<stop stop-color="#4F52FF"/>
<stop offset="1" stop-color="#4042E2"/>
</linearGradient>
<linearGradient id="paint42_linear_293_865" x1="374.113" y1="498.231" x2="364.316" y2="496.063" gradientUnits="userSpaceOnUse">
<stop stop-color="#FEBBBA"/>
<stop offset="1" stop-color="#FF928E"/>
</linearGradient>
<linearGradient id="paint43_linear_293_865" x1="398.388" y1="497.025" x2="414.341" y2="413.355" gradientUnits="userSpaceOnUse">
<stop stop-color="#09005D"/>
<stop offset="1" stop-color="#1A0F91"/>
</linearGradient>
<linearGradient id="paint44_linear_293_865" x1="429.571" y1="335.382" x2="333.168" y2="410.162" gradientUnits="userSpaceOnUse">
<stop stop-color="#FF928E"/>
<stop offset="1" stop-color="#FE7062"/>
</linearGradient>
<linearGradient id="paint45_linear_293_865" x1="361.677" y1="387.309" x2="327.501" y2="379.745" gradientUnits="userSpaceOnUse">
<stop stop-color="#FEBBBA"/>
<stop offset="1" stop-color="#FF928E"/>
</linearGradient>
<linearGradient id="paint46_linear_293_865" x1="318.74" y1="439.209" x2="410.638" y2="382.449" gradientUnits="userSpaceOnUse">
<stop stop-color="#FF928E"/>
<stop offset="1" stop-color="#FE7062"/>
</linearGradient>
<linearGradient id="paint47_linear_293_865" x1="412.958" y1="335.413" x2="390.283" y2="330.395" gradientUnits="userSpaceOnUse">
<stop stop-color="#FEBBBA"/>
<stop offset="1" stop-color="#FF928E"/>
</linearGradient>
<linearGradient id="paint48_linear_293_865" x1="324.295" y1="448.201" x2="416.193" y2="391.441" gradientUnits="userSpaceOnUse">
<stop stop-color="#FF928E"/>
<stop offset="1" stop-color="#FE7062"/>
</linearGradient>
<linearGradient id="paint49_linear_293_865" x1="430.965" y1="392.091" x2="521.015" y2="518.188" gradientUnits="userSpaceOnUse">
<stop stop-color="#FEBBBA"/>
<stop offset="1" stop-color="#FF928E"/>
</linearGradient>
<linearGradient id="paint50_linear_293_865" x1="400.408" y1="306.352" x2="389.017" y2="359.789" gradientUnits="userSpaceOnUse">
<stop stop-color="#FEBBBA"/>
<stop offset="1" stop-color="#FF928E"/>
</linearGradient>
<linearGradient id="paint51_linear_293_865" x1="416.161" y1="320.617" x2="393.464" y2="294.397" gradientUnits="userSpaceOnUse">
<stop stop-color="#09005D"/>
<stop offset="1" stop-color="#1A0F91"/>
</linearGradient>
<linearGradient id="paint52_linear_293_865" x1="404.889" y1="357.287" x2="407.712" y2="324.044" gradientUnits="userSpaceOnUse">
<stop stop-color="#FEBBBA"/>
<stop offset="1" stop-color="#FF928E"/>
</linearGradient>
<linearGradient id="paint53_linear_293_865" x1="402.56" y1="386.671" x2="357.704" y2="401.383" gradientUnits="userSpaceOnUse">
<stop stop-color="#09005D"/>
<stop offset="1" stop-color="#1A0F91"/>
</linearGradient>
<linearGradient id="paint54_linear_293_865" x1="340.942" y1="357.261" x2="308.639" y2="391.403" gradientUnits="userSpaceOnUse">
<stop stop-color="#09005D"/>
<stop offset="1" stop-color="#1A0F91"/>
</linearGradient>
</defs>
</svg>
