<svg width="38" height="44" viewBox="0 0 38 44" fill="none" xmlns="http://www.w3.org/2000/svg">
<path d="M32.0625 13.501C31.36 13.501 30.6872 13.6284 30.0645 13.8613C28.9491 12.8091 27.5822 12.151 25.9875 12.151C25.0054 12.151 24.0941 12.423 23.285 12.8613L24.2232 7.04363C24.2758 6.71676 24.3012 6.39183 24.3012 6.07078C24.3012 3.02653 21.8619 0 18.2186 0C15.2925 0 12.7081 2.12287 12.2255 5.10806L11.9306 6.93833L11.5509 6.14098C10.5047 3.96832 8.33878 2.70017 6.07584 2.70017C2.63334 2.70017 0 5.50817 0 8.78108C0 9.66533 0.193725 10.5622 0.602775 11.4119L4.81359 20.1582C2.754 21.1285 1.35 23.2632 1.35 25.5751V32.3251C1.35 34.1864 2.2275 35.9802 3.69816 37.1226L7.57519 40.1382C10.0516 42.0645 13.1423 43.1259 16.2827 43.1259L22.9323 43.1289C31.1259 43.201 37.8 36.4594 37.8 28.3341V19.2638C37.8 15.9985 35.0916 13.501 32.0625 13.501ZM24.3 17.9138C24.3 16.9688 24.9834 16.201 25.9875 16.201C26.9173 16.201 27.675 16.967 27.675 17.9096V22.5924C27.675 23.5332 26.9156 24.301 25.9875 24.301C24.9834 24.301 24.3 23.5332 24.3 22.5966V17.9138ZM18.2166 4.04932C19.2333 4.04932 20.2525 4.85182 20.2525 6.07264C20.2525 6.18038 20.2439 6.28948 20.2261 6.39925L18.2587 18.6057C17.6091 18.361 16.9088 18.1501 16.1916 18.1501C16.1916 18.1501 16.1917 18.1501 16.1916 18.1501C15.814 18.1501 15.435 18.1855 15.0626 18.2559L14.1725 18.3932L16.2245 5.67785C16.3856 4.76145 17.2463 4.04932 18.2166 4.04932ZM3.97406 8.77601C3.97406 7.65636 4.88447 6.74764 6.00075 6.74764C6.75481 6.74764 7.47731 7.17145 7.82409 7.89598L12.9954 18.6369L8.88469 19.2807L4.25081 9.65351C4.11412 9.37508 3.97406 9.07133 3.97406 8.77601ZM22.9331 39.151L16.2835 39.148C14.0425 39.148 11.8353 38.39 10.0659 37.0134L6.18722 33.9969C5.69278 33.616 5.4 33.0169 5.4 32.3251V25.5751C5.4 24.6275 6.07238 23.7939 6.88416 23.6159L15.7688 22.2465C15.9131 22.2929 16.0566 22.2001 16.1916 22.2001C17.1965 22.2001 18.2242 23.0034 18.2242 24.2301C18.2242 25.1616 17.5902 25.9978 16.7754 26.1784L11.88 26.9166C10.865 27.0544 10.1267 27.9224 10.1267 28.9205C10.1267 30.6258 11.7146 30.9523 12.1264 30.9523C12.3495 30.9523 17.5778 30.2251 17.6563 30.2076C19.6433 29.7666 21.1587 28.3319 21.8523 26.5255C22.8909 27.6338 24.3506 28.351 25.9875 28.351C26.69 28.351 27.3637 28.2236 27.9863 27.9907C29.025 29.0429 30.4678 29.701 32.0625 29.701C32.0793 29.701 32.913 29.6634 33.6361 29.4546C33.0666 34.8901 28.5103 39.151 22.9331 39.151ZM33.75 23.9466C33.75 24.8832 32.9906 25.651 32.0625 25.651C31.1327 25.651 30.375 24.8851 30.375 23.9424V19.2596C30.375 18.3188 31.0584 17.551 32.0625 17.551C32.9923 17.551 33.75 18.317 33.75 19.2596V23.9466Z" fill="#1C0D5D"/>
</svg>
