<svg width="25" height="24" viewBox="0 0 25 24" fill="none" xmlns="http://www.w3.org/2000/svg">
<mask id="mask0_293_1929" style="mask-type:alpha" maskUnits="userSpaceOnUse" x="0" y="0" width="25" height="24">
<rect x="0.5" width="24" height="24" fill="#D9D9D9"/>
</mask>
<g mask="url(#mask0_293_1929)">
<path d="M4.5 20C3.95 20 3.47933 19.8043 3.088 19.413C2.696 19.021 2.5 18.55 2.5 18V14C3.05 14 3.521 13.804 3.913 13.412C4.30433 13.0207 4.5 12.55 4.5 12C4.5 11.45 4.30433 10.979 3.913 10.587C3.521 10.1957 3.05 10 2.5 10V6C2.5 5.45 2.696 4.97933 3.088 4.588C3.47933 4.196 3.95 4 4.5 4H20.5C21.05 4 21.521 4.196 21.913 4.588C22.3043 4.97933 22.5 5.45 22.5 6V10C21.95 10 21.479 10.1957 21.087 10.587C20.6957 10.979 20.5 11.45 20.5 12C20.5 12.55 20.6957 13.0207 21.087 13.412C21.479 13.804 21.95 14 22.5 14V18C22.5 18.55 22.3043 19.021 21.913 19.413C21.521 19.8043 21.05 20 20.5 20H4.5ZM4.5 18H20.5V15.45C19.8833 15.0833 19.396 14.596 19.038 13.988C18.6793 13.3793 18.5 12.7167 18.5 12C18.5 11.2833 18.6793 10.6207 19.038 10.012C19.396 9.404 19.8833 8.91667 20.5 8.55V6H4.5V8.55C5.11667 8.91667 5.60433 9.404 5.963 10.012C6.321 10.6207 6.5 11.2833 6.5 12C6.5 12.7167 6.321 13.3793 5.963 13.988C5.60433 14.596 5.11667 15.0833 4.5 15.45V18ZM12.5 17C12.7833 17 13.021 16.904 13.213 16.712C13.4043 16.5207 13.5 16.2833 13.5 16C13.5 15.7167 13.4043 15.479 13.213 15.287C13.021 15.0957 12.7833 15 12.5 15C12.2167 15 11.9793 15.0957 11.788 15.287C11.596 15.479 11.5 15.7167 11.5 16C11.5 16.2833 11.596 16.5207 11.788 16.712C11.9793 16.904 12.2167 17 12.5 17ZM12.5 13C12.7833 13 13.021 12.904 13.213 12.712C13.4043 12.5207 13.5 12.2833 13.5 12C13.5 11.7167 13.4043 11.479 13.213 11.287C13.021 11.0957 12.7833 11 12.5 11C12.2167 11 11.9793 11.0957 11.788 11.287C11.596 11.479 11.5 11.7167 11.5 12C11.5 12.2833 11.596 12.5207 11.788 12.712C11.9793 12.904 12.2167 13 12.5 13ZM12.5 9C12.7833 9 13.021 8.904 13.213 8.712C13.4043 8.52067 13.5 8.28333 13.5 8C13.5 7.71667 13.4043 7.479 13.213 7.287C13.021 7.09567 12.7833 7 12.5 7C12.2167 7 11.9793 7.09567 11.788 7.287C11.596 7.479 11.5 7.71667 11.5 8C11.5 8.28333 11.596 8.52067 11.788 8.712C11.9793 8.904 12.2167 9 12.5 9Z" fill="white"/>
</g>
</svg>
