<svg width="30" height="22" viewBox="0 0 30 22" fill="none" xmlns="http://www.w3.org/2000/svg">
    <path
        d="M29.3739 3.2846C29.2031 2.64857 28.8683 2.06854 28.4029 1.60258C27.9375 1.13661 27.3579 0.801044 26.7221 0.629464C24.3817 1.27724e-07 15 0 15 0C15 0 5.6183 -1.27724e-07 3.2779 0.626116C2.64181 0.797139 2.06191 1.13252 1.59645 1.59857C1.13098 2.06462 0.796337 2.64494 0.626116 3.28125C-1.27724e-07 5.625 0 10.5134 0 10.5134C0 10.5134 -1.27724e-07 15.4018 0.626116 17.7422C0.970982 19.0346 1.98884 20.0525 3.2779 20.3973C5.6183 21.0268 15 21.0268 15 21.0268C15 21.0268 24.3817 21.0268 26.7221 20.3973C28.0145 20.0525 29.029 19.0346 29.3739 17.7422C30 15.4018 30 10.5134 30 10.5134C30 10.5134 30 5.625 29.3739 3.2846ZM12.0201 15V6.02679L19.7879 10.4799L12.0201 15Z"
        fill="white" />
</svg>