<svg width="25" height="24" viewBox="0 0 25 24" fill="none" xmlns="http://www.w3.org/2000/svg">
<path d="M8.37744 19.0137C8.37744 19.1113 8.26514 19.1895 8.12354 19.1895C7.9624 19.2041 7.8501 19.126 7.8501 19.0137C7.8501 18.916 7.9624 18.8379 8.104 18.8379C8.25049 18.8232 8.37744 18.9014 8.37744 19.0137ZM6.85889 18.7939C6.82471 18.8916 6.92236 19.0039 7.06885 19.0332C7.1958 19.082 7.34229 19.0332 7.37158 18.9355C7.40088 18.8379 7.30811 18.7256 7.16162 18.6816C7.03467 18.6475 6.89307 18.6963 6.85889 18.7939ZM9.01709 18.7109C8.87549 18.7451 8.77783 18.8379 8.79248 18.9502C8.80713 19.0479 8.93408 19.1113 9.08057 19.0771C9.22217 19.043 9.31982 18.9502 9.30518 18.8525C9.29053 18.7598 9.15869 18.6963 9.01709 18.7109ZM12.23 0C5.45752 0 0.276855 5.1416 0.276855 11.9141C0.276855 17.3291 3.68506 21.9629 8.55322 23.5938C9.17822 23.7061 9.39795 23.3203 9.39795 23.0029C9.39795 22.7002 9.3833 21.0303 9.3833 20.0049C9.3833 20.0049 5.96533 20.7373 5.24756 18.5498C5.24756 18.5498 4.69092 17.1289 3.89014 16.7627C3.89014 16.7627 2.77197 15.9961 3.96826 16.0107C3.96826 16.0107 5.18408 16.1084 5.85303 17.2705C6.92236 19.1553 8.71436 18.6133 9.4126 18.291C9.5249 17.5098 9.84229 16.9678 10.1938 16.6455C7.46436 16.3428 4.71045 15.9473 4.71045 11.25C4.71045 9.90723 5.08154 9.2334 5.86279 8.37402C5.73584 8.05664 5.3208 6.74805 5.98975 5.05859C7.01025 4.74121 9.35889 6.37695 9.35889 6.37695C10.3354 6.10352 11.3853 5.96191 12.4253 5.96191C13.4653 5.96191 14.5151 6.10352 15.4917 6.37695C15.4917 6.37695 17.8403 4.73633 18.8608 5.05859C19.5298 6.75293 19.1147 8.05664 18.9878 8.37402C19.769 9.23828 20.2476 9.91211 20.2476 11.25C20.2476 15.9619 17.3716 16.3379 14.6421 16.6455C15.0913 17.0312 15.4722 17.7637 15.4722 18.9111C15.4722 20.5566 15.4575 22.5928 15.4575 22.9932C15.4575 23.3105 15.6821 23.6963 16.3022 23.584C21.1851 21.9629 24.4956 17.3291 24.4956 11.9141C24.4956 5.1416 19.0024 0 12.23 0ZM5.02295 16.8408C4.95947 16.8896 4.97412 17.002 5.05713 17.0947C5.13525 17.1729 5.24756 17.207 5.31104 17.1436C5.37451 17.0947 5.35986 16.9824 5.27686 16.8896C5.19873 16.8115 5.08643 16.7773 5.02295 16.8408ZM4.49561 16.4453C4.46143 16.5088 4.51025 16.5869 4.60791 16.6357C4.68604 16.6846 4.78369 16.6699 4.81787 16.6016C4.85205 16.5381 4.80322 16.46 4.70557 16.4111C4.60791 16.3818 4.52979 16.3965 4.49561 16.4453ZM6.07764 18.1836C5.99951 18.2471 6.02881 18.3936 6.14111 18.4863C6.25342 18.5986 6.39502 18.6133 6.4585 18.5352C6.52197 18.4717 6.49268 18.3252 6.39502 18.2324C6.2876 18.1201 6.14111 18.1055 6.07764 18.1836ZM5.521 17.4658C5.44287 17.5146 5.44287 17.6416 5.521 17.7539C5.59912 17.8662 5.73096 17.915 5.79443 17.8662C5.87256 17.8027 5.87256 17.6758 5.79443 17.5635C5.72607 17.4512 5.59912 17.4023 5.521 17.4658Z" fill="#1C0D5D"/>
</svg>
