<svg width="23" height="22" viewBox="0 0 23 22" fill="none" xmlns="http://www.w3.org/2000/svg">
<path d="M11.3357 5.33081C8.23022 5.33081 5.72534 7.83569 5.72534 10.9412C5.72534 14.0466 8.23022 16.5515 11.3357 16.5515C14.4412 16.5515 16.946 14.0466 16.946 10.9412C16.946 7.83569 14.4412 5.33081 11.3357 5.33081ZM11.3357 14.5886C9.32886 14.5886 7.68823 12.9529 7.68823 10.9412C7.68823 8.92944 9.32397 7.2937 11.3357 7.2937C13.3474 7.2937 14.9832 8.92944 14.9832 10.9412C14.9832 12.9529 13.3425 14.5886 11.3357 14.5886ZM18.4841 5.10132C18.4841 5.82886 17.8982 6.40991 17.1755 6.40991C16.448 6.40991 15.8669 5.82397 15.8669 5.10132C15.8669 4.37866 16.4529 3.79272 17.1755 3.79272C17.8982 3.79272 18.4841 4.37866 18.4841 5.10132ZM22.2 6.42944C22.1169 4.67651 21.7166 3.12378 20.4324 1.84448C19.1531 0.565185 17.6003 0.164795 15.8474 0.0769043C14.0408 -0.0256348 8.62573 -0.0256348 6.81909 0.0769043C5.07104 0.159912 3.51831 0.560303 2.23413 1.8396C0.949951 3.1189 0.554443 4.67163 0.466553 6.42456C0.364014 8.2312 0.364014 13.6462 0.466553 15.4529C0.549561 17.2058 0.949951 18.7585 2.23413 20.0378C3.51831 21.3171 5.06616 21.7175 6.81909 21.8054C8.62573 21.908 14.0408 21.908 15.8474 21.8054C17.6003 21.7224 19.1531 21.322 20.4324 20.0378C21.7117 18.7585 22.1121 17.2058 22.2 15.4529C22.3025 13.6462 22.3025 8.23608 22.2 6.42944ZM19.866 17.3914C19.4851 18.3484 18.7478 19.0857 17.7859 19.4714C16.3455 20.0427 12.9275 19.9109 11.3357 19.9109C9.7439 19.9109 6.32104 20.0378 4.8855 19.4714C3.92847 19.0906 3.19116 18.3533 2.80542 17.3914C2.23413 15.9509 2.36597 12.533 2.36597 10.9412C2.36597 9.34937 2.23901 5.92651 2.80542 4.49097C3.18628 3.53394 3.92358 2.79663 4.8855 2.41089C6.32593 1.8396 9.7439 1.97144 11.3357 1.97144C12.9275 1.97144 16.3503 1.84448 17.7859 2.41089C18.7429 2.79175 19.4802 3.52905 19.866 4.49097C20.4373 5.9314 20.3054 9.34937 20.3054 10.9412C20.3054 12.533 20.4373 15.9558 19.866 17.3914Z" fill="#1C0D5D"/>
</svg>
