<svg width="23" height="22" viewBox="0 0 60 48" fill="none" xmlns="http://www.w3.org/2000/svg">
<path d="M53.025 11.9625C53.0625 12.4874 53.0625 13.0125 53.0625 13.5375C53.0625 29.5499 40.8751 48 18.6 48C11.7375 48 5.36252 46.0124 0 42.5626C0.975036 42.675 1.91244 42.7125 2.92499 42.7125C8.5874 42.7125 13.8 40.8001 17.9625 37.5376C12.6375 37.425 8.17497 33.9375 6.63745 29.1375C7.38751 29.2499 8.13746 29.3249 8.92504 29.3249C10.0125 29.3249 11.1001 29.1749 12.1125 28.9125C6.56253 27.7874 2.3999 22.9125 2.3999 17.025V16.875C4.01234 17.775 5.8875 18.3375 7.87485 18.4124C4.61235 16.2374 2.47493 12.5249 2.47493 8.32492C2.47493 6.07496 3.07482 4.01246 4.12489 2.21244C10.0874 9.56244 19.05 14.3624 29.0999 14.8874C28.9124 13.9874 28.7999 13.05 28.7999 12.1125C28.7999 5.43744 34.1999 0 40.9124 0C44.3999 0 47.5498 1.4625 49.7624 3.825C52.4998 3.30002 55.1248 2.28747 57.4499 0.900007C56.5498 3.71257 54.6373 6.07507 52.1249 7.57497C54.5624 7.3126 56.9249 6.63745 59.0998 5.70004C57.4501 8.09994 55.3875 10.2374 53.025 11.9625Z" fill="white"/>
</svg>
